<svg version="1.1" id="Layer_1" xmlns="http://www.w3.org/2000/svg" xmlns:xlink="http://www.w3.org/1999/xlink" x="0px" y="0px"
	 viewBox="0 0 82 103" style="enable-background:new 0 0 82 103;" xml:space="preserve">
<style type="text/css">
	.st0{fill:#D96A27;}
</style>
<g>
	<path class="st0" d="M74.3,29.2l-11.6-5.5c-0.1-0.3-0.2-0.6-0.4-0.9c-0.4-0.9-1.3-1.5-2.3-1.3c-0.4,0.1-0.8,0.2-1.1,0.5l-2.6-1.2
		c-0.1-0.1-0.2-0.1-0.2-0.1c-0.4-0.2-0.8-0.4-1.2-0.5c-1.1-0.5-2.2-0.8-3.3-1.2c0-2,0-4.4-0.4-7.4C49.8-0.7,39.5,0.3,39.4,0.3
		c-0.7,0.1-1.2,0.6-1.3,1.3c0,0.7,0.4,1.3,1,1.4c1.2,0.8,2,7.6,1.3,14.2c0,0-0.1,0-0.1,0c-0.2,0-0.5,0-0.7,0c-1.1,0-2.2,0.1-3.2,0.3
		c-0.2,0-0.4,0.1-0.6,0.1c-0.9,0.1-1.8,0.3-2.7,0.5c-0.2-1.3-0.2-2.5-0.2-3.4c0-0.5-0.3-1-0.8-1.2c-0.5-0.2-1-0.2-1.5,0.2
		c-2.2,1.8-3.2,3.9-3.6,6.4c-0.2,0.1-0.3,0.1-0.5,0.2c-0.2,0.1-0.3,0.1-0.5,0.2c-0.2,0.1-0.4,0.2-0.6,0.3L7.7,29.2
		c-0.2,0.1-0.3,0.1-0.4,0.2c-0.8,0.4-1.6,0.9-2.3,1.5c-0.1,0.1-0.3,0.2-0.4,0.3c-0.7,0.6-1.3,1.3-1.8,2c-0.1,0.1-0.2,0.3-0.3,0.4
		c-0.5,0.8-1,1.6-1.3,2.5C1,36.3,1,36.5,0.9,36.7c-0.4,1-0.6,2-0.7,3.1c0,0.2,0,0.5-0.1,0.7c0,0.3,0,0.5,0,0.8v37.5c0,0.4,0,0.7,0,1
		c0,0.3,0.1,0.6,0.1,0.8c0.6,4,3,7.6,6.5,9.7c0.3,0.2,0.6,0.3,0.9,0.5l17.9,8.5c0.5,0.3,1.1,0.5,1.7,0.8c0.4,0.2,0.8,0.3,1.1,0.4
		c1.6,0.6,3.3,1.1,4.9,1.5c0.3,0.1,0.6,0.1,0.9,0.2c2.2,0.4,4.5,0.6,6.8,0.6c5.3,0,10.6-1.2,15.4-3.5l17.9-8.5
		c0.5-0.2,1-0.5,1.4-0.8c1.6-1,2.9-2.3,4-3.9c0.3-0.5,0.6-1,0.9-1.6c0.3-0.7,0.6-1.5,0.8-2.2c0.1-0.2,0.1-0.4,0.2-0.6
		c0.1-0.3,0.1-0.7,0.2-1c0.1-0.6,0.1-1.2,0.1-1.8V41.2C81.9,36.1,78.9,31.4,74.3,29.2z M51.6,21.6c0.8,0.3,1.5,0.6,2.3,0.9
		c0.4,0.2,0.8,0.3,1.2,0.5c0,0,0.1,0,0.1,0.1l2.8,1.3c-0.2,0.7-0.6,1.3-1,1.6c-0.7,0.5-1.6,0.6-2.8,0.3
		C51.9,25.8,51.6,25.2,51.6,21.6z M36.2,20.2L36.2,20.2c0.2,0,0.4-0.1,0.6-0.1c1-0.1,2-0.2,3-0.2c0.1,0,0.2,0,0.3,0
		c-0.2,1-0.4,1.9-0.7,2.8c-0.7,2.5-1.6,3.6-2.2,3.6c-1.9,0-3-2.6-3.6-5.6C34.4,20.5,35.3,20.4,36.2,20.2z M79.2,78.7
		c0,0.5,0,1-0.1,1.5c0,0.3-0.1,0.5-0.1,0.8c0,0.2-0.1,0.3-0.1,0.5c-0.2,0.6-0.4,1.2-0.7,1.8c-0.2,0.4-0.5,0.9-0.7,1.3
		c-0.8,1.3-1.9,2.3-3.2,3.1c-0.3,0.2-0.7,0.4-1.1,0.6l-17.9,8.5c-6.3,3-13.6,3.9-20.5,2.6c-0.3-0.1-0.5-0.1-0.8-0.2
		c-1.5-0.3-3.1-0.8-4.6-1.4c-0.3-0.1-0.7-0.2-1-0.4c-0.5-0.2-1.1-0.5-1.6-0.7L8.8,88.3c-0.3-0.1-0.5-0.3-0.7-0.4
		c-2.8-1.6-4.8-4.5-5.2-7.7c0-0.2-0.1-0.4-0.1-0.7c0-0.3,0-0.5,0-0.8V41.2c0-0.2,0-0.4,0-0.6c0-0.1,0-0.3,0-0.4l0-0.1
		c0.1-0.8,0.3-1.7,0.6-2.5c0-0.1,0.1-0.3,0.2-0.4c0.3-0.7,0.7-1.4,1.1-2c0.1-0.1,0.2-0.2,0.3-0.4c0.4-0.6,0.9-1.1,1.5-1.6
		c0.1-0.1,0.2-0.2,0.3-0.3c0.6-0.5,1.2-0.9,1.9-1.2c0.1-0.1,0.2-0.1,0.4-0.2l17.9-8.5c0.1,0,0.1-0.1,0.2-0.1c0,1.8,0.3,3.8,0.6,5.9
		c0.6,3.7-0.1,7.2-1.7,8.8c-0.6,0.7-1.4,1-2.1,0.9c-1.8-0.2-3.5-4.8-4.1-7.9c-0.1-0.6-0.7-1.1-1.3-1.1c-0.7,0-1.2,0.4-1.4,1.1
		L15.2,38c-1.9,8.2,7.6,13.6,8,13.9c0.2,0.1,0.4,0.2,0.7,0.2c0.5,0,0.9-0.3,1.2-0.7c0.4-0.7,0.1-1.5-0.5-1.9
		c-0.1,0-8.1-4.6-6.7-10.9l0.5-2.3c1,2.4,2.7,4.8,5,5c1.6,0.1,3.2-0.5,4.4-1.8c2.2-2.3,3.1-6.5,2.4-11.1c-0.4-2.6-0.6-4.8-0.5-6.6
		c0-1.1,0.2-2.1,0.5-3c0.1-0.2,0.1-0.3,0.2-0.5c0,0.1,0,0.3,0.1,0.4c0.1,0.8,0.3,1.7,0.5,2.7c0.8,3.7,2.6,7.6,6.3,7.6
		c3.3,0,4.9-4.6,5.6-9.1c0.1-0.6,0.2-1.2,0.2-1.7c0-0.3,0.1-0.6,0.1-0.9c0.3-3.5,0.5-10.1-0.8-14c2.3,0.6,5.4,2.6,6.1,8.5
		c0.3,2.4,0.4,4.5,0.4,6.3c0,0.9,0,1.7,0,2.4c0,0.1,0,0.2,0,0.3c-0.1,4.3,0,7.1,4.7,8.2c2.5,0.6,4.1-0.1,5-0.7
		c0.9-0.6,1.5-1.5,2-2.6c3.8,9.9,4.7,17.3,2.6,20.8c-0.8,1.4-2.2,2.2-4.1,2.5c-0.8,0.1-1.3,0.8-1.2,1.5c0.1,0.8,0.8,1.3,1.5,1.2
		c2.8-0.4,4.8-1.6,6.1-3.8c2.8-4.8,1.1-13.2-1.5-20.6l9.1,4.3c3.7,1.8,6,5.5,6,9.6V78.7z"/>
	<path class="st0" d="M67.5,71.9l-0.7-0.3c-0.6-0.2-1.2-0.3-1.8-0.3l-0.4-0.2l1.5-0.6c3-1.1,4.5-4.4,3.4-7.4L68,59.1c0,0,0,0,0,0
		c0,0,0,0,0,0l0-0.1c-1.1-3-4.4-4.5-7.4-3.4l-18.8,6.9L21,54.7c-1.4-0.5-3-0.5-4.4,0.1c-1.4,0.6-2.5,1.8-3,3.2L12,62.2
		c-0.5,1.4-0.5,3,0.1,4.4c0.6,1.4,1.8,2.5,3.2,3l3.5,1.3l-2.7,1c-0.4,0.1-0.8,0.2-1.2,0.3L14,72.7c-1.3,0.5-2.3,1.5-2.8,2.8
		c0,0.1-0.1,0.1-0.1,0.2c0,0,0,0,0,0.1c0,0.1,0,0.1-0.1,0.2c-0.5,1.3-0.6,2.7-0.1,4.1l1.5,4.2c0.9,2.4,3.2,3.9,5.6,3.8
		c0.6,0,1.2-0.1,1.8-0.4l21.8-8l18.1,6.8c0.4,0.3,0.9,0.6,1.4,0.8l0.7,0.3h0c0.6,0.2,1.3,0.3,1.9,0.3c2.3,0,4.5-1.4,5.3-3.7l1.8-4.9
		c0.5-1.4,0.4-3-0.2-4.3C70,73.5,68.9,72.4,67.5,71.9z M61.2,57.5c1.6-0.6,3.3,0,4.2,1.3l-7,2.4c-0.6,0.2-0.9,0.8-0.7,1.4
		c0.2,0.5,0.6,0.7,1,0.7c0.1,0,0.2,0,0.4-0.1l7.2-2.5l1.2,3.1c0.7,1.9-0.3,4.1-2.2,4.8l-3.8,1.4l-17-6.4L61.2,57.5z M22,83.1
		c-0.3,0.8-1,1.5-1.8,1.8l-0.9,0.4c-0.8,0.4-1.7,0.4-2.6,0c-0.8-0.3-1.5-1-1.8-1.8l-1.9-4.4c-0.3-0.8-0.4-1.7,0-2.6
		c0.3-0.8,1-1.5,1.8-1.8l0.9-0.4c0.4-0.2,0.9-0.3,1.3-0.3c1.3,0,2.5,0.8,3.1,2l1.9,4.4C22.4,81.3,22.4,82.2,22,83.1z M24.1,83.9
		c0.6-1.4,0.5-2.9,0-4.2l-1.9-4.4c-0.5-1.1-1.2-1.9-2.2-2.5l1.7-0.6l17,6.4L24.1,83.9z M57.7,79.9c-0.4,1.1-0.4,2.4-0.1,3.5l-13-4.9
		l-2.9-1.1l-17-6.4l-2.9-1.1L16,67.7c-0.9-0.4-1.7-1-2.1-2c-0.4-0.9-0.4-1.9-0.1-2.8l1.2-3.1l12.4,4.7c0.1,0,0.3,0.1,0.4,0.1
		c0.4,0,0.9-0.3,1-0.7c0.2-0.6-0.1-1.2-0.6-1.4L16,57.8c0.4-0.5,0.8-0.9,1.4-1.1c0.5-0.2,0.9-0.3,1.4-0.3c0.5,0,1,0.1,1.4,0.2
		l18.5,7l2.9,1.1l17,6.4l2.9,1.1l0.1,0c-1,0.6-1.8,1.6-2.2,2.8L57.7,79.9z M66.9,83C66.9,83,66.9,83,66.9,83
		c-0.2-0.5-0.7-0.8-1.2-0.8c-1.4,0.2-1.7,0.1-1.7,0.1c-0.1-0.2-0.2-1.1-0.2-1.8c0-0.4,0-0.8-0.1-1.3c1,0.6,2.3,1.4,3.5,1
		c0.3-0.1,0.7-0.3,1-0.7L66.9,83z M68.7,78c-0.1-0.3-0.3-0.5-0.6-0.6c-0.6-0.2-1.2,0-1.5,0.6c-0.1,0.1-0.1,0.2-0.1,0.2
		c-0.3,0.1-1.4-0.5-1.8-0.8c-0.9-0.6-1.8-1.1-2.7-0.6c-0.5,0.3-0.7,0.9-0.7,1.7c0.1,0.9,0.1,1.6,0.2,2.2c0.1,1.5,0.1,2.6,1,3.3
		c0.5,0.4,1.1,0.5,1.8,0.5c0.5,0,1-0.1,1.5-0.1c-1,0.9-2.5,1.3-3.8,0.7l-1-0.4c-0.6-0.4-1-0.9-1.3-1.5c-0.4-0.8-0.4-1.8-0.1-2.6
		l1.8-4.9c0.5-1.5,2-2.3,3.4-2.3l1.4,0.5c0.9,0.3,1.7,1,2.1,1.9C68.7,76.7,68.8,77.4,68.7,78z"/>
	<path class="st0" d="M34.8,70.2l-12.4-4.7c-0.6-0.2-1.2,0.1-1.4,0.6c-0.2,0.6,0.1,1.2,0.6,1.4L34,72.2c0.1,0,0.3,0.1,0.4,0.1
		c0.4,0,0.9-0.3,1-0.7C35.7,71,35.4,70.4,34.8,70.2z"/>
	<path class="st0" d="M45.8,69.6l-12.4-4.7c-0.6-0.2-1.2,0.1-1.4,0.6c-0.2,0.6,0.1,1.2,0.6,1.4l12.4,4.7c0.1,0,0.3,0.1,0.4,0.1
		c0.4,0,0.9-0.3,1-0.7C46.7,70.5,46.4,69.8,45.8,69.6z"/>
	<path class="st0" d="M19.3,78.8c-0.5-0.4-1.1-0.8-1.7-1.5c-0.9-0.9-1.6-1.1-2.3-0.7c-0.5,0.3-1.5,0.9,0.2,6.6
		c0.2,0.6,0.8,0.9,1.4,0.7c0.6-0.2,0.9-0.8,0.7-1.4c-0.3-1-0.6-2.1-0.7-3c0.4,0.4,0.8,0.7,1.1,0.9c1,0.8,1.1,0.8,0.4,2.9
		c-0.2,0.6,0.1,1.2,0.7,1.4c0.1,0,0.2,0.1,0.3,0.1c0.5,0,0.9-0.3,1-0.8C21.5,80.9,21,80.1,19.3,78.8z"/>
	<path class="st0" d="M54.9,62.7l-2,0.6c-0.6,0.2-0.9,0.8-0.8,1.4c0.1,0.5,0.6,0.8,1.1,0.8c0.1,0,0.2,0,0.3,0l2-0.6
		c0.6-0.2,0.9-0.8,0.8-1.4C56.1,62.9,55.5,62.6,54.9,62.7z"/>
</g>
</svg>
