<svg version="1.1" id="Layer_1" xmlns="http://www.w3.org/2000/svg" xmlns:xlink="http://www.w3.org/1999/xlink" x="0px" y="0px"
	 viewBox="0 0 76 55" style="enable-background:new 0 0 76 55;" xml:space="preserve">
<style type="text/css">
	.st0{fill:#8A6153;}
</style>
<g>
	<path class="st0" d="M63.8,27.8c0,0-0.1,0-0.1,0L61,28c0,0,0,0-0.1,0l-3.4,2c-0.1,0-0.1,0.1-0.1,0.2l0.8,2.3c0,0,0,0.1,0.1,0.1
		c0,0,0.1,0,0.1,0l2.3-1.4l1.1,10.6c0,0.1,0.1,0.1,0.1,0.1c0,0,0,0,0,0l3.1-0.3c0,0,0.1,0,0.1-0.1c0,0,0-0.1,0-0.1L63.8,27.8
		C63.8,27.8,63.8,27.8,63.8,27.8z"/>
	<path class="st0" d="M52.5,35.4c1.4-0.8,2-1.9,1.9-3.4c-0.2-1.8-1.8-3.4-5-3.1c-1.8,0.2-3.4,0.9-4.2,1.5c0,0-0.1,0.1,0,0.2l0.9,2.2
		c0,0,0.1,0.1,0.1,0.1c0,0,0.1,0,0.1,0c0.4-0.3,1.6-1,2.7-1.1c1.2-0.1,1.9,0.3,2,1.1c0.1,1-1.1,1.5-2.1,1.7l-1.2,0.1
		c-0.1,0-0.1,0.1-0.1,0.2l0.2,2.3c0,0.1,0.1,0.1,0.2,0.1l1.3-0.1c0.7-0.1,1.4,0,1.9,0.3c0.5,0.3,0.9,0.7,0.9,1.3
		c0.1,1-0.7,1.8-2.2,1.9c-1.5,0.1-2.9-0.4-3.2-0.5c0,0-0.1,0-0.1,0c0,0-0.1,0.1-0.1,0.1L46,42.7c0,0.1,0,0.1,0.1,0.2
		c0.6,0.3,1.8,0.6,3.2,0.6c0.3,0,0.7,0,1.1-0.1c1.7-0.2,3.1-0.7,4-1.6c0.9-0.9,1.4-2,1.2-3.3C55.4,36.9,54.2,35.7,52.5,35.4z"/>
	<path class="st0" d="M76,45.5l-2.7-23.9l-0.4-3.5c-0.5-1.3-1.5-2.3-2.8-2.8c-0.6-0.2-1.3-0.4-2-0.4H56.8H40V5.3
		c0-2.9-2.3-5.2-5.2-5.2H5.2C2.3,0.1,0,2.4,0,5.3v29.7c0,2.9,2.3,5.2,5.2,5.2h28.1v9.7c0,2.9,2.3,5.2,5.2,5.2h29.7
		c2.5,0,4.7-1.9,5.1-4.3C75,49.7,76.2,47.7,76,45.5z M40,17.2h28.1c1.1,0,2.1,0.6,2.5,1.5c0.2,0.4,0.3,0.8,0.3,1.3v1.7l0,0.3
		l-31,1.1l-2.3,0.1l-2.1,0.1v-1.2v-2c0-1.3,0.9-2.4,2.1-2.8c0.2-0.1,0.5-0.1,0.7-0.1H40z M33.3,20.1v2.3v1.5l0,0.2c0,0,0,0,0,0v0.2
		c-0.1,0-0.2-0.1-0.3-0.1H22c-0.6,0-1.2,0.5-1.2,1.2s0.5,1.2,1.2,1.2h11c0.1,0,0.2,0,0.3-0.1v2.1c-0.1,0-0.2-0.1-0.3-0.1H22
		c-0.6,0-1.2,0.5-1.2,1.2c0,0.6,0.5,1.2,1.2,1.2h11c0.1,0,0.2,0,0.3-0.1v7.1H5.2c-1.6,0-2.9-1.3-2.9-2.9V5.3c0-1.6,1.3-2.9,2.9-2.9
		h29.7c1.6,0,2.9,1.3,2.9,2.9V15C35.2,15.3,33.3,17.5,33.3,20.1z M35.6,49.7v-5.4l0.6,5.6c0.1,0.9,0.4,1.6,0.9,2.3
		C36.2,51.8,35.6,50.8,35.6,49.7z M68.1,52.6h-9.2l11.6-1.3C70,52.1,69.1,52.6,68.1,52.6z M73.3,47.5c-0.4,0.7-1.2,1.3-2.1,1.4h0
		l-0.2,0l-29.3,3.3c-1.6,0.2-3-1-3.2-2.5l-1.2-10.3L37,36.7l-1.3-11.2l1.9-0.1l2.3-0.1l31.2-1l2,17.8l0.4,3.5
		C73.7,46.4,73.6,47,73.3,47.5z"/>
	<path class="st0" d="M16.8,9.7h-4.3V5.4c0-0.6-0.5-1.2-1.2-1.2s-1.2,0.5-1.2,1.2v4.3H5.8c-0.6,0-1.2,0.5-1.2,1.2S5.2,12,5.8,12h4.3
		v4.3c0,0.6,0.5,1.2,1.2,1.2s1.2-0.5,1.2-1.2V12h4.3c0.6,0,1.2-0.5,1.2-1.2S17.4,9.7,16.8,9.7z"/>
	<path class="st0" d="M12.7,27.9l3-3.1c0.4-0.5,0.4-1.2,0-1.6c-0.5-0.4-1.2-0.4-1.6,0l-3,3.1l-3.1-3c-0.5-0.4-1.2-0.4-1.6,0
		c-0.4,0.5-0.4,1.2,0,1.6l3.1,3l-3,3.1c-0.4,0.5-0.4,1.2,0,1.6C6.7,33,7,33.1,7.3,33.1c0.3,0,0.6-0.1,0.8-0.4l3-3.1l3.1,3
		c0.2,0.2,0.5,0.3,0.8,0.3c0.3,0,0.6-0.1,0.8-0.4c0.4-0.5,0.4-1.2,0-1.6L12.7,27.9z"/>
	<path class="st0" d="M33.1,9.2h-11c-0.6,0-1.2,0.5-1.2,1.2s0.5,1.2,1.2,1.2h11c0.6,0,1.2-0.5,1.2-1.2S33.7,9.2,33.1,9.2z"/>
</g>
</svg>
