<svg version="1.1" id="Layer_1" xmlns="http://www.w3.org/2000/svg" xmlns:xlink="http://www.w3.org/1999/xlink" x="0px" y="0px"
	 viewBox="0 0 81 90" style="enable-background:new 0 0 81 90;" xml:space="preserve">
<style type="text/css">
	.st0{fill:#D96A27;}
</style>
<path class="st0" d="M73.5,16.9L69,14.8c0.1-0.1,0.1-0.3,0.2-0.4c0.2-0.5,0.2-1.5-1.5-2.2c-2.5-1.1-3.8-4.6-4.3-6.5
	c0.4-0.6,0.7-1.4,0.4-2.2c-0.5-1.5-2.5-3.1-13.3-3.1c-5.8,0-10.1,1.5-13,4.4c-0.1,0.1-0.2,0.3-0.4,0.4c-0.4,0-0.7,0.1-1.1,0.1
	c-0.2,0-0.4,0.1-0.6,0.1c-1,0.1-2,0.3-2.9,0.5c-0.2,0-0.4,0.1-0.6,0.1c-0.9,0.2-1.8,0.5-2.6,0.8c-0.2,0.1-0.4,0.1-0.5,0.2
	c-0.8,0.3-1.6,0.6-2.5,1C26.1,8,26,8.1,25.8,8.2c-0.2,0.1-0.4,0.2-0.6,0.3L7.5,16.9C7.3,17,7.2,17,7.1,17.1
	c-0.8,0.4-1.6,0.9-2.3,1.5c-0.1,0.1-0.3,0.2-0.4,0.3c-0.7,0.6-1.3,1.2-1.8,1.9c-0.1,0.1-0.2,0.3-0.3,0.4c-0.5,0.8-1,1.6-1.3,2.5
	c-0.1,0.2-0.1,0.4-0.2,0.5c-0.4,1-0.6,2-0.7,3.1C0,27.6,0,27.8,0,28c0,0.2,0,0.5,0,0.8v37.2c0,0.4,0,0.7,0,1c0,0.3,0.1,0.6,0.1,0.8
	c0.6,4,3,7.6,6.4,9.6c0.3,0.2,0.6,0.3,0.9,0.5l17.8,8.5c0.5,0.3,1.1,0.5,1.7,0.8c0.4,0.2,0.8,0.3,1.1,0.4c1.6,0.6,3.2,1.1,4.9,1.4
	c0.3,0.1,0.6,0.1,0.8,0.2c2.2,0.4,4.5,0.6,6.7,0.6c5.2,0,10.5-1.2,15.2-3.4l17.8-8.5c0.5-0.2,1-0.5,1.4-0.8c1.6-1,2.9-2.3,3.9-3.9
	c0.3-0.5,0.6-1,0.9-1.6c0.3-0.7,0.6-1.5,0.8-2.2c0.1-0.2,0.1-0.4,0.1-0.6c0.1-0.3,0.1-0.6,0.2-1c0.1-0.6,0.1-1.2,0.1-1.8V28.8
	C81,23.7,78.1,19.1,73.5,16.9z M38.5,7.7c0.3-0.3,0.5-0.7,0.9-1C40,6,40.8,5.5,41.6,5c2.3-1.3,5.2-2,8.9-2C58,3,60.3,3.8,61,4.2
	c-0.3,0.3-0.5,0.8-0.4,1.2c0,0.2,0.8,4,3,6.8c0.2,0.3,0.5,0.6,0.8,0.9c-1.5,0-3.5-0.1-5.7-0.3c-3.1-0.3-6.7-0.7-9.9-1.3
	c-3-0.6-5.5-0.8-7.5-0.8c-1.8,0-3.2,0.2-4.2,0.3C37.3,10,37.7,8.9,38.5,7.7z M29.8,32.8c0,0,0.1,0,0.1,0c0.7,0,1.3-0.5,1.4-1.3
	c0.3-3.8,1.5-10.4,3.4-12c0.3-0.2,0.4-0.2,0.6-0.2c0,0,0,0,0,0c0,0,0.1,0,0.1,0h3l-1.7,12.4c-0.1,0.7,0.4,1.4,1.2,1.5
	c0.1,0,0.1,0,0.2,0c0.7,0,1.3-0.5,1.3-1.2l1.7-12.8h2.5c2,0.8,2.5,6,2.4,8.5c0,0.8,0.6,1.4,1.3,1.4c0,0,0,0,0,0
	c0.7,0,1.3-0.6,1.4-1.3c0-0.7,0.1-5.1-1.4-8.3c6.3,3,9.7,10.5,14.4,21.1c1.9,4.2,4,9,6.6,14c2.6,5,2.7,9.4,0.5,13
	c-4.5,7.3-18,10.7-28.8,10.7c-12.8,0-22.9-3.6-27.1-9.5c-2.7-3.8-3-8.6-1-14.3c5.7-16.2,10.2-29,18.9-34c-1.7,4-2.3,9.9-2.3,10.7
	C28.5,32,29,32.7,29.8,32.8z M35.4,14.1h11.1c0.7,0,1.3,0.6,1.3,1.3c0,0.6-0.4,1-0.9,1.2c-2-0.7-4.2-1.1-6.8-1.1
	c-2,0-3.9,0.2-5.6,0.7c-0.2-0.2-0.3-0.5-0.3-0.8C34.2,14.7,34.7,14.1,35.4,14.1z M78.4,65.9c0,0.5,0,1-0.1,1.5
	c0,0.3-0.1,0.5-0.1,0.8c0,0.2-0.1,0.3-0.1,0.5c-0.2,0.6-0.4,1.2-0.7,1.8c-0.2,0.4-0.5,0.9-0.7,1.3c-0.8,1.2-1.9,2.3-3.1,3.1
	c-0.3,0.2-0.7,0.4-1.1,0.6l-17.8,8.5c-6.3,3-13.5,3.9-20.3,2.6c-0.3-0.1-0.5-0.1-0.8-0.2C32,86,30.4,85.5,29,85
	c-0.3-0.1-0.7-0.2-1-0.4c-0.5-0.2-1.1-0.5-1.6-0.7L8.6,75.4c-0.3-0.1-0.5-0.3-0.7-0.4c-2.8-1.6-4.7-4.5-5.2-7.7
	c0-0.2-0.1-0.4-0.1-0.7c0-0.3,0-0.5,0-0.8V28.8c0-0.2,0-0.4,0-0.6c0-0.1,0-0.3,0-0.4l0-0.1C2.8,26.8,3,26,3.3,25.2
	c0-0.1,0.1-0.3,0.2-0.4c0.3-0.7,0.6-1.4,1-1.9c0.1-0.1,0.2-0.2,0.3-0.4c0.4-0.6,0.9-1.1,1.4-1.6c0.1-0.1,0.2-0.2,0.3-0.3
	c0.6-0.5,1.2-0.9,1.9-1.2c0.1-0.1,0.2-0.1,0.4-0.2l17.7-8.4c0.2-0.1,0.3-0.2,0.5-0.2c0.1-0.1,0.3-0.1,0.4-0.2
	c0.8-0.3,1.5-0.6,2.3-0.9c0.1-0.1,0.3-0.1,0.5-0.2c0.8-0.3,1.6-0.5,2.5-0.7c0.1,0,0.3-0.1,0.5-0.1c0.7-0.2,1.4-0.3,2.1-0.4
	c-0.6,1.4-0.9,2.7-1,3.5c-1.6,0.5-2.7,2-2.7,3.8c0,0.6,0.1,1.2,0.4,1.7C20.6,21.7,15.5,36.2,9.3,53.7C7,60.3,7.5,66,10.7,70.5
	c7,9.9,24.3,10.6,29.4,10.6c11.8,0,26-3.7,31.1-12c2.7-4.5,2.6-9.8-0.4-15.7c-2.5-5-4.7-9.7-6.5-13.9c-4.5-10-8.1-18.1-14.6-21.8
	c0.5-0.7,0.9-1.5,0.9-2.5c0-0.3,0-0.6-0.1-0.9c3.2,0.5,7,1,10.5,1.2c1.5,0.1,2.7,0.1,3.7,0.1c0.1,0,0.3,0,0.4,0l7.4,3.5
	c3.6,1.7,6,5.5,6,9.5V65.9z"/>
</svg>
