<svg version="1.1" id="Layer_1" xmlns="http://www.w3.org/2000/svg" xmlns:xlink="http://www.w3.org/1999/xlink" x="0px" y="0px"
	 viewBox="0 0 71 66" style="enable-background:new 0 0 71 66;" xml:space="preserve">
<style type="text/css">
	.st0{fill:#8A6153;}
</style>
<g>
	<path class="st0" d="M69.7,32.2c-0.9-0.9-2-1.4-3.2-1.4l-39.7-0.6c-1,0-1.9,0.3-2.7,0.8c-0.2,0.1-0.4,0.3-0.6,0.5
		c-0.9,0.9-1.4,2-1.4,3.2l-0.4,25.5c0,2.5,2,4.6,4.5,4.7l39.7,0.6c0,0,0,0,0.1,0c2.5,0,4.6-2,4.6-4.5L71,35.5
		C71,34.3,70.5,33.1,69.7,32.2z M67.7,61c0,0.9-0.8,1.7-1.7,1.7c0,0,0,0,0,0l-39.7-0.6c-0.9,0-1.7-0.8-1.7-1.7l0.4-25.5
		c0-0.5,0.2-0.9,0.5-1.2c0.1-0.1,0.1-0.1,0.2-0.2c0.3-0.2,0.7-0.3,1-0.3l39.7,0.6c0.5,0,0.9,0.2,1.2,0.5c0.3,0.3,0.5,0.8,0.5,1.2
		L67.7,61z"/>
	<path class="st0" d="M52.9,48.3L65.7,39c0.7-0.4,0.8-1.3,0.4-2c-0.4-0.7-1.3-0.8-2-0.4L49.9,46.9c-2.3,1.2-5,1.2-7.3,0.1L28,36.3
		c-0.7-0.4-1.6-0.2-2,0.4c-0.4,0.7-0.2,1.6,0.4,2L39,47.8L26.6,58c-0.6,0.5-0.6,1.5-0.1,2c0.3,0.3,0.7,0.5,1.1,0.5
		c0.4,0,0.7-0.1,1-0.4l12.9-10.6c1.5,0.7,3.1,1.1,4.8,1.1c1.4,0,2.8-0.3,4.1-0.8c0,0,0,0,0,0L64,61c0.3,0.3,0.6,0.4,1,0.4
		c0.4,0,0.8-0.2,1.1-0.5c0.5-0.6,0.5-1.5-0.1-2L52.9,48.3z"/>
	<path class="st0" d="M43.6,18.2C43.6,18.2,43.6,18.2,43.6,18.2c3,1.1,6.1,0.7,8.7-0.9c2.8-1.7,5.5-3.6,6.1-6.3
		c0.3-1.3,0-2.5-0.8-3.8l-1.9-2.9C52.1-0.8,46.2,0.3,41,1.2c-5.5,1-31.6,18-36.4,24.5C-0.1,32-1.5,35.4,2,40.6l1.9,2.9
		c0.7,1,1.5,1.7,2.4,2c0.2,0.1,0.5,0.1,0.7,0.2c2.9,0.5,6.1-1.8,9.2-4.2c1.8-1.3,2.8-3.3,2.9-5.5l0.2-5l20.7-14L43.6,18.2z
		 M39.1,14.1l-22,14.8c-0.4,0.3-0.6,0.7-0.6,1.2l-0.2,5.7c0,1.3-0.7,2.5-1.8,3.4c-2.3,1.7-5.2,3.9-6.9,3.6c-0.3-0.1-0.8-0.2-1.3-1
		l-1.9-2.9c-2.3-3.4-2.2-5.2,2.5-11.5c4.5-6,29.6-22.5,34.6-23.4c3.8-0.7,6.7-1.1,8.8-0.3c1.1,0.4,2.1,1.1,2.8,2.3l1.9,2.9
		c0.5,0.7,0.5,1.2,0.4,1.5c-0.3,1.6-3.2,3.4-4.8,4.4c-1.9,1.2-4.1,1.4-6.2,0.6L40.4,14C39.9,13.8,39.5,13.9,39.1,14.1z"/>
	<path class="st0" d="M57.5,18l3.2,3.5c0.2,0.2,0.4,0.3,0.6,0.4c0.5,0.2,1.1,0.1,1.5-0.3c0.6-0.5,0.6-1.5,0.1-2l-3.2-3.5
		c-0.5-0.6-1.5-0.6-2-0.1C57,16.5,57,17.4,57.5,18z"/>
	<path class="st0" d="M57.3,24.8c0.2,0.3,0.4,0.5,0.7,0.6c0.4,0.1,0.9,0.1,1.2-0.1c0.7-0.4,0.9-1.3,0.5-2l-2.1-3.4
		c-0.4-0.7-1.3-0.9-2-0.5c-0.7,0.4-0.9,1.3-0.5,2L57.3,24.8z"/>
	<path class="st0" d="M52.4,20c-0.8,0.2-1.2,1-1,1.8l0.8,3.3c0.1,0.5,0.5,0.8,0.9,1c0.3,0.1,0.6,0.1,0.8,0c0.8-0.2,1.2-1,1-1.8
		L54.2,21C54,20.2,53.2,19.8,52.4,20z"/>
</g>
</svg>
