<svg version="1.1" id="Layer_1" xmlns="http://www.w3.org/2000/svg" xmlns:xlink="http://www.w3.org/1999/xlink" x="0px" y="0px"
	 viewBox="0 0 85 102.5" style="enable-background:new 0 0 85 102.5;" xml:space="preserve">
<style type="text/css">
	.st0{fill:#D96A27;}
</style>
<path class="st0" d="M84.4,60.6l-0.9-1.6V39.6c0-5.2-3-10-7.7-12.2l-18.3-8.7c-0.1-0.1-0.2-0.1-0.2-0.1c-0.4-0.2-0.8-0.4-1.2-0.6
	c-1.7-0.7-3.5-1.3-5.3-1.8L41.4,0.1l-9.5,16.4c-0.6,0.2-1.1,0.3-1.7,0.5c-0.2,0.1-0.4,0.1-0.5,0.2c-0.8,0.3-1.7,0.6-2.5,1
	c-0.2,0.1-0.3,0.2-0.5,0.2c-0.2,0.1-0.4,0.2-0.6,0.3L7.8,27.4c-0.2,0.1-0.3,0.1-0.4,0.2c-0.8,0.4-1.6,0.9-2.4,1.5
	c-0.1,0.1-0.3,0.2-0.4,0.3c-0.7,0.6-1.3,1.3-1.8,2c-0.1,0.1-0.2,0.3-0.3,0.5c-0.5,0.8-1,1.6-1.4,2.5C1.1,34.7,1,34.9,0.9,35
	c-0.4,1-0.6,2.1-0.7,3.2c0,0.2,0,0.5-0.1,0.7c0,0.3,0,0.5,0,0.8v38.3c0,0.4,0,0.7,0,1c0,0.3,0.1,0.6,0.1,0.8
	c0.6,4.1,3.1,7.8,6.6,9.8c0.2,0.1,0.4,0.2,0.6,0.3l0.1,2c0,1.3,0.8,2.3,1.9,2.3c0,0,0,0,0,0l2.2-0.1c0.8,0,1.4-0.6,1.7-1.5l12.8,6.1
	c0.6,0.3,1.1,0.5,1.7,0.8c0.4,0.2,0.8,0.3,1.1,0.4c1.6,0.6,3.3,1.1,5,1.5c0.3,0.1,0.6,0.1,0.9,0.2c2.3,0.4,4.6,0.7,6.9,0.7
	c5.4,0,10.8-1.2,15.7-3.5l18.3-8.7c0.5-0.3,1-0.5,1.5-0.8c1.6-1,3-2.4,4-4c0.3-0.5,0.6-1.1,0.9-1.6c0.3-0.7,0.6-1.5,0.8-2.3
	c0.1-0.2,0.1-0.4,0.2-0.6c0.1-0.3,0.1-0.7,0.2-1c0.1-0.6,0.1-1.2,0.1-1.9v-14l0.5-0.3C85,63.1,85.1,61.8,84.4,60.6z M81.6,61.8
	l-0.8-1.3l-3.6-6.1l-6.4-10.9l0.2-0.1L80.8,60l1,1.7L81.6,61.8z M55,20.6c0.4,0.2,0.8,0.3,1.2,0.5c0,0,0.1,0,0.2,0.1l18.3,8.7
	c3.7,1.8,6.2,5.6,6.2,9.8v14.8l-7.7-12.9c-0.2-0.4-0.5-0.7-0.9-1c-0.6-0.4-1.3-0.4-1.9-0.1l-1.9,1.1c-0.9,0.6-1.1,1.8-0.4,3l3.9,6.6
	c-3.1,3.6-6.7,6.8-10.8,9.7l-4.2-7.3h2c1.1,0,2-0.6,2.6-1.5c0.5-0.9,0.5-2.1,0-3L53,34.3h3c1.1,0,2.1-0.6,2.6-1.5
	c0.5-0.9,0.5-2.1,0-3l-5.8-10.1C53.5,20,54.3,20.3,55,20.6z M33.9,18.9l1.8-3.1l5.8-10l5.7,9.8l1.8,3.1l7.3,12.6c0,0,0.1,0.1,0,0.2
	c-0.1,0.1-0.2,0.1-0.2,0.1h-7.9L59,50.4c0,0,0.1,0.1,0,0.2c-0.1,0.1-0.1,0.1-0.2,0.1H52l6.8,11.7c-2.7,1.7-5.6,3.3-8.8,4.7
	c-0.1,0.1-0.2,0.1-0.3,0.1H38.3h-0.7H21.7c-0.1,0-0.2,0-0.2-0.1c0-0.1,0-0.2,0-0.3l9.4-16.2l-7.1-0.1l11-19.1h-8c0,0-0.1,0-0.1-0.1
	c0-0.1,0-0.1,0-0.1L33.9,18.9z M10.6,91.4l-0.2,0l0-0.1l-0.1-3L9.8,70.2l0.3,0l0.5,18.2L10.6,91.4L10.6,91.4z M12.9,69.7
	c0-1.4-0.9-2.3-1.9-2.3l-2.2,0.1c-1.1,0-1.8,1-1.8,2.4l0.4,16.9C5,85,3.4,82.4,3,79.4c0-0.2-0.1-0.4-0.1-0.7c0-0.3,0-0.5,0-0.8V39.6
	c0-0.2,0-0.4,0-0.6c0-0.1,0-0.3,0-0.5l0-0.1C3,37.6,3.2,36.8,3.5,36c0-0.1,0.1-0.3,0.2-0.4c0.3-0.7,0.7-1.4,1.1-2
	c0.1-0.1,0.2-0.2,0.3-0.4c0.4-0.6,0.9-1.1,1.5-1.6c0.1-0.1,0.2-0.2,0.3-0.3C7.4,30.8,8,30.4,8.7,30c0.1-0.1,0.2-0.1,0.4-0.2
	l18.2-8.7c0.2-0.1,0.4-0.2,0.6-0.3c0.1-0.1,0.3-0.1,0.4-0.2c0.5-0.2,1.1-0.4,1.6-0.6L24.2,30c-0.5,0.9-0.5,2,0,2.9
	c0.5,0.9,1.5,1.5,2.5,1.5h3.2l-8.6,14.9c-0.5,0.9-0.5,2,0,2.8c0.5,0.9,1.4,1.4,2.5,1.4H26l-6.9,12c-0.6,1-0.6,2.1,0,3.1
	c0.6,1,1.5,1.5,2.7,1.5h15.9h0.7h4.3c-13.2,4.5-25.4,5.3-29.5,5.4L12.9,69.7z M13.1,78.3c5.2-0.1,21.6-1.1,38.1-8.6
	c9-4.1,16.4-9.5,22.3-16l1.1,1.9c-0.1,0.5-0.2,1.1-0.2,1.5c0,0.2,0,0.4,0,0.5c-0.1,0-0.3,0.1-0.4,0.1c-0.6,0.1-1.4,0.3-2,1
	c-0.5,0.6-0.5,1.3-0.6,2.1c0,0.1,0,0.1,0,0.2c-0.5,0-1.3,0-2,0.7c-0.6,0.6-0.6,1.5-0.7,2.4c0,0.1,0,0.2,0,0.3c0,0,0,0,0,0
	c-0.7-0.1-1.7-0.3-2.5,0.4c-0.7,0.6-0.8,1.5-0.9,2.3c0,0.1,0,0.2,0,0.3c-0.2,0-0.4,0-0.5-0.1c-0.8-0.1-1.9-0.2-2.7,0.4
	c-0.8,0.7-0.9,1.7-1,2.4c0,0,0,0,0,0c0,0,0,0,0,0c-0.6-0.1-1.5-0.3-2.3,0.3c-0.7,0.5-1,1.3-1.2,1.9c-0.1,0.2-0.1,0.4-0.2,0.5
	c-0.1,0-0.2,0-0.3,0c-0.6-0.1-1.4-0.2-2.2,0.3c-0.8,0.5-1.1,1.3-1.4,1.9c-0.1,0.2-0.2,0.4-0.2,0.5c-0.1,0-0.3,0-0.5-0.1
	c-0.7-0.1-1.5-0.3-2.2,0.2c-0.8,0.5-1.2,1.3-1.4,2c0,0.1-0.1,0.3-0.2,0.4c-0.1,0-0.3-0.1-0.5-0.1c-0.7-0.2-1.5-0.4-2.4,0
	c-0.8,0.4-1.2,1.1-1.6,1.6c-0.1,0.1-0.2,0.3-0.3,0.5c-0.1,0-0.4-0.1-0.5-0.1c-0.6-0.2-1.4-0.4-2.2-0.1c-0.7,0.3-1.2,0.9-1.6,1.5
	c0,0.1-0.1,0.1-0.1,0.2c-0.5-0.3-1.2-0.7-2.1-0.5c-0.9,0.2-1.4,1-1.8,1.7c-0.1,0.1-0.1,0.2-0.2,0.3c0,0-0.1-0.1-0.1-0.1
	c-0.5-0.4-1.3-1-2.4-0.9c-0.9,0.2-1.5,0.9-1.9,1.5c-0.1,0.1-0.1,0.2-0.2,0.3c-0.2-0.1-0.4-0.2-0.5-0.3c-0.6-0.4-1.4-0.9-2.3-0.9
	c-1,0.1-1.6,0.8-2,1.3c0,0-0.1,0.1-0.1,0.1c-0.1-0.1-0.2-0.1-0.2-0.2c-0.5-0.5-1.2-1.1-2.1-1.1c-0.9,0-1.6,0.5-1.9,0.9
	c-0.1-0.1-0.2-0.2-0.2-0.2c-0.7-0.7-1.3-1.4-2.2-1.3c-0.5,0.1-0.9,0.3-1.2,0.7C18.4,83,18.3,83,18.3,83c-0.2,0-0.8-0.4-1.1-0.6
	c-0.5-0.3-0.9-0.7-1.4-0.8c-0.5-0.1-1.1-0.2-1.7-0.3c-0.2,0-0.5-0.1-0.8-0.1L13.1,78.3z M80.8,77.9c0,0.5,0,1-0.1,1.5
	c0,0.3-0.1,0.5-0.1,0.8c0,0.2-0.1,0.3-0.1,0.5c-0.2,0.6-0.4,1.2-0.7,1.8c-0.2,0.5-0.5,0.9-0.7,1.3c-0.8,1.3-1.9,2.4-3.2,3.2
	c-0.4,0.2-0.7,0.4-1.2,0.6l-18.3,8.7c-6.5,3.1-13.9,4-20.9,2.7c-0.3-0.1-0.5-0.1-0.8-0.2c-1.6-0.3-3.2-0.8-4.7-1.4
	c-0.3-0.1-0.7-0.3-1-0.4c-0.5-0.2-1.1-0.5-1.6-0.7l-13.9-6.6L13.3,84c0.1,0,0.2,0,0.3,0c0.5,0.1,1.1,0.2,1.4,0.2
	c0.1,0,0.4,0.2,0.5,0.4c0.8,0.6,1.9,1.4,3.3,1.1c0.4-0.1,0.8-0.3,1.2-0.5c0.6,0.6,1.2,1.2,2,1.3c1,0.1,1.7-0.6,2.1-1
	c0.1,0.1,0.1,0.1,0.2,0.2c0.6,0.5,1.2,1.2,2.2,1.2c0,0,0,0,0,0c1,0,1.6-0.7,2.1-1.2c0.1-0.1,0.1-0.2,0.2-0.2
	c0.2,0.1,0.3,0.2,0.5,0.3c0.7,0.4,1.5,1,2.5,0.9c1-0.1,1.5-0.9,2-1.5c0-0.1,0.1-0.1,0.2-0.2c0,0,0.1,0.1,0.1,0.1
	c0.6,0.4,1.4,1.1,2.5,0.9c0.9-0.2,1.4-1,1.9-1.7c0.1-0.1,0.1-0.2,0.2-0.3c0.5,0.3,1.2,0.7,2.2,0.4c0.7-0.2,1.2-0.9,1.6-1.5
	c0.1-0.1,0.2-0.3,0.3-0.4c0.1,0,0.3,0.1,0.4,0.1c0.6,0.2,1.5,0.4,2.4,0.1c0.8-0.3,1.3-1.1,1.6-1.7c0.1-0.2,0.2-0.4,0.3-0.5
	c0.2,0,0.4,0.1,0.5,0.1c0.7,0.2,1.6,0.4,2.5,0c0.9-0.4,1.2-1.3,1.5-2c0.1-0.1,0.1-0.3,0.2-0.5c0.1,0,0.3,0,0.4,0.1
	c0.7,0.1,1.5,0.3,2.3-0.2c0.8-0.5,1.1-1.3,1.4-1.9c0.1-0.2,0.2-0.4,0.2-0.6c0.1,0,0.3,0,0.4,0c0.6,0.1,1.5,0.2,2.3-0.3
	c0.7-0.5,1-1.3,1.3-1.9c0.1-0.2,0.1-0.4,0.2-0.5c0.1,0,0.2,0,0.3,0c0.7,0.1,1.6,0.3,2.4-0.3C63.9,72,64,71,64,70.4
	c0-0.1,0-0.2,0-0.4c0.2,0,0.4,0,0.5,0.1c0.8,0.1,1.9,0.2,2.7-0.4c0.8-0.6,0.9-1.5,0.9-2.3c0-0.1,0-0.1,0-0.2c0,0,0,0,0.1,0
	c0.7,0.1,1.8,0.3,2.6-0.5c0.6-0.6,0.7-1.6,0.7-2.4c0-0.1,0-0.2,0-0.3c0.6,0,1.4,0,2-0.7c0.5-0.6,0.6-1.4,0.6-2.1c0-0.1,0-0.3,0-0.4
	c0.1,0,0.2-0.1,0.4-0.1c0.6-0.2,1.5-0.4,2.1-1.1c0,0,0,0,0-0.1l2.6,4.4c0.4,0.6,0.9,1.1,1.4,1.2V77.9z"/>
</svg>
