<svg version="1.1" id="Layer_1" xmlns="http://www.w3.org/2000/svg" xmlns:xlink="http://www.w3.org/1999/xlink" x="0px" y="0px"
	 viewBox="0 0 139 138" style="enable-background:new 0 0 139 138;" xml:space="preserve">
<g>
	<path class="st0" d="M27.8,54.8c0.7,0,1.3-0.2,1.9-0.7c0.6-0.5,0.9-1.2,1-1.9c0.1-0.7-0.2-1.4-0.7-2c-1-1.2-2.9-1.3-4.1-0.3
		c-1.2,1-1.3,2.7-0.3,3.9C26.2,54.4,27,54.8,27.8,54.8z M26.8,50.9c0.3-0.2,0.7-0.4,1-0.4c0.4,0,0.9,0.2,1.2,0.5
		c0.6,0.6,0.5,1.6-0.2,2.1c-0.7,0.5-1.7,0.5-2.2-0.2C26.1,52.4,26.2,51.4,26.8,50.9z"/>
	<path class="st0" d="M55.8,42.5c0.4,0,0.9-0.2,1.4-0.5c0.8-0.4,1.8-0.9,2.8-0.8c0.4,0.1,0.7,0.2,1,0.4c0.4,0.2,0.9,0.5,1.5,0.2
		c0.4-0.2,0.8-0.7,0.9-1.3c0.2-0.7,0-1.5-0.4-2c-0.6-0.7-1.7-0.9-3.1-0.8C58.1,38,56,39,55.2,40.5c-0.3,0.5-0.5,1.3,0,1.8
		C55.4,42.5,55.6,42.5,55.8,42.5z M60,39.1c0.2,0,0.4,0,0.6,0c0.7,0,1.2,0.2,1.3,0.4c0.2,0.2,0.2,0.5,0.1,0.9
		c-0.1,0.3-0.2,0.5-0.2,0.5c-0.1,0-0.2-0.1-0.3-0.2c-0.3-0.2-0.8-0.4-1.4-0.5c-1.5-0.3-2.8,0.4-3.7,0.9c-0.1,0-0.1,0.1-0.2,0.1
		C56.9,40,58.6,39.2,60,39.1z"/>
	<path class="st0" d="M79,37.8c-1.4-0.2-2.6,0.1-3.1,0.8c-0.4,0.5-0.6,1.2-0.4,2c0.1,0.6,0.5,1.1,0.9,1.3c0.6,0.3,1.1,0,1.5-0.2
		c0.3-0.2,0.6-0.3,1-0.4c1-0.2,2,0.3,2.8,0.8c0.5,0.2,0.9,0.5,1.4,0.5c0.2,0,0.4-0.1,0.6-0.2c0.5-0.5,0.3-1.2,0-1.8
		C82.9,39,80.8,38,79,37.8z M82.3,41c-0.7-0.4-1.8-0.9-3-0.9c-0.2,0-0.4,0-0.7,0.1c-0.6,0.1-1.1,0.3-1.4,0.5
		c-0.1,0.1-0.3,0.2-0.3,0.2c0,0-0.2-0.2-0.2-0.5c-0.1-0.3,0-0.7,0.1-0.9c0.2-0.3,0.9-0.5,2-0.3c1.4,0.2,3.1,0.9,3.6,2
		C82.4,41,82.3,41,82.3,41z"/>
	<path class="st0" d="M138.6,95.4l-17.4-30.2c-0.3-0.4-0.6-0.8-1-1c-0.5-0.3-1-0.3-1.5-0.1l-3.7,1.9v-7.6c4.2,3.2,10.7,8.6,10.8,8.7
		c0.8,0.6,1.5,0.9,2.1,0.9c0.1,0,0.3,0,0.4,0c1-0.2,1.5-1.2,2-2l7.3-13.6c0.1-0.2,0.2-0.3,0.3-0.5c0.5-0.8,1.1-1.7,0.6-2.6
		c-0.3-0.6-1.1-1-2.5-1.2c-0.9-0.3-11-3.5-14.9-5.3c-1.6-0.8-3.9-1.7-6-2.7V18.3c0-1.6-0.8-3-2.2-3.9l-6.6-4.1C95.5,3.6,83,0,70.1,0
		C57.2,0,44.7,3.6,34,10.3l-6.6,4.1c-1.4,0.9-2.2,2.3-2.2,3.9v23.8c-0.6-0.1-1.2-0.2-1.7,0.1l-0.2,0.1l-1,1.7l-2.5,0.4l-0.7,2.9
		c-0.1,0.1-0.3,0.2-0.5,0.3c-0.6,0.3-1.5,0.7-1.7,1.7c-0.1,0.6,0.2,1.1,0.5,1.6c0.1,0.1,0.2,0.3,0.3,0.4c-0.1,0.1-0.2,0.2-0.4,0.3
		c-0.5,0.4-1.3,1-1,2c0.2,0.6,0.9,1,1.5,1.3c0.2,0.1,0.4,0.2,0.5,0.3c0.1,0.4,0.1,0.7,0,1.1c0,0.6-0.1,1.3,0.5,2l0.2,0.2l2.4,0.4
		l0.4,1.9L9.6,75.9l-9,11.2C0.3,87.5,0,88,0,88.4c-0.1,0.5,0.1,1,0.5,1.3l3.6,2.7c0.2,0.2,0.5,0.3,0.8,0.3c0.6,0,1.3-0.3,1.8-1
		l0.8-0.9c0.2,0.7,0.5,1.4,0.8,2c0.1,0.1,0.1,0.5,0,0.8c0,0.8,0,1.8,0.7,2.5c0.4,0.4,1,0.6,1.7,0.6c0,0.2-0.1,0.4-0.1,0.5
		c-0.1,0.7-0.3,1.4,0,1.9c0.4,0.6,1.1,0.6,1.6,0.6c0.2,0,0.6,0,0.7,0.1c0.1,0.1,0,0.6,0,0.8c-0.1,0.6-0.2,1.3,0.2,1.8
		c0.4,0.5,1.1,0.5,1.8,0.6c0.3,0,0.9,0.1,1,0.2c0.1,0.1,0.2,0.6,0.2,1c0,0.7,0.1,1.4,0.6,1.9c0.5,0.4,1.2,0.4,1.9,0.4
		c0.3,0,0.9,0,1.1,0.1c0.1,0.1,0.1,0.5,0,0.7c0,0.6-0.1,1.4,0.6,1.8c0.5,0.3,1.2,0.3,2.1,0.3c0.4,0,1.1,0,1.2,0
		c0.1,0.1,0.1,0.3,0.1,0.5c0,0.4,0.1,1.1,0.7,1.5c0.4,0.3,1.1,0.3,1.8,0.2c0.3,0,0.9,0,1,0c0.2,0.1,0.3,0.5,0.5,0.8
		c0.2,0.5,0.5,1.1,1.1,1.5c0.6,0.3,1.3,0.2,1.9,0.2c0.5,0,1-0.1,1.2,0c0.2,0.1,0.4,0.5,0.5,0.8c0.3,0.6,0.6,1.2,1.2,1.5
		c0.4,0.2,0.9,0.2,1.3,0.1c1.7,2.8,4,5.4,5.8,6.7c0.2,0.1,0.3,0.2,0.5,0.3l26.2,13.8c0.7,0.4,1.5,0.6,2.3,0.6c0.8,0,1.6-0.2,2.3-0.6
		l26.2-13.8c0.2-0.1,0.4-0.2,0.5-0.3c1.8-1.3,3.6-3.3,5.3-6c0.4,0,0.7,0,1-0.1c0.6-0.2,0.9-0.8,1.2-1.3c0.2-0.3,0.4-0.6,0.5-0.7
		c0.2-0.1,0.8,0,1.2,0.1c0.7,0.1,1.4,0.3,2,0c0.6-0.3,0.9-0.9,1.2-1.5c0.1-0.3,0.3-0.7,0.5-0.8c0.2-0.1,0.8-0.1,1.2-0.1
		c0.7,0,1.4,0.1,1.9-0.2c0.6-0.3,0.9-0.9,1.1-1.5c0.1-0.3,0.3-0.7,0.5-0.8c0.1-0.1,0.7-0.1,1.1-0.1c0.7,0,1.3,0,1.8-0.3
		c0.6-0.4,0.6-1,0.7-1.5c0-0.2,0-0.4,0.1-0.5c0.2-0.1,0.8-0.1,1.2-0.1c0.8,0,1.6,0,2-0.3c0.6-0.5,0.6-1.3,0.5-1.8c0-0.2,0-0.7,0-0.7
		c0.1-0.1,0.7-0.1,1.1-0.1c0.7,0,1.4,0,1.9-0.5c0.6-0.5,0.6-1.3,0.6-2c0-0.4,0-0.9,0.1-1.1c0.2-0.2,0.8-0.2,1.2-0.2
		c0.7,0,1.3,0,1.8-0.4c0.4-0.4,0.6-1.1,0.8-1.8c0,0,0,0,0,0l0,0.1c0.3,0.4,0.6,0.8,1,1c0.3,0.1,0.5,0.2,0.8,0.2
		c0.2,0,0.4-0.1,0.6-0.2l4-2.1C139.1,97.6,139.2,96.4,138.6,95.4z M135.6,49.4l0.1,0c1,0.1,1.4,0.3,1.5,0.5c0.1,0.3-0.3,1-0.6,1.4
		c-0.1,0.2-0.2,0.4-0.3,0.5l-7.3,13.6c-0.3,0.6-0.6,1.2-1.1,1.3c-0.3,0.1-0.8-0.2-1.4-0.6c-0.1-0.1-0.3-0.3-0.7-0.6l8.8-16.5
		C135.3,49.2,135.5,49.3,135.6,49.4z M115,41.5L115,41.5L115,41.5c2.1,0.9,4.1,1.8,5.5,2.4c3.1,1.5,9.7,3.7,13,4.7L125,64.8
		c-3-2.4-9-7.3-11.6-9c-0.4-0.3-0.7-0.6-1.1-0.7c-4.1-2.8-8.8-5.3-10.1-6l5.9-10.3c0.6,0.3,2,0.8,3.6,1.5c0.6,0.6,1.1,0.6,1.6,0.7
		c0,0,0.1,0,0.1,0C114,41.1,114.5,41.3,115,41.5z M121.8,81.8c-2.3,2.7-4.9,4.9-7.9,6.8c0.8-4.6,1.2-8.2,1.2-11.2v-7.2L121.8,81.8z
		 M112.6,56.7c0.1,0.1,0.2,0.2,0.3,0.3c0.3,0.2,0.5,0.5,0.8,0.7v19.7c0,3.2-0.4,7-1.4,12.1c-0.2,0.1-0.3,0.2-0.5,0.3
		c-0.2,0.1-0.4,0.1-0.6,0.2c0.9-4.9,1.4-9,1.4-12.5L112.6,56.7z M107,91.9l0.2,0.1c-6.2,2.4-13.8,3.9-23.5,4.7
		c2-3.2,1.2-8.5,0.4-11.7l0,0c0.7-0.7,1.9-1.1,3.2-1.6c2.9-1,6.5-2.3,6.2-7.5L92.2,76c0.3,4.3-2.4,5.3-5.3,6.3
		c-1.2,0.4-2.3,0.8-3.1,1.4c-0.2-0.6-0.3-1.1-0.4-1.1l-0.1-0.1l6.2-11.2l10.8-18.8C109.3,58.1,115.6,71.1,107,91.9z M110.9,84.5
		c-0.3,2-0.6,4.1-1,6.3c-0.4,0.2-0.8,0.4-1.3,0.6C109.5,89,110.3,86.7,110.9,84.5z M80.6,92.3c0.2,0.1,0.6,0.2,1,0.2
		c0.3,0,0.8,0,1.2-0.1c0.3,0,0.6-0.1,0.8-0.1c0,0.5-0.1,1-0.2,1.5c-0.2-0.1-0.4-0.1-0.5-0.1c-0.1,0-0.3,0.1-0.3,0.3
		c-0.1,0-0.2,0.1-0.5,0.1c-0.6,0.1-0.9,0.1-1,0c-0.3-0.1-0.6,0-0.8,0.2c-0.2,0.3-0.1,0.7,0.2,0.9c0.2,0.1,0.5,0.2,0.9,0.2
		c0.3,0,0.6,0,0.9-0.1c0.3,0,0.6-0.1,0.8-0.2c-0.1,0.3-0.3,0.7-0.5,0.9c-0.2,0.3-1.1,0.3-1.9,0.3c-0.8,0-1.7,0-2.4,0.2
		c-0.2,0.1-0.4,0.3-0.4,0.5c-2.3,0.1-4.6,0.2-7.1,0.2c-2.8,0-5.4-0.1-8.1-0.2c0.1-0.1,0.1-0.2,0.1-0.4v-7.4c0.1,0.2,0.3,0.3,0.6,0.3
		c0,0,0,0,0,0l1.6-0.1l2.9-0.1c0.4,0,0.8-0.2,1.1-0.5c0.7-0.7,3.2-3.5,3.7-7.6l0.1-0.6c0.3-2.1,0.4-3.5,0.9-3.8
		c0.3-0.2,1.1-0.2,2.4,0.1c0.2,0.5,0.2,2.5-0.4,5.1l0.1,0.5l0.5,0.3l5.8,0.4c0.1,0.4,0.3,1.2,0.6,2.1c-0.1,0-0.4,0.1-0.8,0.2
		c-1,0.1-1.4,0.1-1.5,0.1c-0.3-0.1-0.7,0-0.8,0.2c-0.2,0.3-0.1,0.7,0.2,0.9c0.2,0.1,0.6,0.2,1,0.2c0.3,0,0.8,0,1.2-0.1
		c0.4,0,0.7-0.1,0.9-0.2c0.1,0.4,0.2,0.8,0.2,1.3c0,0-0.1,0.1-0.1,0.1c-0.1,0-0.4,0.1-0.9,0.2c-1,0.1-1.4,0.1-1.5,0
		c-0.3-0.1-0.7,0-0.8,0.2c-0.2,0.3-0.1,0.7,0.2,0.9c0.2,0.1,0.6,0.2,1,0.2c0.3,0,0.8,0,1.2-0.1c0.4-0.1,0.7-0.1,1-0.2
		c0.1,0.5,0.1,1.1,0.1,1.6c0,0-0.1,0.1-0.1,0.1c-0.1,0-0.4,0.1-0.9,0.2c-1,0.1-1.4,0.1-1.5,0c-0.3-0.1-0.7,0-0.8,0.2
		C80.2,91.7,80.3,92.1,80.6,92.3z M50.9,94.6v-5.9c0-1.5,1.3-2.7,2.8-2.7h5c1.6,0,2.8,1.2,2.8,2.7v7.8c0,0.1,0,0.2,0.1,0.3
		c-3.9-0.3-7.6-0.9-11.1-1.7C50.7,95.1,50.9,94.9,50.9,94.6z M58.7,84.8h-1.3l2.2-1.9c1.2-1,1.7-2.2,1.5-3.6c-0.1-0.5-0.2-1-0.5-1.5
		l0,0l0,0c-0.3-0.7-0.8-1.4-1.4-2.1l-0.9-1.1l1.9,0.7l0.5,2.5c0,0,0,0,0,0l0.1,0.1c2.4,2.7,5.8,8.7,4.1,10.3l-1.6,0.1
		c-0.3,0-0.5,0.2-0.6,0.4C62.8,86.5,61,84.8,58.7,84.8z M56,70l0.1-2l-3.1-1.6l-0.3-2.2l-2.5-1.1l-0.2-2.3L47,59.5l-1.1-2.9
		l-2.8-1.7l-0.8-3.2L42,51.6c4.8-2,9.3-2.5,9.9-2.6v1.3c0,8.7,7.4,15.8,16.5,15.8h2c9.1,0,16.5-7.1,16.5-15.8V48
		c1.6,0.2,4.5,0.8,7.8,1.9l-10.1,19l-7.1,11.8c0.7-4.4-0.4-4.7-0.8-4.8c-1.6-0.4-2.8-0.5-3.6,0c-1,0.7-1.2,2.1-1.5,4.7l-0.1,0.6
		c-0.5,3.8-2.7,6.3-3.4,6.9c0,0-0.1,0.1-0.1,0.1l-1.4,0c0.5-1.2,0.2-2.9-0.9-5.2c-1-2.2-2.6-4.5-3.7-5.8l-0.5-2.9l-2.5-0.9l-0.3-2.3
		L56,70z M57.6,73.7l-2.2-2.6l2,0.8L57.6,73.7z M54.7,68.8l0,1.5l-2.2-2.6L54.7,68.8z M51.6,66.6l-2-2.3l1.7,0.8L51.6,66.6z
		 M48.8,63.4l-2.3-2.7l2.1,1L48.8,63.4z M45.6,59.5l-2.8-3.3l2,1.3L45.6,59.5z M40.2,51.1l-0.7-0.2l-0.7-3.2L35.7,47l-0.5-3.2
		L35,43.6c-0.7-0.7-1.6-0.8-2.6-1c-0.5-0.1-1.1-0.1-1.5-0.3c-0.3-0.1-0.5-0.4-0.8-0.6c-0.3-0.3-0.7-0.7-1.3-0.9V18.3
		c0-0.4,0.2-0.7,0.5-1l6.6-4.1c10.2-6.4,22-9.7,34.1-9.7c12.2,0,24,3.4,34.1,9.7l6.6,4.1c0.3,0.2,0.5,0.6,0.5,1v20.3
		c-1.1-0.5-2-0.8-2.6-1.1l0.7-1.2c0.4-0.7,0.1-1.5-0.6-1.9l-3.5-1.7c-0.7-0.3-1.6-0.1-1.9,0.6l-8.2,15.3c-3.6-1.3-6.7-1.9-8.4-2.1
		v-10c1.7-0.3,2.9-1.7,2.9-3.3v-5c0-1.7-1.3-3-2.9-3.3c-0.1-8.6-7.4-15.6-16.5-15.6h-2c-9,0-16.4,7-16.5,15.6
		c-1.7,0.3-2.9,1.7-2.9,3.3v5c0,1.7,1.3,3,2.9,3.3v11.1C50.5,47.9,45.3,48.7,40.2,51.1z M41.7,55l-2.3-2.8l1.7,0.5L41.7,55z
		 M38,50.6l-1.8-2.2l1.4,0.3L38,50.6z M108.3,35.8l-20,34.9L82.1,82l-3.8-0.2l7.4-12.4L104.6,34c0-0.1,0.1-0.1,0.2-0.1l3.5,1.7
		C108.3,35.7,108.3,35.8,108.3,35.8z M86.9,35.4v-9c0.9,0.3,1.6,1.1,1.6,2v5C88.5,34.4,87.8,35.2,86.9,35.4z M83.9,51.5
		c0.7-0.4,1.3-0.8,1.7-1.3v0.2c0,2.3-0.6,4.5-1.6,6.5v-5.4H83.9z M80.1,51.5h-0.3v0c-0.6,0.1-1.2,0.1-1.9,0.1
		c-3.6,0-6.8-1.6-7.4-3.7h0.3h0.5v-0.1c0.7-0.2,1.3-0.6,1.7-1.3c0.2-0.1,0.5-0.1,0.7-0.1c0.8,0.1,1.7,0.5,2.6,1.3
		c1.3,1.1,2.7,1.6,4.3,1.6c0.2,0,0.3,0,0.5,0c1.7-0.1,3.1-0.7,4.2-1.3C84.7,49.8,82.7,51,80.1,51.5z M82.7,52.1v6.8
		c-0.4,0.6-0.9,1.1-1.5,1.7v-8C81.7,52.4,82.2,52.3,82.7,52.1z M79.9,61.7c-0.5,0.4-1,0.7-1.5,1v-9.8c0.5,0,1-0.1,1.5-0.1L79.9,61.7
		L79.9,61.7z M77.1,52.9v10.5c-0.5,0.2-1,0.4-1.5,0.6V52.7C76.1,52.8,76.6,52.9,77.1,52.9z M74.3,52.4v12c-0.5,0.1-1,0.2-1.6,0.3
		V51.8C73.2,52,73.8,52.2,74.3,52.4z M60.9,51.7c-0.7,0-1.3-0.1-1.9-0.2v0h-0.2c-2.4-0.4-4.4-1.6-5.2-3.1c1,0.5,2.2,0.9,3.7,1
		c0.2,0,0.3,0,0.5,0c1.6,0,3-0.5,4.3-1.6c0.9-0.8,1.8-1.2,2.6-1.3c0.3,0,0.7,0,1,0.3l0,0c0.4,0.7,1.2,1.2,2.1,1.2h0.4
		C67.6,50.1,64.5,51.7,60.9,51.7z M66,51.9v12.8c-0.5-0.1-1-0.2-1.5-0.3V52.4C65,52.3,65.5,52.1,66,51.9z M63.2,52.7V64
		c-0.5-0.2-1-0.4-1.5-0.6V52.9C62.3,52.9,62.7,52.8,63.2,52.7z M60.4,52.9v9.8c-0.5-0.3-1-0.6-1.5-1v-8.9
		C59.4,52.9,59.9,52.9,60.4,52.9z M57.7,52.5v8c-0.5-0.5-1-1.1-1.5-1.7v-6.8C56.7,52.3,57.1,52.4,57.7,52.5z M53.3,25
		c0.1-7.9,6.9-14.3,15.2-14.3h2c8.3,0,15,6.4,15.1,14.3H53.3z M82.1,26.3v9.2h-2.5v-9.2H82.1z M78.3,26.3v9.2h-2.5v-9.2H78.3z
		 M74.5,26.3v9.2H72v-9.2H74.5z M70.7,26.3v9.2h-2.5v-9.2H70.7z M66.9,26.3v9.2h-2.5v-9.2H66.9z M63.1,26.3v9.2h-2.5v-9.2H63.1z
		 M59.2,26.3v9.2h-2.5v-9.2H59.2z M55.4,26.3v9.2h-2.2v-9.2H55.4z M65.5,36.8v8.5c-0.3-0.1-0.6-0.1-0.9,0c-1.1,0.1-2.2,0.7-3.3,1.6
		c-1.2,1-2.4,1.4-3.8,1.3c-1.9-0.1-3.3-0.8-4.2-1.5v-10H65.5z M54.9,51.4v5.4c-1-1.9-1.6-4.1-1.6-6.5v-0.2
		C53.7,50.6,54.3,51,54.9,51.4z M67.3,51.1c0.6-0.4,1.1-0.9,1.5-1.4v15.1h-0.3c-0.4,0-0.8,0-1.1-0.1V51.1z M67.9,46.7
		c-0.6,0-1.1-0.5-1.1-1.1v-8.9h5.3v8.9c0,0.6-0.5,1.1-1.1,1.1h-1.1h-0.3h-0.4H67.9z M70.1,49.7c0.4,0.5,0.8,0.9,1.3,1.3v13.8
		c-0.3,0-0.7,0-1,0h-0.4V49.7z M85.6,46.8l-0.1-0.2c-0.9,0.6-2.4,1.4-4.3,1.6c-1.4,0.1-2.6-0.3-3.8-1.3c-1.1-1-2.2-1.5-3.3-1.6
		c-0.2,0-0.4,0-0.6,0v-8.5h12.2L85.6,46.8L85.6,46.8z M83.4,35.5v-9.2h2.2v9.2H83.4z M52,26.4v9c-0.9-0.3-1.6-1.1-1.6-2v-5
		C50.3,27.4,51,26.6,52,26.4z M100.9,51.4L100.9,51.4c0.2-0.2,0.4-0.5,0.6-0.9c0.1-0.1,0.1-0.2,0.2-0.3c1.4,0.7,5.7,3.1,9.6,5.6
		l0.1,9.6C109.5,58.9,105.5,54.2,100.9,51.4z M26.5,18.3c0-1.1,0.6-2.2,1.6-2.8l6.6-4.1C45.2,4.7,57.5,1.3,70.1,1.3
		c12.6,0,24.9,3.5,35.4,10.1l6.6,4.1c1,0.6,1.6,1.7,1.6,2.8v21.3c-0.3-0.1-0.7-0.3-1-0.4V18.3c0-0.8-0.4-1.6-1.1-2l-6.6-4.1
		C94.6,5.7,82.5,2.2,70.1,2.2c-12.4,0-24.5,3.4-34.8,9.9l-6.6,4.1c-0.7,0.4-1.1,1.2-1.1,2V41v0.1c-0.2,0.2-0.4,0.4-0.6,0.6
		c0,0,0,0,0,0c-0.1,0.1-0.2,0.2-0.4,0.3V18.3z M19.8,57.2c-0.1-0.2-0.1-0.5-0.1-0.9c0-0.5,0.1-1-0.1-1.6c-0.1-0.4-0.5-0.6-1.1-0.9
		c-0.3-0.1-0.8-0.4-0.8-0.5c0-0.2,0.1-0.4,0.6-0.7c0.4-0.3,0.8-0.7,0.8-1.2c0-0.4-0.2-0.8-0.5-1.2c-0.1-0.2-0.4-0.6-0.4-0.7
		c0.1-0.4,0.4-0.6,1-0.8c0.4-0.2,0.7-0.4,1-0.6l0.1-0.1l0.6-2.4l2.2-0.4l1-1.9c0.2,0,0.6,0.1,0.9,0.1c0,0,0.1,0,0.1,0
		c0.5,0.1,0.9,0.2,1.3,0.1c0,0,0.1,0,0.1,0c0.5-0.1,0.8-0.5,1.2-0.9c0.2-0.2,0.4-0.4,0.6-0.5c0.2,0.1,0.5,0.3,0.8,0.6
		c0.3,0.3,0.7,0.7,1.2,0.9c0.6,0.2,1.3,0.3,1.9,0.4c0.7,0.1,1.3,0.2,1.6,0.4l0.3,1.8c-2.2-2.1-6.1-3.2-9.1-1.6l-4.5,3.7
		c-2.1,2.2-1.5,6.6,0.5,9.1L19.8,57.2z M21.5,49.2l4.3-3.6c2.5-1.3,6.1-0.1,7.9,1.8l24.6,29.1c1.4,1.5,2.6,3.7,0.5,5.4l-3.4,2.8
		h-1.7c-1.2,0-2.3,0.5-3,1.3c-0.7-0.6-1.4-1.3-1.9-1.7L29.1,63.9l-1-1.1l-0.3-0.3l-3.6-3.7l-1.9-1.9C20.5,54.9,19.8,51,21.5,49.2z
		 M49.7,95c-6.6-1.6-12.6-3.9-17.7-6.9c0-0.1,0-0.2-0.1-0.3c-1.7-2.9-2.8-10.1-2.8-10.1c0-0.2-0.1-0.3-0.3-0.4V67.1l0.6,3.1l3,0.7
		l1.2,2.2l2.6,1.1l0.2,2.5l2.3,0.2l0.2,2.6l2-0.2l0.2,2.9l2.5-0.3l0.6,2.7l2.1,0.1l0.4,2.5l2.9,0.5l0.2-0.9c0.1,0,0.2,0.1,0.2,0.1
		c-0.3,0.5-0.5,1.2-0.5,1.8v5.9C49.6,94.8,49.6,94.9,49.7,95z M30.1,86.9c-0.2-0.2-0.5-0.3-0.7-0.5c-0.1-0.8-0.2-1.7-0.3-2.6
		C29.4,84.9,29.7,86,30.1,86.9z M27.9,85.4c-0.3-0.2-0.7-0.5-1-0.8c-0.2-0.2-0.4-0.3-0.5-0.5c-0.1-1.4-0.1-3.3,0-4.9
		c0-0.7,0.1-1.4,0.1-1.9V67.3l0.7-0.9l0.2-0.2c0,0,0.1,0,0.1,0v0.3v11C27.5,79.1,27.6,82.5,27.9,85.4z M26.9,64.8
		C26.9,64.8,26.9,64.8,26.9,64.8L26.9,64.8l-0.6-1.9l1.1,1.1l0.9,0.9l0.3,0.3l0.2,0.1v0l0.1,0.1l-0.1,0v0l-0.2-0.2L28.3,65L28,64.8
		l-0.1,0C27.4,64.9,27.1,64.9,26.9,64.8z M30.1,66.8l2.9,3l-2.4-0.5L30.1,66.8z M33.7,70.5l2.1,2.2l-1.2-0.5L33.7,70.5z M37.6,74.5
		l1.1,1.2l-1-0.1L37.6,74.5z M40,77l1,1.1l-0.9,0.1L40,77z M42.2,79.3l1.4,1.4l-1.3,0.1L42.2,79.3z M45,82.1l1.3,1.4l-1.1,0L45,82.1
		z M47.7,84.9l0.2,0.2c0.4,0.5,0.9,0.9,1.4,1.3l-1.4-0.2L47.7,84.9z M25.2,61.7l-2-0.7l0,0l-0.3-1.6l0-0.1l0,0l0.9,0.9L25.2,61.7z
		 M5.8,90.9c-0.3,0.4-0.7,0.5-0.8,0.5l-3.6-2.7c-0.1-0.1-0.1-0.4,0.3-0.9l20.8-25.8L25,63l0.3,0.9l0.6,2.1l-0.7,0.9L5.8,90.9z
		 M25.1,83.1c-2.3-2-4.3-4.3-5.9-6.7l6-7.5v8.5c0,0.5,0,1.1,0,1.9C25.1,80.4,25,81.8,25.1,83.1z M98.4,122.3
		c-0.1,0.1-0.3,0.2-0.4,0.2l-26.2,13.8c-1,0.5-2.4,0.5-3.4,0l-26.2-13.8c-0.1-0.1-0.3-0.2-0.4-0.2c-1.6-1.1-3.6-3.4-5.2-5.9
		c0.2,0,0.4,0,0.5,0c0.2,0.1,0.4,0.4,0.5,0.7c0.3,0.5,0.6,1.1,1.2,1.3c0.1,0.1,0.3,0.1,0.4,0.1c1,1.3,2,2.3,3.1,3
		c0.1,0.1,0.2,0.1,0.3,0.2l26.2,13.8c0.4,0.2,0.8,0.3,1.2,0.3c0.4,0,0.8-0.1,1.2-0.3l26.2-13.8c0.1,0,0.2-0.1,0.3-0.2
		c1.1-0.8,1.8-1.5,2.8-2.6c0.5-0.2,0.8-0.7,1.1-1.1c0.2-0.3,0.4-0.6,0.5-0.6c0.2-0.1,0.5,0,0.9,0C101.5,119.4,100,121.2,98.4,122.3z
		 M40.9,118.3C40.9,118.3,40.9,118.3,40.9,118.3c0.5-0.1,1-0.2,1.3-0.1c0.2,0.1,0.4,0.4,0.5,0.6c0.3,0.4,0.6,1,1.3,1.2
		c0.6,0.2,1.3,0,2-0.1c0.5-0.1,1-0.2,1.3-0.2c0.1,0,0.3,0.4,0.5,0.6c0.3,0.5,0.6,1.1,1.3,1.2c0.6,0.2,1.2-0.1,1.8-0.4
		c0.4-0.2,0.9-0.5,1.1-0.4c0.2,0,0.5,0.5,0.8,0.9c0.4,0.6,0.9,1.3,1.6,1.5c0.6,0.2,1.3-0.2,1.9-0.5c0.3-0.1,0.8-0.4,1-0.4
		c0.1,0,0.4,0.4,0.5,0.6c0.3,0.5,0.7,1.2,1.5,1.3c0.6,0.1,1.2-0.3,1.9-0.7c0.3-0.2,0.9-0.5,1.1-0.5c0,0,0,0,0,0
		c0.1,0,0.3,0.2,0.4,0.4c0.3,0.4,0.7,0.9,1.4,0.9c0.5,0,1.1-0.3,1.7-0.6c0.3-0.2,0.8-0.4,0.9-0.4c0.2,0,0.6,0.2,0.9,0.5
		c0.5,0.3,1,0.7,1.7,0.7h0c0.6,0,1.2-0.4,1.8-0.7c0.4-0.2,0.8-0.5,1.1-0.5c0.2,0,0.6,0.3,0.9,0.5c0.5,0.3,1.1,0.7,1.7,0.7
		c0,0,0.1,0,0.1,0c0.7,0,1.2-0.5,1.7-0.9c0.3-0.3,0.7-0.6,1-0.6c0.2,0,0.6,0.2,0.9,0.4c0.5,0.3,1.1,0.6,1.8,0.5
		c0.7-0.1,1.2-0.5,1.7-0.9c0.4-0.3,0.8-0.6,1.1-0.7c0.2,0,0.5,0.2,0.8,0.3c0.5,0.3,1.1,0.6,1.7,0.4c0.6-0.1,1.1-0.6,1.6-1
		c0.3-0.3,0.7-0.7,1-0.7c0.1,0,0.5,0.2,0.8,0.3c0.5,0.3,1.1,0.6,1.8,0.5c0.7-0.2,1-0.8,1.3-1.3c0.1-0.3,0.4-0.7,0.5-0.8
		c0.2-0.1,0.7,0.2,1.1,0.3c0.6,0.2,1.2,0.5,1.8,0.3c0.7-0.2,1-0.8,1.3-1.2c0.1-0.2,0.3-0.6,0.5-0.6c0.3-0.1,0.8,0,1.3,0.1
		c0.1,0,0.3,0.1,0.4,0.1c-0.6,0.6-1.1,1.1-1.8,1.6c0,0-0.1,0.1-0.1,0.1l-26.2,13.8c-0.3,0.2-0.8,0.2-1.1,0l-26.2-13.8
		c0,0-0.1-0.1-0.1-0.1C42.4,119.9,41.7,119.2,40.9,118.3z M130.4,98.7c-0.1,0.4-0.3,1.1-0.5,1.3c-0.1,0.1-0.6,0.1-0.9,0.1
		c-0.7,0-1.5,0-2.1,0.5c-0.5,0.5-0.5,1.3-0.5,2c0,0.4,0,1-0.2,1.1c-0.1,0.1-0.7,0.1-1,0.1c-0.7,0-1.4,0-1.9,0.4
		c-0.6,0.5-0.5,1.2-0.5,1.8c0,0.2,0,0.7,0,0.8c-0.2,0.1-0.8,0.1-1.2,0.1c-0.8,0-1.6,0-2,0.3c-0.5,0.4-0.6,1-0.6,1.4
		c0,0.2,0,0.5-0.1,0.5c-0.1,0.1-0.7,0.1-1,0.1c-0.7,0-1.3,0-1.7,0.3c-0.5,0.3-0.8,0.9-1,1.4c-0.1,0.4-0.3,0.7-0.5,0.8
		c-0.2,0.1-0.8,0.1-1.2,0.1c-0.7,0-1.4-0.1-1.9,0.2c-0.6,0.3-0.9,0.9-1.1,1.4c-0.1,0.3-0.3,0.8-0.5,0.9c-0.2,0.1-0.7,0-1.2-0.1
		c-0.7-0.1-1.4-0.3-2,0c-0.6,0.2-0.9,0.8-1.2,1.3c-0.2,0.3-0.4,0.7-0.6,0.7c-0.3,0.1-0.8,0-1.3-0.1c-0.7-0.1-1.4-0.2-2,0
		c-0.6,0.2-0.9,0.7-1.2,1.2c-0.1,0.2-0.3,0.5-0.4,0.6l-0.2-0.1c-0.1,0.1-0.1,0.1-0.2,0.2c-0.3,0-0.7-0.1-1-0.2
		c-0.7-0.1-1.3-0.3-2-0.1c-0.6,0.2-0.9,0.7-1.2,1.2c-0.1,0.2-0.4,0.6-0.5,0.6c-0.2,0-0.6-0.2-0.9-0.3c-0.6-0.3-1.4-0.5-2-0.3
		c-0.7,0.2-1,0.8-1.3,1.4c-0.1,0.2-0.3,0.6-0.4,0.7c-0.1,0-0.5-0.2-0.8-0.3c-0.5-0.3-1.1-0.6-1.7-0.5c-0.6,0.1-1.1,0.6-1.6,1
		c-0.3,0.3-0.7,0.6-1,0.7c-0.2,0-0.6-0.2-0.9-0.3c-0.5-0.3-1.1-0.5-1.7-0.4c-0.7,0.1-1.2,0.6-1.7,1c-0.4,0.3-0.8,0.6-1,0.7
		c-0.2,0-0.6-0.2-0.9-0.4c-0.5-0.3-1.1-0.6-1.7-0.5c-0.7,0.1-1.2,0.5-1.7,1c-0.3,0.3-0.7,0.6-0.9,0.6c-0.2,0-0.6-0.3-1-0.5
		c-0.5-0.4-1.1-0.8-1.7-0.7c-0.6,0-1.2,0.4-1.8,0.7c-0.4,0.2-0.8,0.5-1.1,0.5c-0.3,0-0.6-0.3-0.9-0.5c-0.5-0.3-1-0.7-1.6-0.7
		c-0.5,0-1.1,0.3-1.6,0.6c-0.3,0.2-0.8,0.4-0.9,0.4c-0.1,0-0.3-0.2-0.4-0.4c-0.3-0.4-0.6-0.8-1.3-0.9c-0.6-0.1-1.2,0.3-1.9,0.7
		c-0.3,0.2-0.9,0.5-1.1,0.5c-0.1,0-0.4-0.4-0.5-0.7c-0.3-0.5-0.6-1.1-1.4-1.3c-0.6-0.1-1.3,0.2-1.9,0.5c-0.3,0.2-0.8,0.4-1,0.4
		c-0.2-0.1-0.6-0.6-0.8-0.9c-0.4-0.6-0.8-1.3-1.6-1.4c-0.7-0.2-1.4,0.2-2,0.5c-0.3,0.1-0.7,0.3-0.8,0.3c-0.1,0-0.4-0.4-0.5-0.6
		c-0.3-0.5-0.6-1-1.2-1.2c-0.6-0.2-1.3,0-2,0.1c-0.5,0.1-1,0.2-1.2,0.2c-0.2-0.1-0.4-0.4-0.6-0.7c-0.3-0.4-0.6-1-1.2-1.2
		c-0.6-0.2-1.3-0.1-2,0.1c-0.2,0-0.4,0.1-0.7,0.1c-0.9-0.2-1.5-1.2-1.5-1.2c-0.2-0.3-0.5-0.6-0.9-0.8c-0.6-0.2-1.3-0.1-2,0.1
		c-0.4,0.1-1,0.2-1.2,0.1c-0.2-0.1-0.4-0.5-0.5-0.8c-0.2-0.5-0.5-1.2-1.1-1.4c-0.6-0.3-1.3-0.2-1.9-0.2c-0.4,0-1,0.1-1.2,0
		c-0.2-0.1-0.4-0.5-0.5-0.8c-0.2-0.5-0.5-1.1-1-1.4c-0.4-0.3-1.1-0.2-1.7-0.2c-0.3,0-0.9,0-1,0c-0.1,0-0.1-0.3-0.1-0.5
		c0-0.4-0.1-1-0.6-1.4c-0.5-0.3-1.2-0.3-2-0.3c-0.4,0-1,0-1.2,0c-0.1-0.1-0.1-0.5-0.1-0.8c0-0.6,0.1-1.3-0.5-1.7
		c-0.5-0.4-1.2-0.4-1.9-0.4c-0.3,0-0.9,0-1-0.1c-0.2-0.2-0.2-0.6-0.2-1.1c0-0.6-0.1-1.3-0.5-1.8c-0.4-0.4-1.1-0.5-1.8-0.6
		c-0.3,0-0.8-0.1-0.9-0.1c-0.1-0.1,0-0.6,0-0.9c0.1-0.6,0.2-1.3-0.2-1.7c-0.4-0.5-1.1-0.6-1.7-0.6c-0.2,0-0.5,0-0.6-0.1
		c0-0.2,0.1-0.7,0.1-1c0.2-0.8,0.3-1.4-0.1-1.8c-0.2-0.2-0.4-0.3-0.7-0.3c-0.6,0-1,0-1.2-0.2c-0.3-0.3-0.3-1-0.3-1.6
		c0-0.5,0-0.9-0.2-1.3c-0.4-0.8-0.7-1.5-0.9-2.3c0-0.1-0.1-0.2-0.3-0.3l9.8-12.2c2,2.9,4.6,5.6,7.6,8c0.5,0.4,1,0.8,1.4,1.1
		c0.1,0,0.1,0.1,0.2,0.2c0.1,0.1,0.2,0.2,0.4,0.3c0.1,0.1,0.2,0.2,0.3,0.2l0.1,0c10.3,7.2,25,11.3,41.3,11.3c0.4,0,0.9,0,1.3,0
		c18.2-0.2,30.8-2.2,40-6.7l0.1,0c0,0,0.1-0.1,0.1-0.1c0.5-0.2,1-0.5,1.5-0.7c0.2,0,0.3-0.1,0.6-0.1l0.6-0.5c0,0,0,0,0,0
		c3.4-2,6.3-4.4,8.9-7.3l8.4,14.6C130.7,97.9,130.6,98.3,130.4,98.7z M137.6,96.9l-4,2.1c-0.1,0-0.4-0.1-0.7-0.6l-0.6-1
		c0-0.2,0-0.4-0.2-0.5c0,0-0.1-0.1-0.1-0.1l-6.2-10.8l-2.6-4.5c0-0.1-0.1-0.2-0.1-0.2l-7.6-13.1c-0.3-0.5-0.2-0.8-0.1-0.9l4-2.1
		c0.1,0,0.4,0.1,0.7,0.6L137.5,96C137.8,96.5,137.7,96.9,137.6,96.9z"/>
	<path class="st0" d="M25.8,99c0-0.5-0.2-1-0.5-1.5c0.6,0.1,1.1,0.1,1.5,0c0.5-0.1,0.8-0.4,1.1-0.8c0.6-0.7,0.7-1.5,0.5-2.3
		c-0.2-0.8-0.9-1.5-1.8-2.2c-0.6-0.4-1.2-0.7-1.8-0.8c-0.6-0.1-1.2-0.1-1.7,0c-0.5,0.2-1,0.5-1.3,0.9l1.7,1.2
		c0.2-0.3,0.5-0.4,0.9-0.4c0.4,0,0.8,0.1,1.1,0.4c0.4,0.3,0.7,0.6,0.8,1s0.1,0.7-0.2,1c-0.6,0.7-1.3,0.8-2.1,0.2L23,95l-1,1.3l1,0.7
		c0.5,0.3,0.7,0.7,0.8,1s0,0.7-0.4,1.2c-0.2,0.3-0.6,0.5-1,0.5c-0.4,0-0.9-0.2-1.3-0.5c-0.4-0.3-0.7-0.6-0.8-1
		c-0.1-0.4-0.1-0.7,0.2-1l-1.8-1.3c-0.4,0.5-0.6,1-0.6,1.5c0,0.5,0.1,1.1,0.5,1.6c0.3,0.6,0.8,1.1,1.4,1.5c1,0.7,1.9,1.1,2.9,1.1
		c0.9,0,1.7-0.4,2.3-1.1C25.6,100,25.8,99.5,25.8,99z"/>
	<path class="st0" d="M24.9,103.7l2.1,1l1.7-1.5l3.4,1.7l-0.4,2.2l2.1,1l1.4-10.7l-1.8-0.9L24.9,103.7z M32.3,103.2L30,102l3-2.8
		L32.3,103.2z"/>
	<path class="st0" d="M45.3,104.4c0.3-0.9,0.3-1.6-0.2-2.3c-0.5-0.7-1.3-1.2-2.5-1.6l-3.5-1.2l-3.6,9.5l3.9,1.3
		c1.1,0.4,2.1,0.4,2.9,0.2c0.8-0.3,1.4-0.8,1.7-1.8c0.2-0.5,0.2-1,0.1-1.5c-0.2-0.5-0.5-0.9-0.9-1.2c0.5,0,1-0.1,1.3-0.4
		C44.8,105.2,45.1,104.9,45.3,104.4z M41.9,107.9c-0.1,0.4-0.4,0.6-0.8,0.8c-0.4,0.1-0.8,0.1-1.3-0.1l-1.8-0.6l1-2.6L41,106
		C41.9,106.4,42.2,107,41.9,107.9z M43.2,103.9c-0.3,0.8-1,1-2,0.6l-1.5-0.5l0.9-2.4l1.4,0.5c0.6,0.2,0.9,0.4,1.1,0.7
		C43.3,103.1,43.3,103.5,43.2,103.9z"/>
	<path class="st0" d="M50.6,102.9l-6.3,9l2.3,0.5l1.2-1.9l3.7,0.8l0.2,2.2L54,114l-1.4-10.7L50.6,102.9z M48.8,109l2.2-3.4l0.4,4
		L48.8,109z"/>
	<path class="st0" d="M57.8,109c-0.2,1.4-0.5,2.3-0.8,2.8c-0.3,0.5-0.7,0.8-1.3,0.8l-0.4,0l-0.2,1.7l0.6,0.1c0.8,0.1,1.5,0,2-0.2
		c0.5-0.3,0.9-0.7,1.3-1.4c0.3-0.7,0.6-1.6,0.9-2.8l0.7-3.5l2.8,0.3l-1.1,8.4l2.2,0.3l1.4-10l-7-0.9L57.8,109z"/>
	<polygon class="st0" points="69.1,112.2 69.2,105.5 67,105.5 66.9,115.6 69,115.6 73.4,109 73.3,115.7 75.5,115.7 75.6,105.6 
		73.4,105.6 	"/>
	<polygon class="st0" points="85.2,104.6 83.5,112.2 79.8,105.3 77,105.6 78.3,115.7 80.5,115.4 80.1,112.6 79.3,107.9 83.1,115.1 
		84.6,114.9 86.4,107 86.8,111.8 87.2,114.5 89.4,114.3 88,104.2 	"/>
	<path class="st0" d="M101.6,106.3c-0.4-0.3-0.9-0.4-1.5-0.4c0.4-0.3,0.7-0.7,0.8-1.1c0.1-0.4,0.1-0.9,0-1.4
		c-0.3-0.9-0.8-1.4-1.6-1.7c-0.8-0.3-1.8-0.2-3,0.2l-3.5,1.1l3.2,9.6l3.9-1.2c1.1-0.4,1.9-0.9,2.4-1.5c0.5-0.7,0.5-1.5,0.2-2.4
		C102.4,107,102.1,106.6,101.6,106.3z M95.4,104l1.5-0.4c0.6-0.2,1-0.2,1.4-0.1c0.3,0.1,0.6,0.4,0.7,0.8c0.3,0.8-0.1,1.3-1.2,1.7
		l-1.5,0.5L95.4,104z M100.4,109.2c-0.2,0.3-0.5,0.5-1,0.7l-1.8,0.5l-0.9-2.6l1.9-0.6c1-0.3,1.6,0,1.9,0.9
		C100.6,108.6,100.6,108.9,100.4,109.2z"/>
	<path class="st0" d="M109.9,104.1c0.2,0.6,0.2,1.1,0.1,1.5c-0.2,0.4-0.6,0.7-1.2,1c-0.7,0.3-1.3,0.3-1.8,0c-0.5-0.3-1-1-1.5-2
		l-0.3-0.7c-0.4-1-0.6-1.7-0.5-2.3c0.1-0.6,0.5-1,1.2-1.3c0.6-0.3,1.1-0.3,1.6-0.2c0.4,0.1,0.8,0.5,1.1,1.1l2-0.9
		c-0.6-1-1.4-1.6-2.3-1.9c-0.9-0.3-2-0.2-3.1,0.3c-0.8,0.3-1.4,0.8-1.9,1.5c-0.4,0.6-0.7,1.3-0.7,2.2c0,0.8,0.2,1.7,0.6,2.6l0.3,0.6
		c0.7,1.4,1.5,2.3,2.6,2.8c1.1,0.5,2.2,0.5,3.5-0.1c1.1-0.5,1.9-1.2,2.3-2c0.4-0.9,0.4-1.8,0-2.8L109.9,104.1z"/>
	<path class="st0" d="M110.3,95.2c0.3,0,0.5,0,0.7-0.1c0.3-0.1,0.4-0.3,0.5-0.6s0-0.5-0.1-0.7c-0.1-0.2-0.3-0.3-0.6-0.4
		c-0.3-0.1-0.5,0-0.8,0.1c-0.3,0.1-0.4,0.3-0.5,0.6c-0.1,0.2,0,0.5,0.1,0.7C109.9,95,110.1,95.2,110.3,95.2z"/>
	<path class="st0" d="M113.4,93.5c0.3,0.1,0.5,0,0.8-0.1c0.3-0.1,0.4-0.3,0.5-0.6c0.1-0.2,0-0.5-0.1-0.7c-0.1-0.2-0.3-0.3-0.6-0.4
		c-0.3,0-0.5,0-0.8,0.1c-0.2,0.1-0.4,0.3-0.5,0.6c-0.1,0.2,0,0.5,0.1,0.7C112.9,93.3,113.1,93.4,113.4,93.5z"/>
	<polygon class="st0" points="116.2,102.8 114.7,100.4 118.3,98.4 117.5,97 113.9,99 112.6,97 116.8,94.6 115.9,93.1 109.8,96.6 
		115.2,105.3 121.3,101.8 120.4,100.4 	"/>
</g>
</svg>
