<svg version="1.1" id="Layer_1" xmlns="http://www.w3.org/2000/svg" xmlns:xlink="http://www.w3.org/1999/xlink" x="0px" y="0px"
	 viewBox="0 0 87 76" style="enable-background:new 0 0 87 76;" xml:space="preserve">
<style type="text/css">
	.st0{fill:#8A6153;}
	.st1{fill:#8A6153;stroke:#8A6153;stroke-width:0.5;stroke-linecap:round;stroke-linejoin:round;stroke-miterlimit:10;}
</style>
<g>
	<g>
		<path class="st0" d="M43.3,75.3c-0.5,0-0.8-0.3-1.2-0.5c-0.1-0.1-0.2-0.2-0.3-0.2c0,0-0.1,0-0.1,0c0,0-0.1,0-0.1,0
			c-0.1,0.1-0.3,0.2-0.4,0.2c-0.3,0.2-0.7,0.4-1.1,0.4c-0.6,0-0.8-0.4-1-0.7c-0.1-0.1-0.2-0.1-0.2-0.1c0,0-0.1,0-0.1,0
			c-0.1,0-0.2,0.1-0.4,0.2c-0.4,0.2-0.8,0.5-1.2,0.5c0,0-0.1,0-0.1,0c-0.6-0.1-0.8-0.6-1-0.9L36,74c0-0.1-0.1-0.1-0.2-0.1
			c0,0-0.1,0-0.1,0c-0.1,0-0.2,0.1-0.3,0.1c-0.3,0.2-0.7,0.4-1,0.4c-0.1,0-0.2,0-0.2,0c-0.5-0.1-0.8-0.6-1.1-1
			c-0.1-0.1-0.2-0.3-0.3-0.4c0-0.1-0.1-0.1-0.2-0.1c0,0-0.1,0-0.1,0l-0.4,0.2c-0.3,0.2-0.6,0.3-1,0.3c-0.1,0-0.2,0-0.2,0
			c-0.5-0.1-0.7-0.6-0.9-0.9c0,0-0.1-0.1-0.1-0.2c0-0.1-0.1-0.1-0.2-0.1c0,0,0,0,0,0c-0.1,0-0.4,0.1-0.5,0.1
			c-0.3,0.1-0.6,0.1-0.9,0.1c-0.2,0-0.3,0-0.4-0.1c-0.5-0.1-0.7-0.6-0.9-0.8c-0.1-0.2-0.2-0.3-0.2-0.3c0,0-0.1-0.1-0.2-0.1
			c0,0,0,0,0,0c0,0-0.1,0-0.1,0c-0.1,0-0.3,0.1-0.5,0.1c-0.2,0-0.5,0.1-0.8,0.1c-0.2,0-0.4,0-0.5-0.1c-0.4-0.2-0.7-0.6-0.9-0.9
			c0-0.1-0.1-0.2-0.2-0.3c0-0.1-0.1-0.1-0.2-0.1c0,0,0,0,0,0c-0.1,0-0.4,0.1-0.5,0.1c-0.3,0.1-0.6,0.1-0.8,0.1c-0.2,0-0.4,0-0.5-0.1
			c-0.5-0.2-0.7-0.7-0.8-1c0-0.1-0.1-0.2-0.2-0.3c0-0.1-0.1-0.1-0.2-0.1c0,0-0.1,0-0.1,0c-0.1,0-0.3,0-0.4,0c-0.2,0-0.3,0-0.5,0
			c-0.3,0-0.6-0.1-0.8-0.2c-0.4-0.2-0.6-0.7-0.8-1c0-0.1-0.1-0.2-0.1-0.3c0-0.1-0.1-0.1-0.2-0.1l-0.4,0l-0.3,0c-0.3,0-0.6,0-0.9-0.2
			c-0.4-0.3-0.5-0.6-0.5-1c0-0.1-0.1-0.2-0.2-0.2c0,0-0.4,0-0.4,0c-0.1,0-0.3,0-0.4,0c-0.3,0-0.7,0-1-0.2c-0.5-0.4-0.4-0.9-0.4-1.3
			c0-0.1,0-0.2-0.1-0.2s-0.1-0.1-0.2-0.1l-0.3,0c-0.5,0-1,0-1.3-0.3c-0.4-0.4-0.4-0.9-0.4-1.4c0-0.1,0-0.2,0-0.4
			c0-0.1-0.1-0.2-0.2-0.2c-0.1,0-0.2,0-0.3,0c-0.5,0-1-0.1-1.3-0.4c-0.3-0.4-0.3-0.9-0.2-1.3c0-0.1,0-0.2,0-0.2s-0.1-0.1-0.2-0.1
			c-0.4,0-0.9-0.1-1.2-0.5C6.9,58.5,7,58,7.1,57.5c0-0.1-0.1-0.3-0.2-0.3c-0.3-0.1-0.5-0.2-0.7-0.4c-0.5-0.5-0.5-1.2-0.5-1.7
			c0-0.2,0-0.3,0-0.4c-0.1-0.2-0.2-0.4-0.3-0.6C5.3,54,5.3,54,5.2,54c0,0,0,0,0,0C5.1,54,5,54,5,54.1c-0.2,0.3-0.5,0.5-0.8,0.6
			c-0.1,0.1-0.3,0.1-0.4,0.1c-0.2,0-0.5-0.1-0.6-0.2l-2.2-1.7c-0.3-0.2-0.4-0.6-0.4-1c0-0.3,0.2-0.7,0.4-0.9l13-16.9
			c0-0.1,0.1-0.1,0-0.2L13.7,33c0-0.1-0.1-0.2-0.2-0.2l-1.2-0.2l-0.1-0.2c-0.4-0.5-0.4-1-0.3-1.4c0-0.2,0-0.3,0-0.4
			c0-0.1-0.1-0.2-0.1-0.2l-0.1-0.1c-0.4-0.2-0.9-0.5-1-1c-0.2-0.6,0.2-1.1,0.6-1.4c0.1-0.1,0.1-0.2,0.1-0.3
			c-0.2-0.3-0.4-0.7-0.3-1.1c0.1-0.7,0.7-1,1.1-1.2l0.2-0.1c0.1,0,0.1-0.1,0.1-0.2l0.4-1.8l1.4-0.2c0.1,0,0.1-0.1,0.2-0.1l0.5-1
			l0.1-0.1c0.2-0.1,0.3-0.1,0.6-0.1c0.3,0,0.5,0.1,0.8,0.1l0.3,0.1c0,0,0,0,0,0c0.1,0,0.2,0,0.2-0.1l0.1-0.1c0.3-0.4,0.6-0.7,1-0.7
			c0.6,0,1,0.4,1.3,0.7c0.2,0.2,0.3,0.3,0.5,0.4c0.3,0.1,0.6,0.1,0.9,0.2c0.6,0.1,1.2,0.2,1.7,0.7l0.1,0.1l0.3,1.9
			c0,0.1,0.1,0.2,0.2,0.2l1.7,0.4l0.4,1.9c0,0.1,0.1,0.2,0.2,0.2c0,0,0.1,0,0.1,0c0,0,0.1,0,0.1,0c2.9-1.4,5.7-1.9,6.8-2
			c0.1,0,0.2-0.1,0.2-0.2v-6.5c0-0.1-0.1-0.2-0.2-0.2c-1-0.3-1.6-1.2-1.6-2.2v-3.2c0-1,0.7-1.9,1.6-2.2c0.1,0,0.2-0.1,0.2-0.2
			c0.2-5.6,4.8-9.9,10.3-9.9h1.2c5.6,0,10.1,4.4,10.3,9.9c0,0.1,0.1,0.2,0.2,0.2c1,0.3,1.6,1.2,1.6,2.2v3.2c0,1-0.7,1.9-1.6,2.2
			c-0.1,0-0.2,0.1-0.2,0.2v5.7c0,0.1,0.1,0.2,0.2,0.2c1,0.2,2.7,0.5,4.5,1.2c0,0,0.1,0,0.1,0c0.1,0,0.2-0.1,0.2-0.1l4.9-9.5
			c0.1-0.3,0.3-0.4,0.6-0.5c0.1,0,0.2-0.1,0.3-0.1c0.2,0,0.3,0,0.5,0.1l2.1,1.1c0.3,0.1,0.4,0.3,0.5,0.6c0.1,0.3,0.1,0.6-0.1,0.8
			l-0.2,0.3c0,0.1,0,0.1,0,0.2c0,0.1,0.1,0.1,0.1,0.1c1.5,0.6,5.2,2.2,7.2,3.2c2.5,1.2,9.1,3.4,9.1,3.4c0.9,0.1,1.4,0.4,1.6,0.8
			c0.3,0.7-0.1,1.3-0.4,1.9c-0.1,0.2-0.1,0.2-0.2,0.3l-4.5,8.8c-0.3,0.5-0.6,1.2-1.3,1.4c-0.1,0-0.2,0-0.3,0c-0.4,0-0.9-0.2-1.4-0.6
			c-0.5-0.4-1.4-1.2-2.4-2.1c0,0-0.1-0.1-0.2-0.1c-0.1,0-0.1,0-0.2,0.1c-0.1,0.1-0.1,0.2,0,0.3c0.1,0.1,0.1,0.2,0.2,0.3l10.8,19.5
			c0.4,0.8,0.3,1.6-0.3,1.9l-2.5,1.4c-0.1,0.1-0.3,0.1-0.5,0.1l0,0c-0.1,0-0.2,0-0.3,0c-0.2-0.1-0.4-0.1-0.5-0.3
			c0,0-0.1-0.1-0.2-0.1c0,0,0,0-0.1,0c-0.1,0-0.1,0.1-0.2,0.1c-0.1,0.2-0.2,0.4-0.3,0.5c-0.3,0.3-0.8,0.3-1.2,0.3
			c-0.1,0-0.3,0-0.4,0c-0.1,0-0.2,0.1-0.2,0.2c0,0.1,0,0.3,0,0.3c0,0.5,0,1.1-0.4,1.5c-0.3,0.3-0.8,0.3-1.3,0.4c-0.1,0-0.2,0-0.3,0
			c-0.1,0-0.2,0.1-0.2,0.3c0,0.5,0.1,1.1-0.4,1.4c-0.3,0.2-0.6,0.2-1.1,0.2l-0.6,0l-0.1,0c-0.1,0-0.2,0.1-0.2,0.2
			c0,0.4-0.1,0.8-0.5,1c-0.3,0.2-0.6,0.2-1,0.2c0,0-0.1,0-0.2,0c-0.1,0-0.3,0-0.4,0c-0.1,0-0.2,0.1-0.2,0.1c0,0.1-0.1,0.2-0.1,0.3
			c-0.1,0.4-0.3,0.8-0.7,1c-0.2,0.1-0.5,0.2-0.8,0.2c-0.2,0-0.3,0-0.4,0c-0.1,0-0.3,0-0.4,0c-0.1,0-0.1,0-0.2,0
			c-0.1,0-0.2,0.1-0.2,0.1c-0.1,0.1-0.1,0.3-0.2,0.3c-0.2,0.4-0.4,0.8-0.8,1.1c-0.2,0.1-0.4,0.1-0.6,0.1c-0.3,0-0.5-0.1-0.8-0.1
			c-0.1,0-0.4-0.1-0.5-0.1c0,0,0,0,0,0c-0.1,0-0.2,0-0.2,0.1c0,0.1-0.1,0.2-0.2,0.3c-0.2,0.3-0.4,0.8-0.8,0.9
			c-0.2,0.1-0.4,0.1-0.6,0.1c-0.3,0-0.5-0.1-0.8-0.1c-0.2,0-0.4-0.1-0.6-0.1c0,0-0.1,0-0.1,0c-0.1,0-0.2,0.1-0.2,0.2
			c0,0,0,0.1-0.1,0.1c-0.2,0.3-0.4,0.7-0.9,0.9c-0.1,0-0.3,0.1-0.5,0.1c-0.3,0-0.6-0.1-0.9-0.1c-0.1,0-0.4-0.1-0.5-0.1c0,0,0,0,0,0
			c-0.1,0-0.2,0-0.2,0.1c0,0.1-0.1,0.2-0.1,0.2c-0.2,0.3-0.4,0.8-0.9,0.9c-0.1,0-0.2,0-0.3,0c-0.3,0-0.6-0.1-0.9-0.3
			c-0.1,0-0.2-0.1-0.4-0.1c0,0-0.1,0-0.1,0c-0.1,0-0.2,0-0.2,0.1c-0.1,0.1-0.1,0.2-0.1,0.2c-0.2,0.4-0.4,0.8-0.9,0.9
			c-0.1,0-0.2,0-0.3,0c-0.4,0-0.7-0.2-1-0.3c-0.1,0-0.2-0.1-0.3-0.1c0,0-0.1,0-0.1,0c0,0-0.1,0-0.1,0c-0.1,0.1-0.3,0.2-0.4,0.3
			c-0.3,0.3-0.7,0.6-1.1,0.7c-0.1,0-0.2,0-0.2,0c-0.4,0-0.7-0.2-1-0.3c-0.2-0.1-0.3-0.2-0.4-0.2c0,0,0,0-0.1,0c-0.1,0-0.1,0-0.2,0.1
			c0,0-0.2,0.2-0.3,0.3c-0.4,0.3-0.7,0.6-1.2,0.7c0,0-0.1,0-0.1,0c-0.4,0-0.8-0.2-1.1-0.4c-0.1-0.1-0.2-0.1-0.3-0.2c0,0-0.1,0-0.1,0
			c0,0-0.1,0-0.1,0c-0.1,0.1-0.3,0.2-0.4,0.3c-0.3,0.3-0.7,0.6-1.2,0.7c-0.5,0-0.9-0.3-1.2-0.5c-0.2-0.2-0.4-0.3-0.4-0.3
			c0,0-0.1,0-0.1,0c-0.1,0-0.1,0-0.2,0.1c0,0,0,0,0,0c-0.1,0.1-0.2,0.1-0.3,0.2C44.1,75,43.7,75.3,43.3,75.3z M41.7,73.3
			c0.4,0,0.8,0.3,1.1,0.5c0.2,0.2,0.4,0.3,0.4,0.3c0,0,0,0,0.1,0c0.1,0,0.1,0,0.2-0.1c0,0,0.2-0.2,0.3-0.2c0.4-0.2,0.7-0.5,1.2-0.5
			c0,0,0,0,0,0c0.5,0,0.8,0.3,1.1,0.5c0.2,0.1,0.3,0.2,0.4,0.3c0,0,0.1,0,0.1,0c0.1,0,0.1,0,0.1,0c0.1-0.1,0.3-0.2,0.3-0.3
			c0.3-0.3,0.7-0.6,1.2-0.7c0,0,0,0,0,0c0.5,0,0.8,0.2,1.1,0.4c0.2,0.1,0.4,0.2,0.4,0.2c0,0,0,0,0.1,0c0.1,0,0.1,0,0.2-0.1
			c0,0,0,0,0-0.1c0.1-0.1,0.2-0.2,0.3-0.3c0.3-0.3,0.7-0.6,1.2-0.7c0.1,0,0.1,0,0.2,0c0.4,0,0.7,0.2,0.9,0.3
			c0.2,0.1,0.3,0.2,0.4,0.2c0,0,0,0,0,0c0.1,0,0.1,0,0.2-0.1c0,0,0,0,0-0.1c0.1-0.1,0.2-0.2,0.2-0.2c0.3-0.3,0.7-0.6,1.1-0.7
			c0.1,0,0.1,0,0.2,0c0.4,0,0.7,0.2,0.9,0.3l0.1,0.1c0,0,0.1,0,0.1,0c0,0,0,0,0.1,0c0.1,0,0.1-0.1,0.2-0.1c0.2-0.5,0.5-0.9,0.9-1.1
			c0.1,0,0.2-0.1,0.4-0.1c0.4,0,0.7,0.1,1,0.3c0.1,0,0.2,0.1,0.3,0.1c0,0,0.1,0,0.1,0c0.1,0,0.2,0,0.2-0.1l0.1-0.2
			c0.2-0.3,0.4-0.7,0.9-0.9c0.1,0,0.3-0.1,0.4-0.1c0.3,0,0.6,0.1,0.9,0.1c0.2,0,0.4,0.1,0.5,0.1c0,0,0,0,0,0c0.1,0,0.2,0,0.2-0.1
			c0.1-0.1,0.1-0.2,0.2-0.3c0.2-0.3,0.4-0.7,0.8-0.8c0.2-0.1,0.3-0.1,0.5-0.1c0.3,0,0.5,0,0.8,0.1c0.2,0,0.4,0.1,0.6,0.1
			c0,0,0.1,0,0.1,0c0.1,0,0.2-0.1,0.2-0.2c0,0,0.1-0.1,0.1-0.2c0.2-0.3,0.4-0.7,0.8-0.9c0.2-0.1,0.3-0.1,0.6-0.1
			c0.3,0,0.5,0.1,0.8,0.1c0.1,0,0.3,0.1,0.5,0.1c0,0,0,0,0,0c0.1,0,0.2-0.1,0.2-0.1c0.1-0.1,0.1-0.2,0.2-0.3c0.2-0.4,0.3-0.8,0.8-1
			c0.2-0.1,0.5-0.2,0.8-0.2c0.1,0,0.3,0,0.4,0c0.1,0,0.3,0,0.4,0c0.1,0,0.2,0,0.2,0c0.1,0,0.2-0.1,0.2-0.2c0,0,0,0,0,0
			c0-0.1,0.1-0.1,0.1-0.2c0.1-0.3,0.3-0.7,0.7-1c0.3-0.2,0.7-0.2,1.1-0.2l0.3,0c0.1,0,0.2-0.1,0.2-0.2c0-0.4,0.1-0.8,0.5-1
			c0.3-0.2,0.7-0.2,1-0.2l0.6,0c0.1,0,0.2,0,0.2-0.1c0,0,0.1-0.1,0.1-0.2c0-0.5-0.1-1,0.3-1.4c0.3-0.3,0.8-0.3,1.3-0.3
			c0.1,0,0.2,0,0.3,0c0.1,0,0.2-0.1,0.2-0.2c0-0.1,0-0.3,0-0.4c0-0.5,0-1,0.4-1.4c0.4-0.4,0.9-0.4,1.4-0.4c0.1,0,0.2,0,0.3,0
			c0.1,0,0.2-0.1,0.2-0.2c0-0.1,0.1-0.4,0.2-0.6c0.1-0.2,0.1-0.4,0.2-0.6c0-0.1,0-0.1,0-0.2l-4.8-8.7c0-0.1-0.1-0.1-0.2-0.1
			c0,0,0,0,0,0c-0.1,0-0.1,0-0.2,0.1c-5.9,6.7-14.7,9.4-31.6,9.6l-0.7,0c-13.7,0-25.8-5-31.6-13.1c0-0.1-0.1-0.1-0.2-0.1
			c0,0,0,0,0,0c-0.1,0-0.2,0-0.2,0.1l-5.5,7.2c-0.1,0.1-0.1,0.2,0,0.3c0.2,0.5,0.4,1,0.6,1.5c0.1,0.3,0.1,0.6,0.1,0.9
			c0,0.5,0,0.7,0.1,0.9C7,56,7,56.1,7,56.1c0.1,0,0.2,0.1,0.4,0.1c0,0,0.2,0,0.2,0c0.3,0,0.4,0.1,0.6,0.2c0.3,0.3,0.2,0.8,0.1,1.3
			l0,0.2c0,0.1,0,0.1,0,0.2c0,0.1,0.1,0.1,0.2,0.1c0.4,0,0.8,0.1,1.1,0.5c0.3,0.4,0.2,0.9,0.2,1.3l0,0.2c0,0.1,0,0.1,0.1,0.2
			s0.1,0.1,0.2,0.1l0.2,0c0.5,0,0.9,0.1,1.3,0.4c0.3,0.4,0.4,0.9,0.4,1.3c0,0.1,0,0.3,0,0.4c0,0.1,0.1,0.2,0.2,0.2c0,0,0.3,0,0.3,0
			c0.5,0,1,0,1.3,0.3c0.4,0.4,0.4,0.9,0.4,1.3c0,0.1,0,0.2,0.1,0.2c0,0,0.1,0.1,0.2,0.1c0,0,0.3,0,0.3,0c0.2,0,0.3,0,0.4,0
			c0.4,0,0.7,0.1,0.9,0.2c0.4,0.3,0.4,0.6,0.5,1c0,0.1,0.1,0.2,0.2,0.2c0,0,0.5,0,0.5,0c0.3,0,0.6,0,0.9,0.2c0.4,0.2,0.6,0.6,0.7,1
			c0.1,0.2,0.2,0.4,0.2,0.4c0,0.1,0.1,0.1,0.2,0.1c0,0,0,0,0,0c0,0,0.1,0,0.1,0c0.1,0,0.3,0,0.4,0c0.2,0,0.4,0,0.5,0
			c0.3,0,0.6,0,0.8,0.2c0.4,0.2,0.6,0.6,0.8,1c0,0.1,0.1,0.2,0.2,0.3c0,0.1,0.1,0.1,0.2,0.1c0,0,0,0,0,0c0.1,0,0.3-0.1,0.4-0.1
			c0.3-0.1,0.6-0.1,0.8-0.1c0.2,0,0.4,0,0.5,0.1c0.4,0.2,0.6,0.6,0.8,0.9c0.1,0.1,0.1,0.2,0.2,0.3c0,0.1,0.1,0.1,0.2,0.1
			c0,0,0,0,0,0c0.1,0,0.4-0.1,0.6-0.1c0.3-0.1,0.5-0.1,0.8-0.1c0.2,0,0.4,0,0.5,0.1c0.4,0.2,0.7,0.5,0.8,0.8c0,0.1,0.1,0.2,0.2,0.3
			c0,0.1,0.1,0.1,0.2,0.1c0,0,0,0,0,0c0.1,0,0.4-0.1,0.5-0.1c0.3-0.1,0.6-0.1,0.9-0.1c0.1,0,0.3,0,0.4,0.1c0.5,0.1,0.7,0.5,0.9,0.8
			l0.1,0.1c0,0.1,0.1,0.1,0.2,0.1c0,0,0.1,0,0.1,0l0.2-0.1c0.3-0.2,0.7-0.4,1.1-0.4c0.1,0,0.2,0,0.3,0c0.5,0.1,0.8,0.6,1.1,1
			c0.1,0.1,0.2,0.3,0.3,0.4c0,0.1,0.1,0.1,0.2,0.1c0,0,0.1,0,0.1,0l0.3-0.2c0.3-0.2,0.7-0.4,1.1-0.4c0.1,0,0.1,0,0.2,0
			c0.5,0.1,0.8,0.6,1,0.9l0.1,0.1c0,0.1,0.1,0.1,0.2,0.1c0,0,0.1,0,0.1,0c0.1,0,0.2-0.1,0.3-0.2c0.4-0.2,0.8-0.5,1.2-0.5
			c0,0,0.1,0,0.1,0c0.5,0.1,0.7,0.4,0.9,0.7c0.1,0.1,0.1,0.1,0.2,0.1c0,0,0.1,0,0.1,0l0.3-0.1C40.9,73.5,41.3,73.3,41.7,73.3
			L41.7,73.3z M76.8,47.3c0,0,0,0,0,0.1l5.4,9.7c0,0,0,0.1,0.1,0.1c0.1,0.1,0.2,0.3,0.2,0.4c0,0,0,0.1,0,0.1l0.3,0.6
			c0,0.1,0.1,0.1,0.1,0.1c0,0.1,0.1,0.1,0.2,0.1c0,0,0.1,0,0.1,0l2.1-1.1c0.1-0.1,0.2-0.2,0.1-0.3c0-0.1,0-0.1-0.1-0.2L74.6,37.4
			c0-0.1-0.1-0.1-0.1-0.1c0-0.1-0.1-0.1-0.2-0.1c0,0-0.1,0-0.1,0l-2.1,1.1c-0.1,0.1-0.2,0.2-0.1,0.3c0,0.1,0,0.1,0.1,0.2L76.8,47.3
			C76.7,47.3,76.7,47.3,76.8,47.3C76.8,47.3,76.8,47.3,76.8,47.3z M46.6,44.5c-0.1,0-0.2,0-0.3,0.1c-0.3,0.2-0.3,0.8-0.5,2.3l0,0.4
			c-0.3,2.7-1.7,4.4-2.3,5c-0.2,0.2-0.5,0.3-0.8,0.3l-2.8,0.1c-0.1,0-0.2,0.1-0.2,0.3v4c0,0.1,0.1,0.2,0.2,0.2
			c1.2,0.1,2.5,0.1,3.8,0.1l0.7,0c1.4,0,2.8-0.1,4.1-0.1c0.1,0,0.2,0,0.2-0.1c0.1-0.1,0.2-0.2,0.3-0.2c0.3-0.1,0.6-0.2,1.1-0.2
			c0.1,0,0.2-0.1,0.2-0.2c0-0.1,0-0.2-0.1-0.3c-0.2-0.2-0.3-0.5-0.1-0.8c0.1-0.2,0.3-0.3,0.5-0.3c0.1,0,0.1,0,0.2,0c0,0,0.1,0,0.1,0
			c0,0,0,0,0.1,0c0.1,0,0.2,0,0.4,0l0.2,0c0,0,0.1,0,0.1-0.1c0,0,0.1-0.1,0.2-0.1c0.1-0.1,0.2-0.2,0.1-0.3c0-0.1-0.1-0.2-0.2-0.2
			c0,0,0,0,0,0c-0.2,0-0.4,0-0.6,0c-0.3,0-0.6,0-0.7-0.1c-0.3-0.2-0.4-0.5-0.2-0.8c0.1-0.2,0.3-0.3,0.5-0.3c0.1,0,0.2,0,0.2,0
			c0,0,0.1,0,0.1,0c0,0,0,0,0,0c0.1,0,0.3,0,0.7-0.1c0.1,0,0.2,0,0.2,0c0.1,0,0.2-0.1,0.2-0.3l0-0.3c0-0.1,0-0.1-0.1-0.2
			c0,0-0.1-0.1-0.2-0.1c0,0-0.2,0-0.2,0c-0.3,0-0.6,0.1-0.8,0.1c-0.3,0-0.6,0-0.7-0.1c-0.3-0.2-0.4-0.5-0.2-0.8
			c0.1-0.2,0.3-0.3,0.5-0.3c0,0,0,0,0.1,0c0,0,0,0,0.1,0c0,0,0.1,0,0.1,0c0,0,0.1,0,0.1,0c0,0,0,0,0.1,0c0.1,0,0.3,0,0.7-0.1
			c0.1,0,0.1,0,0.2,0c0.1,0,0.1-0.1,0.2-0.1s0.1-0.1,0-0.2c0-0.1-0.1-0.3-0.3-0.3c0,0-0.2,0-0.2,0C51,51,50.8,51,50.5,51
			c0,0-0.1,0-0.1,0c0,0-0.1,0-0.1,0c-0.2,0-0.4-0.1-0.5-0.1c-0.1-0.1-0.2-0.2-0.3-0.4c0-0.2,0-0.3,0.1-0.4c0.1-0.2,0.3-0.3,0.5-0.3
			c0.1,0,0.2,0,0.2,0c0,0,0.1,0,0.1,0c0,0,0,0,0.1,0c0.1,0,0.3,0,0.7-0.1c0.1,0,0.2-0.1,0.2-0.1c0-0.1,0.1-0.1,0.1-0.2
			c-0.1-0.2-0.1-0.4-0.2-0.6c0-0.1-0.1-0.2-0.2-0.2c0,0-3.3-0.2-3.3-0.2l-0.4-0.2l-0.1-0.5c0.3-1.4,0.3-2.5,0.3-3
			c0-0.1-0.1-0.2-0.2-0.2C47,44.5,46.7,44.5,46.6,44.5z M33.8,50.5c-0.9,0-1.6,0.7-1.6,1.6v3.8c0,0.1,0.1,0.3,0.2,0.3
			c1.8,0.4,3.8,0.7,5.8,0.9c0,0,0,0,0,0c0.1,0,0.1,0,0.2-0.1c0.1,0,0.1-0.1,0.1-0.2V52c0-0.9-0.7-1.6-1.6-1.6H33.8z M58.5,43.7
			c0.2,3.5-2.1,4.4-3.9,5c-0.7,0.2-1.3,0.5-1.7,0.8c-0.1,0.1-0.1,0.2-0.1,0.2c0.4,2,0.8,4.7,0,6.7c0,0.1,0,0.2,0,0.2
			c0,0.1,0.1,0.1,0.2,0.1c0,0,0,0,0,0c5.4-0.5,9.8-1.4,13.3-2.8c0.1,0,0.1-0.1,0.1-0.1c6.2-15.7-0.5-22.6-3.7-24.9c0,0-0.1,0-0.1,0
			c0,0,0,0-0.1,0c-0.1,0-0.1,0.1-0.2,0.1L56,40.9l-3.7,7c0,0.1,0,0.1,0,0.2c0,0.1,0.1,0.2,0.2,0.2c0.1,0,0.1,0.1,0.2,0.1
			c0,0,0,0,0.1,0c0.5-0.3,1-0.4,1.5-0.6c1.8-0.6,3.3-1.2,3.2-3.9l0-0.2l1.2-0.1L58.5,43.7z M17.9,38c-0.1,0-0.2,0-0.2,0.1
			c0,0,0,0-0.1,0.1c0,0-0.1,0.1-0.1,0.1c-0.4,1.7-0.6,9.7,2.8,13c0.1,0.1,0.1,0.2,0.1,0.2c0,0.1,0.1,0.1,0.1,0.1
			c2.9,1.8,6.3,3.2,10.1,4.2c0,0,0,0,0.1,0c0.1,0,0.1,0,0.2-0.1c0.1,0,0.1-0.1,0.1-0.2V52c0-0.1,0-0.2,0-0.3c0-0.1-0.1-0.2-0.2-0.3
			l-1.5-0.3l-0.2-1.4c0-0.1-0.1-0.2-0.2-0.2l-1.1,0l-0.3-1.5c0-0.1-0.1-0.2-0.2-0.2c0,0-1.4,0.2-1.4,0.2l-0.1-1.6
			c0-0.1,0-0.1-0.1-0.2c0,0-0.1-0.1-0.2-0.1c0,0-1,0.1-1,0.1l-0.1-1.5c0-0.1-0.1-0.2-0.2-0.2l-1.2-0.1l-0.1-1.5
			c0-0.1-0.1-0.2-0.1-0.2l-1.4-0.6l-0.7-1.3c0-0.1-0.1-0.1-0.2-0.1l-1.8-0.4l-0.4-2.1c0-0.1-0.1-0.2-0.2-0.2C18,38,18,38,17.9,38z
			 M14.6,35.1c-0.1,0-0.1,0-0.2,0.1L1.7,51.6c0,0.1-0.1,0.1-0.1,0.1c-0.1,0.1,0,0.2,0.1,0.3l1.9,1.4c0,0,0.1,0.1,0.2,0.1
			c0.1,0,0.1,0,0.2-0.1c0,0,0.1-0.1,0.1-0.1l12.3-15.9c0-0.1,0.1-0.1,0-0.2l-0.4-1.5c0-0.1-0.1-0.1-0.2-0.2L14.6,35.1
			C14.6,35.1,14.6,35.1,14.6,35.1z M63.6,27.5c-0.1,0-0.2,0-0.2,0.1c0,0,0,0,0,0c-0.1,0.1-0.1,0.3,0,0.4c3.3,2.3,10.3,9.2,4.8,24.8
			c0,0.1,0,0.2,0.1,0.3c0,0,0.1,0.1,0.2,0.1c0,0,0.1,0,0.1,0c2.7-1.4,5-3.2,6.9-5.5c0.1-0.1,0.1-0.2,0-0.3L71,39.3
			c-0.2-0.3-0.3-0.7-0.2-1c0-0.4,0.2-0.7,0.5-0.9l2.5-1.4c0.1-0.1,0.3-0.1,0.5-0.1c0.2,0,0.4,0.1,0.6,0.1c0,0,0.1,0,0.1,0
			c0.1,0,0.2,0,0.2-0.1c0.1-0.1,0.1-0.2,0-0.3c-2-1.7-4.6-3.8-5.4-4.4c-2.2-1.6-4.7-3-6-3.8C63.6,27.5,63.6,27.5,63.6,27.5z
			 M38.7,46.4c-0.1,0-0.2,0.1-0.2,0.2c-0.1,0.7-0.4,1.3-1,1.8L37,48.9c-0.1,0.1-0.1,0.2-0.1,0.3s0.1,0.2,0.2,0.2
			c1.1,0.1,2.1,1,2.4,2.1c0,0.1,0.1,0.2,0.2,0.2c0,0,0.8,0,0.8,0c0.1,0,0.2-0.1,0.2-0.1c0.2-0.5,0.1-1.5-0.5-2.7
			c-0.4-0.9-0.9-1.7-1.2-2.2C39,46.5,38.9,46.4,38.7,46.4C38.8,46.4,38.8,46.4,38.7,46.4z M39,44.5c0,0,0,0.1,0.1,0.1
			c0.6,0.8,1.6,2.2,2.2,3.7c0.5,1.2,0.8,2.2,0.7,2.9c0,0.1,0,0.1,0.1,0.2c0,0.1,0.1,0.1,0.2,0.1c0,0,0.2,0,0.2,0
			c0.1,0,0.1,0,0.2-0.1c0.5-0.5,1.7-2.1,1.9-4.3l0-0.4c0.2-1.7,0.3-2.7,1-3.2c0.3-0.2,0.6-0.3,1-0.3c0.4,0,0.8,0.1,1.4,0.2
			c0.3,0.1,0.7,0.3,0.8,1.5c0,0.1,0.1,0.2,0.2,0.2c0,0,0,0,0.1,0c0.1,0,0.2,0,0.2-0.1l3.5-6l6-11.8c0-0.1,0-0.1,0-0.2
			c0-0.1-0.1-0.1-0.1-0.1c-1.5-0.5-2.9-0.8-3.8-1c0,0,0,0,0,0c-0.1,0-0.1,0-0.2,0.1c-0.1,0-0.1,0.1-0.1,0.2v1.1
			c0,5.7-4.6,10.3-10.3,10.3h-1.2c-5.7,0-10.3-4.6-10.3-10.3v-0.4c0-0.1,0-0.1-0.1-0.2c0,0-0.1-0.1-0.2-0.1c0,0,0,0,0,0
			c-1,0.1-3,0.5-5.2,1.4c-0.1,0-0.2,0.2-0.1,0.3l0.4,1.6c0,0.1,0.1,0.1,0.1,0.1l1.6,1.1l0.7,1.8c0,0.1,0.1,0.1,0.1,0.1l1.8,0.9
			l0.1,1.3c0,0.1,0.1,0.2,0.1,0.2l1.4,0.6l0.2,1.3c0,0.1,0.1,0.1,0.1,0.2l1.8,1l0,1.1c0,0.1,0.1,0.2,0.1,0.2l1.5,0.7l0.1,1.3
			c0,0.1,0.1,0.2,0.2,0.2l1.4,0.5L39,44.5z M18,24c-0.5,0-1,0.1-1.4,0.3L14,26.6c-1,1.1-0.5,3.5,0.5,4.7l16.4,17.7
			c0.3,0.3,0.6,0.6,0.9,0.8c0,0,0.1,0,0.1,0c0.1,0,0.1,0,0.2-0.1c0.5-0.4,1.1-0.6,1.7-0.6h0.9c0.1,0,0.1,0,0.2-0.1l2-1.7
			c0.5-0.5,0.7-1,0.6-1.6c-0.1-0.5-0.4-1.1-0.9-1.6L21.3,25.5C20.5,24.6,19.2,24,18,24z M15.9,40c-0.1,0-0.1,0-0.2,0.1l-3,3.9
			c-0.1,0.1-0.1,0.2,0,0.3c1.2,1.8,2.7,3.4,4.5,4.9c0,0,0.1,0.1,0.2,0.1c0.1,0,0.1,0,0.1,0c0.1-0.1,0.1-0.2,0.1-0.3
			c-1.1-2.8-1.5-6.3-1.4-8.6C16.2,40.1,16.1,40,15.9,40C16,40,16,40,15.9,40z M65.4,17C65.4,17,65.3,17,65.4,17
			c-0.1,0-0.2,0.1-0.2,0.1L53.7,39.7l-4.2,7.4c0,0.1,0,0.2,0,0.2c0,0.1,0.1,0.1,0.2,0.1c0,0,1.4,0.1,1.4,0.1c0.1,0,0.2-0.1,0.2-0.1
			l3.7-7.1l12.2-22.2c0-0.1,0-0.1,0-0.2c0-0.1-0.1-0.1-0.1-0.1L65.5,17C65.5,17,65.4,17,65.4,17z M82.7,26C82.7,26,82.7,26,82.7,26
			c-0.1,0-0.2,0.1-0.2,0.1l-5.1,10c-0.1,0.1,0,0.3,0.1,0.3l1.4,0.8c0.2,0.2,0.5,0.4,0.7,0.4c0,0,0,0,0,0c0.1,0,0.1,0,0.2-0.1
			c0.1,0,0.1-0.1,0.4-0.7l4.5-8.8c0.1-0.1,0.1-0.2,0.2-0.4c0.1-0.1,0.2-0.4,0.3-0.5c0-0.1,0-0.1,0-0.2c0-0.1-0.1-0.1-0.2-0.1
			c-0.1,0-0.3-0.1-0.6-0.1L82.9,26C82.8,26,82.8,26,82.7,26z M33.9,27.9c0,0-0.1,0-0.1,0c-0.1,0-0.1,0.1-0.1,0.2
			c0.4,4.7,4.4,8.3,9.1,8.3h1.2c4.8,0,8.7-3.6,9.1-8.3c0-0.1,0-0.2-0.1-0.2c0,0-0.1,0-0.1,0c-0.1,0-0.1,0-0.1,0
			c-1.1,0.8-2.5,1.2-4.1,1.2c-2.2,0-4.1-0.8-5.1-2.2c0-0.1-0.1-0.1-0.2-0.1s-0.2,0-0.2,0.1c-0.9,1.4-2.9,2.2-5.1,2.2
			c-1.6,0-3-0.4-4.1-1.2C34.1,27.9,34,27.9,33.9,27.9z M67.6,20c-0.1,0-0.2,0-0.2,0.1l-3.3,6c-0.1,0.1,0,0.3,0.1,0.3
			c1.1,0.6,3.9,2.2,6.2,3.9c1.1,0.7,3.7,2.7,6.1,4.8c0,0,0.1,0.1,0.2,0.1c0,0,0,0,0,0c0.1,0,0.1-0.1,0.2-0.1l4.6-8.9
			c0-0.1,0-0.1,0-0.2c0-0.1-0.1-0.1-0.2-0.1l-0.2-0.1c-2.2-0.8-4.5-1.5-6.2-2.4C72.9,22.3,69.2,20.7,67.6,20
			C67.6,20,67.6,20,67.6,20z M44.8,25.9c-0.1,0-0.2,0.1-0.2,0.1c0,0.1,0,0.2,0,0.3c0.7,1,2.4,1.7,4.1,1.7c1.1,0,2.2-0.3,3.1-0.8
			c0.1-0.1,0.2-0.2,0.1-0.3c0-0.1-0.1-0.2-0.2-0.2c0,0,0,0-0.1,0c-0.3,0.1-0.6,0.1-0.9,0.1c-0.1,0-0.2,0-0.3,0c-1,0-1.9-0.4-2.7-1.1
			c-0.6-0.5-1-0.7-1.5-0.8l-0.1,0c0,0-0.1,0-0.1,0c-0.1,0-0.1,0.1-0.2,0.1c-0.2,0.3-0.5,0.5-0.8,0.7C45,25.8,44.9,25.8,44.8,25.9
			L44.8,25.9z M35.4,26.8c-0.1,0-0.2,0.1-0.2,0.2c0,0.1,0,0.2,0.1,0.3c0.8,0.4,1.9,0.7,2.9,0.7c1.8,0,3.4-0.7,4.1-1.7
			c0-0.1,0.1-0.2,0-0.2c0-0.1-0.1-0.1-0.2-0.2c-0.4-0.1-0.8-0.3-1-0.7c0,0-0.1-0.1-0.1-0.1C40.9,25,40.8,25,40.7,25
			c-0.6,0.1-1,0.3-1.6,0.8c-0.8,0.7-1.7,1.1-2.8,1.1c0,0,0,0,0,0c-0.1,0-0.2,0-0.3,0C35.8,26.9,35.6,26.8,35.4,26.8
			C35.4,26.8,35.4,26.8,35.4,26.8z M33.9,18.7c-0.1,0-0.3,0.1-0.3,0.3v5.8c0,0.1,0,0.2,0.1,0.2c0.5,0.3,1.3,0.7,2.3,0.8
			c0.1,0,0.2,0,0.2,0c0.7,0,1.3-0.3,2-0.8c0.7-0.6,1.4-1,2.1-1.1c0.1,0,0.1,0,0.2,0c0.1,0,0.2-0.1,0.2-0.3v-4.6
			c0-0.1-0.1-0.3-0.3-0.3H33.9z M46.3,18.7c-0.1,0-0.3,0.1-0.3,0.3v4.6c0,0.1,0.1,0.2,0.2,0.2c0.7,0.1,1.4,0.5,2.1,1.1
			c0.6,0.6,1.3,0.8,2,0.8c0.1,0,0.1,0,0.2,0c1-0.1,1.9-0.6,2.5-1c0.1,0,0.1-0.1,0.1-0.2v-5.6c0-0.1-0.1-0.3-0.3-0.3H46.3z
			 M14.4,24.2l-0.5,0.1c-0.1,0-0.2,0.1-0.2,0.2l-0.1,0.5c0,0.1,0,0.2,0.1,0.3c0,0,0.1,0,0.1,0c0.1,0,0.1,0,0.2-0.1l0.6-0.5
			c0.1-0.1,0.1-0.2,0.1-0.3C14.6,24.2,14.5,24.2,14.4,24.2C14.4,24.2,14.4,24.2,14.4,24.2z M42.3,18.7c-0.1,0-0.3,0.1-0.3,0.3v5.3
			c0,0.3,0.2,0.5,0.5,0.5h1.9c0.3,0,0.5-0.2,0.5-0.5v-5.3c0-0.1-0.1-0.3-0.3-0.3H42.3z M15.9,22.9c-0.1,0-0.2,0-0.3,0.1l-0.1,0.1
			c-0.1,0.1,0,0.2,0.1,0.3c0,0,0.1,0.1,0.2,0.1c0.1,0,0.1,0,0.2-0.1c0.1-0.1,0.2-0.2,0.2-0.3C16.1,23,16.1,22.9,15.9,22.9
			C15.9,22.9,15.9,22.9,15.9,22.9z M18.1,22.2c-0.1,0-0.1,0-0.2,0.1c0,0-0.1,0.2-0.1,0.2c-0.1,0.1-0.1,0.2,0,0.3
			c0,0.1,0.1,0.1,0.2,0.1c0.1,0,0.2,0,0.3,0c0,0,0,0,0,0c0.1,0,0.2-0.1,0.2-0.2c0-0.1,0-0.2-0.1-0.3l-0.2-0.2
			C18.3,22.2,18.2,22.2,18.1,22.2C18.2,22.2,18.1,22.2,18.1,22.2z M52.5,11.9c-0.1,0-0.3,0.1-0.3,0.3v5.1c0,0.1,0.1,0.3,0.3,0.3H53
			c0.1,0,0.3-0.1,0.3-0.3v-5.1c0-0.1-0.1-0.3-0.3-0.3H52.5z M50.2,11.9c-0.1,0-0.3,0.1-0.3,0.3v5.1c0,0.1,0.1,0.3,0.3,0.3h0.7
			c0.1,0,0.3-0.1,0.3-0.3v-5.1c0-0.1-0.1-0.3-0.3-0.3H50.2z M47.8,11.9c-0.1,0-0.3,0.1-0.3,0.3v5.1c0,0.1,0.1,0.3,0.3,0.3h0.7
			c0.1,0,0.3-0.1,0.3-0.3v-5.1c0-0.1-0.1-0.3-0.3-0.3H47.8z M45.5,11.9c-0.1,0-0.3,0.1-0.3,0.3v5.1c0,0.1,0.1,0.3,0.3,0.3h0.7
			c0.1,0,0.3-0.1,0.3-0.3v-5.1c0-0.1-0.1-0.3-0.3-0.3H45.5z M43.1,11.9c-0.1,0-0.3,0.1-0.3,0.3v5.1c0,0.1,0.1,0.3,0.3,0.3h0.7
			c0.1,0,0.2-0.1,0.2-0.3v-5.1c0-0.1-0.1-0.3-0.2-0.3H43.1z M40.8,11.9c-0.1,0-0.3,0.1-0.3,0.3v5.1c0,0.1,0.1,0.3,0.3,0.3h0.7
			c0.1,0,0.3-0.1,0.3-0.3v-5.1c0-0.1-0.1-0.3-0.3-0.3H40.8z M38.4,11.9c-0.1,0-0.3,0.1-0.3,0.3v5.1c0,0.1,0.1,0.3,0.3,0.3h0.7
			c0.1,0,0.3-0.1,0.3-0.3v-5.1c0-0.1-0.1-0.3-0.3-0.3H38.4z M36.1,11.9c-0.1,0-0.3,0.1-0.3,0.3v5.1c0,0.1,0.1,0.3,0.3,0.3h0.7
			c0.1,0,0.3-0.1,0.3-0.3v-5.1c0-0.1-0.1-0.3-0.3-0.3H36.1z M33.9,11.9c-0.1,0-0.3,0.1-0.3,0.3v5.1c0,0.1,0.1,0.3,0.3,0.3h0.5
			c0.1,0,0.3-0.1,0.3-0.3v-5.1c0-0.1-0.1-0.3-0.3-0.3H33.9z M32.3,12.4c-0.1,0-0.2,0-0.2,0.1c-0.1,0.2-0.2,0.4-0.2,0.6v3.2
			c0,0.2,0.1,0.4,0.2,0.6c0,0.1,0.1,0.1,0.2,0.1c0,0,0,0,0.1,0c0.1,0,0.2-0.1,0.2-0.2v-4.2C32.5,12.5,32.4,12.4,32.3,12.4
			C32.3,12.4,32.3,12.4,32.3,12.4z M54.7,12.4C54.6,12.4,54.6,12.4,54.7,12.4c-0.2,0-0.3,0.1-0.3,0.3v4.2c0,0.1,0.1,0.2,0.2,0.2
			c0,0,0,0,0.1,0c0.1,0,0.2,0,0.2-0.1c0.1-0.2,0.2-0.4,0.2-0.6v-3.2c0-0.2-0.1-0.4-0.2-0.6C54.8,12.4,54.7,12.4,54.7,12.4z
			 M42.8,1.9c-4.8,0-8.9,3.8-9.2,8.6c0,0.1,0,0.1,0.1,0.2s0.1,0.1,0.2,0.1h19c0.1,0,0.1,0,0.2-0.1c0-0.1,0.1-0.1,0.1-0.2
			c-0.3-4.8-4.3-8.6-9.2-8.6H42.8z"/>
		<path class="st0" d="M44.1,1c5.3,0,9.9,4.3,10.1,9.7c0,0.2,0.1,0.4,0.3,0.5c0.9,0.3,1.5,1.1,1.5,2v3.2c0,0.9-0.6,1.7-1.5,2
			c-0.2,0.1-0.3,0.3-0.3,0.5v5.7c0,0.2,0.2,0.5,0.4,0.5c1,0.2,2.6,0.5,4.5,1.1c0.1,0,0.1,0,0.2,0c0.2,0,0.4-0.1,0.4-0.3l4.9-9.5
			c0.1-0.2,0.3-0.3,0.5-0.4c0.1,0,0.2,0,0.3,0c0.1,0,0.3,0,0.4,0.1l2.1,1.1c0.2,0.1,0.3,0.3,0.4,0.5c0.1,0.2,0,0.4,0,0.6l-0.2,0.4
			c-0.1,0.1-0.1,0.3,0,0.4c0,0.1,0.1,0.2,0.3,0.3c1.9,0.8,5.3,2.3,7.1,3.2c2.5,1.2,9.1,3.4,9.2,3.4c0,0,0.1,0,0.1,0
			c0.7,0.1,1.2,0.3,1.4,0.7c0.3,0.5-0.1,1.2-0.4,1.6c-0.1,0.1-0.1,0.2-0.2,0.3l-4.5,8.8c-0.3,0.5-0.6,1.1-1.2,1.2
			c-0.1,0-0.2,0-0.2,0c-0.4,0-0.8-0.2-1.2-0.6c-0.5-0.4-1.4-1.2-2.4-2.1c-0.1-0.1-0.2-0.1-0.3-0.1c0,0-0.1,0-0.1,0
			c0-0.2-0.1-0.3-0.2-0.4c-2-1.7-4.6-3.8-5.4-4.4c-2.3-1.6-5-3.2-6-3.8c-0.1,0-0.2-0.1-0.2-0.1c-0.2,0-0.3,0.1-0.4,0.2l-0.1,0.1
			c-0.1,0.2-0.1,0.5,0.1,0.7c3.2,2.2,10.2,9.1,4.7,24.5c-0.1,0.2,0,0.4,0.1,0.5c0.1,0.1,0.2,0.1,0.3,0.1c0.1,0,0.2,0,0.2-0.1
			c2.8-1.4,5.1-3.2,7-5.5c0.1-0.2,0.2-0.4,0.1-0.6l-4.4-8.1c-0.2-0.3-0.2-0.6-0.2-0.9c0-0.3,0.2-0.6,0.4-0.7l2.5-1.4
			c0.1-0.1,0.2-0.1,0.4-0.1c0.1,0,0.3,0,0.5,0.1c0.1,0,0.2,0.1,0.2,0.1c0,0,0.1,0,0.1,0c0,0.1,0,0.2,0.1,0.3
			c0.1,0.1,0.1,0.2,0.2,0.2l10.8,19.5c0.3,0.6,0.3,1.3-0.2,1.6l-2.5,1.4c-0.1,0.1-0.2,0.1-0.4,0.1c-0.1,0-0.2,0-0.2,0
			c-0.1,0-0.3-0.1-0.4-0.2c-0.1-0.1-0.2-0.1-0.3-0.1c0,0-0.1,0-0.1,0c-0.2,0-0.3,0.2-0.3,0.3c-0.1,0.2-0.2,0.4-0.3,0.5
			c-0.2,0.2-0.6,0.3-1.1,0.3c-0.1,0-0.3,0-0.4,0c-0.2,0-0.4,0.2-0.4,0.5c0,0.1,0,0.3,0,0.4c0,0.4,0,1-0.3,1.3
			c-0.3,0.3-0.7,0.3-1.1,0.3c-0.1,0-0.2,0-0.3,0c-0.3,0-0.5,0.3-0.5,0.6l0,0.1c0,0.5,0,0.9-0.3,1.1c-0.2,0.2-0.5,0.2-0.9,0.2l-0.3,0
			l-0.1,0c-0.1,0-0.2,0-0.2,0l-0.1,0c-0.3,0-0.5,0.2-0.5,0.5c0,0.3-0.1,0.6-0.4,0.8c-0.2,0.1-0.5,0.2-0.9,0.2l-0.1,0
			c-0.1,0-0.3,0-0.4,0c-0.2,0-0.3,0.1-0.4,0.3c0,0.1-0.1,0.2-0.1,0.3c-0.1,0.3-0.3,0.7-0.6,0.9c-0.2,0.1-0.4,0.2-0.7,0.2
			c-0.1,0-0.3,0-0.5,0c-0.1,0-0.2,0-0.4,0c-0.1,0-0.1,0-0.2,0c-0.2,0-0.3,0.1-0.4,0.3c-0.1,0.1-0.1,0.3-0.2,0.4
			c-0.2,0.4-0.3,0.8-0.7,0.9c-0.1,0.1-0.3,0.1-0.5,0.1c-0.2,0-0.5-0.1-0.7-0.1C67.4,69,67.2,69,67,69c0,0,0,0,0,0
			c-0.2,0-0.3,0.1-0.4,0.2c-0.1,0.1-0.1,0.2-0.2,0.3c-0.2,0.3-0.4,0.7-0.7,0.8c-0.1,0.1-0.3,0.1-0.5,0.1c-0.2,0-0.5,0-0.7-0.1
			c-0.2,0-0.5-0.1-0.6-0.1c-0.1,0-0.1,0-0.2,0c-0.2,0.1-0.3,0.2-0.3,0.4c0,0,0,0,0,0.1c-0.2,0.3-0.4,0.6-0.7,0.8
			c-0.1,0-0.2,0.1-0.4,0.1c-0.3,0-0.5-0.1-0.8-0.1c-0.2,0-0.4-0.1-0.6-0.1c0,0,0,0,0,0c-0.2,0-0.3,0.1-0.4,0.2
			c0,0.1-0.1,0.2-0.1,0.2c-0.2,0.3-0.4,0.7-0.7,0.8c-0.1,0-0.1,0-0.2,0c-0.3,0-0.6-0.1-0.8-0.2c-0.1,0-0.3-0.1-0.4-0.1
			c-0.1,0-0.1,0-0.2,0c-0.2,0-0.3,0.1-0.4,0.3c-0.1,0.1-0.1,0.2-0.1,0.3c-0.2,0.4-0.4,0.7-0.7,0.8c-0.1,0-0.1,0-0.2,0
			c-0.3,0-0.6-0.2-0.8-0.3c-0.1,0-0.2-0.1-0.3-0.1C55.2,73,55.1,73,55,73c-0.1,0-0.2,0-0.3,0.1c-0.1,0.1-0.3,0.2-0.4,0.4
			c-0.3,0.3-0.6,0.6-1,0.6c-0.1,0-0.1,0-0.2,0c-0.3,0-0.6-0.2-0.9-0.3c-0.2-0.1-0.3-0.2-0.4-0.2c0,0-0.1,0-0.1,0
			c-0.1,0-0.3,0-0.3,0.1c0,0-0.3,0.2-0.4,0.3c-0.3,0.3-0.6,0.5-1,0.6c0,0-0.1,0-0.1,0c-0.3,0-0.6-0.2-0.9-0.3
			c-0.1-0.1-0.2-0.1-0.3-0.2c-0.1,0-0.1,0-0.2,0c-0.1,0-0.2,0-0.3,0.1c-0.1,0.1-0.3,0.2-0.4,0.3c-0.3,0.3-0.6,0.6-1,0.6
			c-0.5,0-0.8-0.2-1.1-0.5c-0.3-0.2-0.4-0.3-0.5-0.3c-0.1,0-0.1,0-0.2,0c-0.1,0-0.2,0-0.3,0.1c0,0,0,0-0.1,0.1
			c-0.1,0.1-0.2,0.1-0.3,0.2C44,74.8,43.7,75,43.3,75c-0.4,0-0.7-0.2-1-0.5c-0.1-0.1-0.2-0.2-0.3-0.2c-0.1,0-0.2-0.1-0.2-0.1
			c-0.1,0-0.1,0-0.2,0c-0.1,0.1-0.3,0.2-0.4,0.2c-0.3,0.2-0.7,0.4-1,0.4c-0.4,0-0.6-0.3-0.8-0.5c0,0,0-0.1-0.1-0.1
			c-0.1-0.1-0.2-0.1-0.4-0.1c-0.1,0-0.2,0-0.2,0.1c-0.1,0-0.2,0.1-0.4,0.2c-0.4,0.2-0.7,0.4-1,0.4c0,0-0.1,0-0.1,0
			c-0.4-0.1-0.6-0.4-0.9-0.8l-0.1-0.1c-0.1-0.2-0.3-0.3-0.4-0.3c-0.1,0-0.1,0-0.2,0c-0.1,0-0.2,0.1-0.3,0.1
			c-0.3,0.2-0.6,0.3-0.9,0.3c-0.1,0-0.1,0-0.2,0c-0.4-0.1-0.7-0.5-0.9-0.9c-0.1-0.1-0.2-0.3-0.3-0.4c-0.1-0.1-0.2-0.2-0.4-0.2
			c-0.1,0-0.2,0-0.2,0.1l-0.1,0.1l-0.2,0.1c-0.3,0.2-0.6,0.3-0.9,0.3c-0.1,0-0.1,0-0.2,0c-0.4-0.1-0.6-0.5-0.8-0.8
			c0,0-0.1-0.1-0.1-0.2c-0.1-0.1-0.3-0.2-0.4-0.2c0,0,0,0-0.1,0c-0.2,0-0.4,0.1-0.6,0.1c-0.3,0.1-0.6,0.1-0.8,0.1
			c-0.1,0-0.2,0-0.3,0c-0.4-0.1-0.6-0.5-0.8-0.8c-0.1-0.2-0.2-0.3-0.3-0.3c-0.1-0.1-0.2-0.1-0.3-0.1c0,0,0,0-0.1,0c0,0-0.1,0-0.1,0
			c-0.1,0-0.3,0.1-0.4,0.1c-0.2,0-0.5,0.1-0.7,0.1c-0.2,0-0.3,0-0.4-0.1c-0.4-0.1-0.6-0.5-0.7-0.8c0-0.1-0.1-0.2-0.2-0.3
			c-0.1-0.1-0.2-0.2-0.4-0.2c0,0,0,0,0,0c-0.1,0-0.3,0.1-0.5,0.1C22.5,69.9,22.2,70,22,70c-0.2,0-0.3,0-0.4-0.1
			c-0.4-0.2-0.5-0.6-0.7-0.9c0-0.1-0.1-0.3-0.2-0.4c-0.1-0.1-0.2-0.2-0.4-0.3c0,0-0.1,0-0.1,0c-0.1,0-0.3,0-0.4,0
			c-0.2,0-0.3,0-0.5,0c-0.3,0-0.5,0-0.7-0.1c-0.4-0.2-0.5-0.6-0.7-0.9c0-0.1-0.1-0.2-0.1-0.3c-0.1-0.2-0.2-0.3-0.4-0.3
			c-0.1,0-0.1,0-0.2,0l-0.2,0c-0.1,0-0.2,0-0.3,0c-0.3,0-0.6,0-0.8-0.1c-0.3-0.2-0.4-0.5-0.4-0.8c0-0.3-0.2-0.5-0.5-0.5c0,0,0,0,0,0
			l-0.2,0l-0.2,0c-0.1,0-0.3,0-0.4,0c-0.4,0-0.6-0.1-0.8-0.2C13,64.9,13,64.6,13,64.1l0-0.1c0-0.3-0.2-0.5-0.5-0.5
			c-0.1,0-0.2,0-0.3,0c-0.4,0-0.9,0-1.1-0.3c-0.3-0.3-0.3-0.8-0.4-1.2c0-0.1,0-0.3,0-0.4c0-0.2-0.2-0.4-0.5-0.4c-0.1,0-0.2,0-0.3,0
			c-0.4,0-0.8-0.1-1.1-0.4c-0.3-0.3-0.2-0.7-0.1-1.1l0-0.1c0-0.1,0-0.3-0.1-0.4C8.6,59.1,8.5,59,8.3,59c-0.4,0-0.8-0.1-1-0.4
			c-0.2-0.3-0.1-0.6,0-1.1c0.1-0.3-0.1-0.5-0.4-0.6c-0.2-0.1-0.4-0.2-0.6-0.3c-0.4-0.4-0.4-1.1-0.4-1.5l0-0.1c0-0.2,0-0.3,0-0.4
			c0,0,0-0.1,0-0.1c-0.1-0.2-0.2-0.3-0.2-0.5c-0.1-0.2-0.2-0.3-0.4-0.3c0,0,0,0-0.1,0c-0.2,0-0.3,0.1-0.4,0.2
			c-0.2,0.2-0.4,0.4-0.7,0.5c-0.1,0-0.2,0.1-0.4,0.1c-0.2,0-0.3-0.1-0.5-0.2L1,52.6c-0.2-0.2-0.3-0.4-0.3-0.8c0-0.3,0.1-0.6,0.3-0.8
			l13-16.9c0.1-0.1,0.1-0.3,0.1-0.4L14,33c0-0.2-0.2-0.4-0.4-0.4l-1.1-0.2l-0.1-0.1c-0.3-0.4-0.3-0.8-0.3-1.2c0-0.1,0-0.3,0-0.5
			c0-0.2-0.1-0.3-0.2-0.4c0,0-0.1-0.1-0.1-0.1c-0.4-0.2-0.8-0.4-0.9-0.8c-0.1-0.5,0.2-0.9,0.6-1.2c0.2-0.2,0.2-0.4,0.1-0.6
			c-0.2-0.3-0.4-0.6-0.3-1c0.1-0.6,0.6-0.9,1-1.1l0,0l0.1-0.1c0.1-0.1,0.2-0.2,0.2-0.3l0.4-1.6l1.3-0.2c0.2,0,0.3-0.1,0.4-0.3
			l0.5-0.9l0.1,0c0.1-0.1,0.3-0.1,0.5-0.1c0.2,0,0.5,0.1,0.7,0.1c0.1,0,0.2,0,0.3,0.1c0,0,0.1,0,0.1,0c0.2,0,0.3-0.1,0.4-0.2
			l0.1-0.1c0.3-0.4,0.5-0.6,0.8-0.6c0,0,0.1,0,0.1,0c0.5,0,0.8,0.3,1.1,0.6c0.2,0.2,0.3,0.3,0.5,0.4c0.3,0.1,0.6,0.2,1,0.2
			c0.6,0.1,1.1,0.1,1.5,0.6l0.1,0.1l0.3,1.8c0,0.2,0.2,0.4,0.4,0.4l1.6,0.4l0.4,1.8c0,0.2,0.2,0.3,0.3,0.4l0.1,0c0,0,0.1,0,0.1,0
			c0.1,0,0.2,0,0.2-0.1c2.8-1.4,5.7-1.9,6.7-2c0.2,0,0.4-0.2,0.4-0.5v-6.5c0-0.2-0.1-0.4-0.3-0.5c-0.9-0.3-1.5-1.1-1.5-2v-3.2
			c0-0.9,0.6-1.7,1.5-2c0.2-0.1,0.3-0.2,0.3-0.5C33,5.3,37.5,1,42.8,1H44.1 M33.9,11h19c0.1,0,0.3-0.1,0.4-0.2
			c0.1-0.1,0.1-0.2,0.1-0.4c-0.3-5-4.4-8.8-9.4-8.8h-1.2c-5,0-9.1,3.9-9.4,8.8c0,0.1,0,0.3,0.1,0.4C33.7,10.9,33.8,11,33.9,11
			 M52.5,17.8H53c0.3,0,0.5-0.2,0.5-0.5v-5.1c0-0.3-0.2-0.5-0.5-0.5h-0.5c-0.3,0-0.5,0.2-0.5,0.5v5.1C52,17.5,52.2,17.8,52.5,17.8
			 M50.2,17.8h0.7c0.3,0,0.5-0.2,0.5-0.5v-5.1c0-0.3-0.2-0.5-0.5-0.5h-0.7c-0.3,0-0.5,0.2-0.5,0.5v5.1
			C49.7,17.5,49.9,17.8,50.2,17.8 M47.8,17.8h0.7c0.3,0,0.5-0.2,0.5-0.5v-5.1c0-0.3-0.2-0.5-0.5-0.5h-0.7c-0.3,0-0.5,0.2-0.5,0.5
			v5.1C47.3,17.5,47.5,17.8,47.8,17.8 M45.5,17.8h0.7c0.3,0,0.5-0.2,0.5-0.5v-5.1c0-0.3-0.2-0.5-0.5-0.5h-0.7
			c-0.3,0-0.5,0.2-0.5,0.5v5.1C45,17.5,45.2,17.8,45.5,17.8 M43.1,17.8h0.7c0.3,0,0.5-0.2,0.5-0.5v-5.1c0-0.3-0.2-0.5-0.5-0.5h-0.7
			c-0.3,0-0.5,0.2-0.5,0.5v5.1C42.6,17.5,42.8,17.8,43.1,17.8 M40.8,17.8h0.7c0.3,0,0.5-0.2,0.5-0.5v-5.1c0-0.3-0.2-0.5-0.5-0.5
			h-0.7c-0.3,0-0.5,0.2-0.5,0.5v5.1C40.3,17.5,40.5,17.8,40.8,17.8 M38.4,17.8h0.7c0.3,0,0.5-0.2,0.5-0.5v-5.1
			c0-0.3-0.2-0.5-0.5-0.5h-0.7c-0.3,0-0.5,0.2-0.5,0.5v5.1C37.9,17.5,38.1,17.8,38.4,17.8 M36.1,17.8h0.7c0.3,0,0.5-0.2,0.5-0.5
			v-5.1c0-0.3-0.2-0.5-0.5-0.5h-0.7c-0.3,0-0.5,0.2-0.5,0.5v5.1C35.6,17.5,35.8,17.8,36.1,17.8 M33.9,17.8h0.5
			c0.3,0,0.5-0.2,0.5-0.5v-5.1c0-0.3-0.2-0.5-0.5-0.5h-0.5c-0.3,0-0.5,0.2-0.5,0.5v5.1C33.4,17.5,33.6,17.8,33.9,17.8 M32.3,17.3
			c0,0,0.1,0,0.1,0c0.2-0.1,0.4-0.3,0.4-0.5v-4.2c0-0.2-0.1-0.4-0.4-0.5c0,0-0.1,0-0.1,0c-0.2,0-0.3,0.1-0.4,0.2
			c-0.1,0.2-0.2,0.5-0.2,0.8v3.2c0,0.3,0.1,0.5,0.2,0.8C31.9,17.2,32.1,17.3,32.3,17.3 M54.7,17.3c0.2,0,0.3-0.1,0.4-0.2
			c0.1-0.2,0.2-0.5,0.2-0.8v-3.2c0-0.3-0.1-0.5-0.2-0.8c-0.1-0.1-0.3-0.2-0.4-0.2c0,0-0.1,0-0.1,0c-0.2,0.1-0.4,0.3-0.4,0.5v4.2
			c0,0.2,0.1,0.4,0.4,0.5C54.6,17.3,54.6,17.3,54.7,17.3 M51,47.8c0.2,0,0.4-0.1,0.4-0.3l3.7-7.1l12.2-22.2c0.1-0.1,0.1-0.3,0-0.4
			c0-0.1-0.1-0.2-0.3-0.3l-1.5-0.8c-0.1,0-0.1-0.1-0.2-0.1c-0.1,0-0.1,0-0.2,0c-0.1,0-0.2,0.1-0.3,0.2L53.5,39.5l-4.2,7.4
			c-0.1,0.1-0.1,0.3,0,0.5c0.1,0.2,0.2,0.3,0.4,0.3L51,47.8C51,47.8,51,47.8,51,47.8 M50.4,26c0.1,0,0.2,0,0.2,0c1-0.1,2-0.6,2.6-1
			c0.1-0.1,0.2-0.2,0.2-0.4v-5.6c0-0.3-0.2-0.5-0.5-0.5h-6.7c-0.3,0-0.5,0.2-0.5,0.5v4.6c0,0.2,0.2,0.5,0.5,0.5c0.7,0.1,1.3,0.4,2,1
			C48.9,25.7,49.6,26,50.4,26 M42.5,25h1.9c0.4,0,0.8-0.4,0.8-0.8v-5.3c0-0.3-0.2-0.5-0.5-0.5h-2.4c-0.3,0-0.5,0.2-0.5,0.5v5.3
			C41.8,24.6,42.1,25,42.5,25 M36.3,26c0.8,0,1.5-0.3,2.1-0.9c0.7-0.6,1.3-0.9,2-1c0.1,0,0.1,0,0.2,0c0.3,0,0.5-0.2,0.5-0.5v-4.6
			c0-0.3-0.2-0.5-0.5-0.5h-6.7c-0.3,0-0.5,0.2-0.5,0.5v5.8c0,0.2,0.1,0.3,0.2,0.4c0.5,0.3,1.4,0.7,2.4,0.8C36.2,26,36.2,26,36.3,26
			 M76.6,35.4C76.6,35.4,76.7,35.4,76.6,35.4c0.2,0,0.4-0.1,0.4-0.3l4.6-8.9c0.1-0.1,0.1-0.3,0-0.4c-0.1-0.1-0.2-0.2-0.3-0.3
			l-0.2-0.1c-2.2-0.8-4.5-1.5-6.2-2.4c-2.1-1-6.1-2.7-7.3-3.2c-0.1,0-0.1,0-0.2,0c-0.2,0-0.3,0.1-0.4,0.3l-3.3,6
			c-0.1,0.2,0,0.5,0.2,0.7c1.1,0.6,3.8,2.2,6.2,3.9c1.1,0.7,3.7,2.7,6.1,4.7C76.4,35.4,76.5,35.4,76.6,35.4 M18.4,23.1
			c0.2,0,0.4-0.1,0.4-0.3c0.1-0.2,0-0.4-0.1-0.6l0,0c0,0-0.1-0.1-0.2-0.1C18.4,22,18.3,22,18.2,22c0,0,0,0-0.1,0
			c-0.1,0-0.3,0.1-0.4,0.2l-0.1,0.1c-0.1,0.1-0.1,0.4,0,0.5c0.1,0.2,0.3,0.3,0.5,0.3C18.2,23.1,18.2,23.1,18.4,23.1
			C18.3,23.1,18.3,23.1,18.4,23.1 M15.8,23.8c0.1,0,0.2,0,0.3-0.1l0,0l0,0c0.2-0.1,0.2-0.3,0.2-0.5c0-0.2-0.2-0.4-0.5-0.4
			c0,0-0.1,0-0.1,0c-0.2,0-0.4,0.1-0.4,0.3L15.3,23c-0.1,0.2-0.1,0.5,0.1,0.6C15.5,23.7,15.7,23.8,15.8,23.8 M31.9,50.2
			c0.1,0,0.2,0,0.3-0.1c0.4-0.3,1-0.5,1.5-0.5h0.9c0.1,0,0.2,0,0.3-0.1l2-1.7c0.6-0.5,0.8-1.1,0.7-1.9c-0.1-0.5-0.5-1.1-1-1.7
			L21.4,25.3c-0.8-0.9-2.2-1.6-3.4-1.6c-0.6,0-1.1,0.1-1.5,0.4c0,0-0.1,0-0.1,0.1l-2.6,2.2c0,0,0,0,0,0c-1,1.2-0.6,3.8,0.5,5.1
			l16.4,17.7c0.3,0.4,0.6,0.7,1,0.9C31.7,50.2,31.8,50.2,31.9,50.2 M13.8,25.5c0.1,0,0.2,0,0.3-0.1l0.6-0.5c0.2-0.1,0.2-0.4,0.1-0.6
			c-0.1-0.2-0.3-0.3-0.5-0.3c0,0-0.1,0-0.1,0L13.8,24c-0.2,0-0.4,0.2-0.4,0.4l-0.1,0.5c-0.1,0.2,0,0.4,0.2,0.5
			C13.6,25.4,13.7,25.5,13.8,25.5 M36.3,26.6c-0.1,0-0.2,0-0.3,0c-0.2,0-0.4,0-0.6-0.1c0,0-0.1,0-0.1,0c-0.2,0-0.4,0.1-0.5,0.3
			c-0.1,0.2,0,0.5,0.2,0.6c0.9,0.5,1.9,0.7,3,0.7c1.9,0,3.6-0.7,4.3-1.8c0.1-0.1,0.1-0.3,0.1-0.5c-0.1-0.2-0.2-0.3-0.4-0.3
			c-0.4-0.1-0.7-0.3-0.9-0.6c0-0.1-0.1-0.1-0.2-0.2c-0.2-0.1-0.4-0.1-0.5-0.1c0,0-0.1,0-0.1,0c-0.5,0.1-1.1,0.4-1.7,0.9
			C38.1,26.3,37.3,26.6,36.3,26.6 M44.8,25.6c-0.2,0-0.3,0.1-0.4,0.3c-0.1,0.2-0.1,0.4,0,0.5c0.8,1.1,2.5,1.8,4.3,1.8
			c1.2,0,2.3-0.3,3.2-0.8c0.2-0.1,0.3-0.4,0.2-0.6c-0.1-0.2-0.3-0.3-0.5-0.3c0,0-0.1,0-0.1,0c-0.3,0.1-0.6,0.1-0.9,0.1
			c-0.1,0-0.2,0-0.3,0c-1,0-1.8-0.3-2.6-1c-0.6-0.5-1.1-0.8-1.6-0.9c0,0-0.1,0-0.1,0c0,0-0.1,0-0.1,0c-0.2,0-0.3,0.1-0.4,0.2
			c-0.2,0.3-0.4,0.5-0.7,0.6C44.9,25.6,44.8,25.6,44.8,25.6 M42.8,37.4c-5.6,0-10.1-4.5-10.1-10.1v-0.4c0-0.1-0.1-0.3-0.2-0.4
			c-0.1-0.1-0.2-0.1-0.3-0.1c0,0,0,0-0.1,0c-1,0.2-3,0.5-5.2,1.5c-0.2,0.1-0.4,0.3-0.3,0.6l0.4,1.6c0,0.1,0.1,0.2,0.2,0.3l1.6,1
			l0.6,1.7c0,0.1,0.1,0.2,0.2,0.3l1.6,0.8l0.1,1.2c0,0.2,0.1,0.3,0.3,0.4l1.3,0.6l0.2,1.2c0,0.2,0.1,0.3,0.3,0.4l1.7,0.9l0,1
			c0,0.2,0.1,0.4,0.3,0.5l1.3,0.6l0.1,1.2c0,0.2,0.1,0.3,0.3,0.4l1.3,0.5l0.3,1.7c0,0.1,0.1,0.2,0.1,0.2c0.6,0.7,1.6,2.1,2.2,3.6
			c0.5,1.2,0.7,2.1,0.6,2.8c0,0.1,0,0.3,0.1,0.4c0.1,0.1,0.2,0.2,0.4,0.2c0,0,0,0,0,0l0.2,0c0.1,0,0.3-0.1,0.4-0.2
			c0.5-0.6,1.7-2.1,2-4.4l0-0.4c0.2-1.8,0.3-2.6,0.9-3c0.2-0.2,0.5-0.2,0.8-0.2c0.3,0,0.8,0.1,1.3,0.2c0.1,0,0.5,0.1,0.6,1.2
			c0,0.2,0.2,0.4,0.4,0.5c0,0,0.1,0,0.1,0c0.2,0,0.3-0.1,0.4-0.3l3.5-6.1l6-11.8c0.1-0.1,0.1-0.3,0-0.4c-0.1-0.1-0.2-0.2-0.3-0.3
			c-1.6-0.5-3-0.8-3.9-1c0,0-0.1,0-0.1,0c-0.1,0-0.2,0-0.3,0.1c-0.1,0.1-0.2,0.2-0.2,0.4v1.1c0,5.6-4.5,10.1-10.1,10.1H42.8
			 M78.7,37.5c0.5,0.4,0.7,0.4,0.8,0.4c0,0,0,0,0,0c0.1,0,0.2,0,0.3-0.1c0.1-0.1,0.2-0.2,0.5-0.8l4.5-8.8c0.1-0.1,0.1-0.2,0.2-0.4
			c0.1-0.1,0.2-0.4,0.3-0.5c0.1-0.1,0-0.3,0-0.4c-0.1-0.1-0.2-0.2-0.3-0.3c-0.1,0-0.2-0.1-0.5-0.1L83,25.8c-0.1,0-0.2-0.1-0.2-0.1
			c-0.1,0-0.1,0-0.2,0c-0.1,0-0.2,0.1-0.3,0.2l-5.1,10c-0.1,0.2,0,0.5,0.2,0.7L78.7,37.5 M38.2,28.9c-1.5,0-2.9-0.4-3.9-1.2
			c-0.1-0.1-0.2-0.1-0.3-0.1c-0.1,0-0.2,0-0.2,0.1c-0.2,0.1-0.3,0.3-0.3,0.5c0.4,4.8,4.6,8.6,9.4,8.6h1.2c4.9,0,8.9-3.7,9.4-8.5
			c0-0.2-0.1-0.4-0.2-0.5c-0.1,0-0.2-0.1-0.2-0.1c-0.1,0-0.2,0-0.3,0.1c-1,0.7-2.4,1.1-3.9,1.1c-2.1,0-4-0.8-4.9-2.1
			c-0.1-0.1-0.2-0.2-0.4-0.2s-0.3,0.1-0.4,0.2C42.2,28.1,40.3,28.9,38.2,28.9 M52.6,48.6c0.1,0,0.2,0,0.2-0.1
			c0.4-0.2,0.9-0.4,1.5-0.6c1.8-0.6,3.5-1.3,3.3-4l0.7,0c0.2,3.3-2,4.1-3.8,4.7c-0.7,0.3-1.4,0.5-1.8,0.9c-0.1,0.1-0.2,0.3-0.2,0.5
			c0.4,1.9,0.8,4.7,0,6.6c-0.1,0.2,0,0.3,0.1,0.5c0.1,0.1,0.2,0.2,0.4,0.2c0,0,0,0,0,0c5.5-0.5,9.8-1.4,13.4-2.8
			c0.1-0.1,0.2-0.2,0.3-0.3c6.3-15.9-0.6-22.9-3.8-25.2c-0.1-0.1-0.2-0.1-0.3-0.1c0,0-0.1,0-0.1,0c-0.1,0-0.3,0.1-0.3,0.2l-6.4,11.7
			l-3.7,7C52,47.9,52,48,52,48.1l0,0.1c0,0,0,0,0,0c0,0.1,0.2,0.3,0.3,0.3C52.4,48.6,52.5,48.6,52.6,48.6 M3.8,53.8
			c0.1,0,0.2,0,0.3-0.1c0,0,0.1-0.1,0.1-0.2l12.3-15.9c0.1-0.1,0.1-0.3,0.1-0.4l-0.4-1.5c0-0.2-0.2-0.3-0.3-0.3l-1.1-0.4
			c-0.1,0-0.1,0-0.2,0c-0.2,0-0.3,0.1-0.4,0.2L1.5,51.4c-0.1,0.1-0.1,0.1-0.1,0.2c-0.1,0.2,0,0.5,0.1,0.6l1.9,1.4
			C3.5,53.7,3.6,53.8,3.8,53.8 M76.5,47.4C76.5,47.4,76.6,47.5,76.5,47.4c0,0.1,0,0.1,0.1,0.1l5.3,9.6c0,0.1,0.1,0.1,0.2,0.2
			c0.1,0,0.1,0.1,0.1,0.2c0,0.1,0,0.1,0.1,0.2l0.3,0.6c0,0.1,0.1,0.1,0.1,0.2c0.1,0.1,0.2,0.2,0.4,0.2c0.1,0,0.2,0,0.2-0.1l2.1-1.1
			c0.2-0.1,0.3-0.4,0.2-0.6c0-0.1-0.1-0.1-0.1-0.2L74.8,37.2c0-0.1-0.1-0.1-0.1-0.2c-0.1-0.1-0.2-0.2-0.4-0.2c-0.1,0-0.2,0-0.2,0.1
			L72,38.1c-0.2,0.1-0.3,0.4-0.2,0.6c0,0.1,0.1,0.1,0.1,0.2L76.5,47.4C76.5,47.4,76.5,47.4,76.5,47.4 M30.8,56c0.1,0,0.2,0,0.3-0.1
			c0.1-0.1,0.2-0.2,0.2-0.4V52c0-0.1,0-0.2,0-0.3c0-0.3-0.1-0.5-0.4-0.5L29.5,51l-0.2-1.2c0-0.2-0.2-0.4-0.5-0.4l-0.9,0L27.7,48
			c0-0.2-0.3-0.4-0.5-0.4c0,0,0,0-0.1,0L26,47.8L26,46.4c0-0.1-0.1-0.3-0.2-0.4c-0.1-0.1-0.2-0.1-0.3-0.1c0,0,0,0,0,0L24.7,46
			l-0.1-1.3c0-0.2-0.2-0.4-0.5-0.5l-1-0.1l-0.1-1.3c0-0.2-0.1-0.3-0.3-0.4l-1.3-0.6l-0.6-1.2c-0.1-0.1-0.2-0.2-0.3-0.3l-1.6-0.4
			l-0.4-2c0-0.2-0.2-0.3-0.4-0.4l-0.1,0c0,0-0.1,0-0.1,0c-0.2,0-0.3,0.1-0.4,0.2c-0.1,0.1-0.2,0.2-0.2,0.3
			c-0.4,1.7-0.6,9.8,2.9,13.2c0,0,0.1,0.1,0.1,0.1c0,0.1,0.1,0.2,0.2,0.3c3,1.8,6.4,3.2,10.2,4.2C30.7,56,30.7,56,30.8,56
			 M17.3,49.5c0.1,0,0.2,0,0.3-0.1c0.2-0.1,0.3-0.4,0.2-0.6c-1.1-2.8-1.4-6.2-1.4-8.5c0-0.2-0.1-0.4-0.3-0.5c-0.1,0-0.1,0-0.2,0
			c-0.2,0-0.3,0.1-0.4,0.2l-3,3.9c-0.1,0.2-0.1,0.4,0,0.6c1.2,1.8,2.7,3.5,4.5,5C17.1,49.4,17.2,49.5,17.3,49.5 M43.6,57.6
			c0.2,0,0.5,0,0.7,0c1.4,0,2.8-0.1,4.1-0.1c0.2,0,0.3-0.1,0.4-0.2c0-0.1,0.1-0.1,0.2-0.1c0.3-0.1,0.6-0.1,1-0.1
			c0.2,0,0.4-0.1,0.5-0.3c0.1-0.2,0-0.4-0.1-0.6c-0.1-0.1-0.1-0.3-0.1-0.4c0.1-0.1,0.2-0.1,0.3-0.1c0,0,0.1,0,0.1,0
			c0.1,0,0.1,0,0.2,0c0,0,0.1,0,0.1,0l0,0c0.1,0,0.2,0,0.4,0c0.1,0,0.1,0,0.2,0c0.1,0,0.2-0.1,0.3-0.1c0,0,0.1,0,0.1-0.1
			c0.2-0.1,0.3-0.4,0.3-0.6c-0.1-0.2-0.3-0.4-0.5-0.4c0,0,0,0-0.1,0c-0.2,0-0.4,0-0.5,0c-0.3,0-0.5,0-0.6-0.1
			c-0.2-0.1-0.2-0.3-0.1-0.5c0.1-0.1,0.2-0.2,0.3-0.2c0,0,0.1,0,0.1,0c0.1,0,0.1,0,0.2,0c0,0,0.1,0,0.1,0c0.1,0,0.3,0,0.7-0.1
			c0.1,0,0.2,0,0.3,0c0.2,0,0.4-0.3,0.4-0.5c0-0.1,0-0.2,0-0.3c0-0.1-0.1-0.3-0.2-0.4c-0.1-0.1-0.2-0.1-0.3-0.1c0,0-0.1,0-0.1,0
			c0,0-0.1,0-0.1,0c-0.3,0-0.5,0.1-0.8,0.1c-0.3,0-0.5-0.1-0.6-0.1c-0.2-0.1-0.2-0.3-0.1-0.5c0.1-0.1,0.2-0.1,0.3-0.2c0,0,0,0,0,0
			c0,0,0,0,0,0c0,0,0.1,0,0.1,0c0.1,0,0.1,0,0.2,0c0,0,0.1,0,0.1,0c0.1,0,0.3,0,0.7-0.1c0.1,0,0.1,0,0.2,0c0.3-0.1,0.4-0.4,0.4-0.6
			c0-0.1-0.1-0.3-0.2-0.3c-0.1-0.1-0.2-0.1-0.3-0.1c0,0-0.1,0-0.1,0c0,0-0.1,0-0.2,0c-0.3,0-0.6,0.1-0.8,0.1c0,0,0,0-0.1,0
			c0,0-0.1,0-0.1,0c-0.2,0-0.3,0-0.4-0.1c-0.1,0-0.1-0.1-0.1-0.2c0-0.1,0-0.2,0-0.2c0.1-0.1,0.2-0.2,0.3-0.2c0,0,0.1,0,0.1,0
			c0.1,0,0.1,0,0.2,0c0,0,0.1,0,0.1,0c0.1,0,0.3,0,0.7-0.1c0,0,0.1,0,0.1,0c0.1,0,0.3-0.1,0.3-0.2c0.1-0.1,0.1-0.3,0.1-0.4
			c-0.1-0.2-0.1-0.4-0.2-0.6c-0.1-0.2-0.2-0.4-0.4-0.4l-3.2-0.2l-0.3-0.1l-0.1-0.3c0.3-1.4,0.3-2.5,0.3-3c0-0.2-0.2-0.4-0.4-0.4
			c-0.4-0.1-0.7-0.1-0.9-0.1c-0.2,0-0.3,0-0.4,0.1c0,0-0.1,0-0.1,0.1c-0.3,0.2-0.4,0.7-0.5,2.4l0,0.4c-0.3,2.6-1.7,4.3-2.3,4.9
			c-0.2,0.2-0.4,0.3-0.6,0.3l-2.8,0.1c-0.3,0-0.5,0.2-0.5,0.5v4c0,0.3,0.2,0.5,0.5,0.5C41,57.5,42.3,57.6,43.6,57.6 M6.9,56.3
			c0.1,0.1,0.3,0.1,0.5,0.1c0.1,0,0.1,0,0.2,0c0.1,0,0.2,0.1,0.3,0.1c0.2,0.2,0.1,0.6,0,1.1l0,0.2c0,0.1,0,0.3,0.1,0.4
			c0.1,0.1,0.2,0.2,0.4,0.2c0.4,0,0.7,0.1,0.9,0.4c0.2,0.3,0.2,0.7,0.1,1.1l0,0.2c0,0.1,0,0.3,0.1,0.4c0.1,0.1,0.2,0.2,0.3,0.2
			l0.2,0c0.4,0,0.8,0.1,1.1,0.3c0.3,0.3,0.3,0.7,0.3,1.1c0,0.1,0,0.3,0,0.4c0,0.2,0.2,0.4,0.5,0.4c0,0,0,0,0,0c0,0,0.1,0,0.1,0
			l0.2,0c0.4,0,0.9,0,1.1,0.2c0.3,0.3,0.3,0.6,0.3,1.1c0,0,0,0.1,0,0.1c0,0.1,0,0.3,0.1,0.4c0.1,0.1,0.2,0.2,0.4,0.2c0,0,0,0,0,0
			c0.1,0,0.3,0,0.4,0c0.1,0,0.3,0,0.4,0c0.4,0,0.6,0.1,0.8,0.2c0.3,0.2,0.3,0.5,0.4,0.8c0,0.3,0.2,0.5,0.5,0.5c0,0,0,0,0,0l0.1,0
			l0.1,0c0.1,0,0.2,0,0.3,0c0.3,0,0.6,0,0.8,0.1c0.3,0.2,0.5,0.5,0.6,0.9c0.1,0.3,0.2,0.4,0.3,0.5c0.1,0.1,0.2,0.2,0.4,0.2
			c0,0,0,0,0,0c0,0,0.1,0,0.1,0c0.1,0,0.2,0,0.3,0c0.2,0,0.3,0,0.5,0c0.3,0,0.5,0,0.7,0.1c0.3,0.2,0.5,0.5,0.7,0.9
			c0,0.1,0.1,0.2,0.2,0.3c0.1,0.2,0.3,0.3,0.4,0.3c0,0,0,0,0.1,0c0.1,0,0.4-0.1,0.5-0.1c0.3-0.1,0.5-0.1,0.8-0.1
			c0.2,0,0.3,0,0.4,0.1c0.3,0.1,0.5,0.5,0.7,0.8c0,0.1,0.1,0.2,0.2,0.3c0.1,0.1,0.2,0.2,0.4,0.2c0,0,0,0,0,0c0.2,0,0.4,0,0.6-0.1
			c0.3-0.1,0.5-0.1,0.8-0.1c0.2,0,0.3,0,0.4,0.1c0.4,0.1,0.5,0.4,0.7,0.7c0,0.1,0.1,0.2,0.2,0.3c0.1,0.1,0.2,0.2,0.4,0.2
			c0,0,0,0,0,0c0.2,0,0.4-0.1,0.6-0.1c0.3-0.1,0.6-0.1,0.8-0.1c0.1,0,0.2,0,0.3,0c0.4,0.1,0.6,0.4,0.7,0.7l0.1,0.1
			c0.1,0.2,0.3,0.2,0.4,0.2c0.1,0,0.1,0,0.2-0.1c0.1,0,0.1-0.1,0.2-0.1c0.3-0.2,0.6-0.3,1-0.3c0.1,0,0.1,0,0.2,0
			c0.4,0.1,0.7,0.5,0.9,0.9c0.1,0.1,0.2,0.3,0.3,0.4c0.1,0.1,0.2,0.2,0.4,0.2c0.1,0,0.2,0,0.2-0.1c0,0,0.1,0,0.1-0.1l0.2-0.1
			c0.3-0.2,0.6-0.3,0.9-0.3c0.1,0,0.1,0,0.2,0c0.4,0.1,0.6,0.4,0.8,0.8l0.1,0.1c0.1,0.2,0.3,0.2,0.4,0.2c0.1,0,0.2,0,0.2-0.1
			c0.1,0,0.2-0.1,0.3-0.2c0.4-0.2,0.7-0.4,1.1-0.4c0,0,0.1,0,0.1,0c0.3,0,0.5,0.2,0.7,0.5c0.1,0.2,0.3,0.2,0.4,0.2
			c0.1,0,0.2,0,0.2-0.1c0.1,0,0.2-0.1,0.3-0.1c0.3-0.2,0.7-0.4,0.9-0.4v-0.5l0.1,0.5c0.4,0,0.7,0.2,0.9,0.5c0.3,0.2,0.4,0.3,0.5,0.3
			c0,0,0.1,0,0.1,0c0.1,0,0.2,0,0.3-0.1c0.1,0,0.2-0.2,0.3-0.2c0.3-0.2,0.7-0.4,1-0.5c0,0,0.1,0,0.1,0c0.3,0,0.7,0.2,0.9,0.4
			c0.2,0.1,0.3,0.2,0.4,0.3c0.1,0,0.2,0.1,0.2,0.1c0.1,0,0.2,0,0.3-0.1c0.1-0.1,0.3-0.2,0.4-0.3c0.3-0.3,0.6-0.6,1-0.6
			c0,0,0,0,0.1,0c0.3,0,0.6,0.2,0.9,0.3c0.3,0.2,0.4,0.2,0.5,0.2c0,0,0.1,0,0.1,0c0.1,0,0.2,0,0.3-0.1c0,0,0.1-0.1,0.1-0.1
			c0.1-0.1,0.2-0.2,0.3-0.2c0.3-0.3,0.6-0.5,1-0.6c0.1,0,0.1,0,0.1,0c0.3,0,0.6,0.2,0.9,0.3c0.2,0.1,0.3,0.2,0.5,0.2
			c0,0,0.1,0,0.1,0c0.2,0,0.3-0.1,0.4-0.2c0,0,0,0,0-0.1c0.1-0.1,0.2-0.2,0.2-0.2c0.3-0.3,0.6-0.6,1-0.6c0.1,0,0.1,0,0.2,0
			c0.3,0,0.6,0.2,0.8,0.3l0.1,0.1c0.1,0,0.2,0.1,0.2,0.1c0.1,0,0.1,0,0.1,0c0.1,0,0.2-0.1,0.3-0.3l0-0.1c0.2-0.3,0.4-0.7,0.8-0.9
			c0.1,0,0.2,0,0.3,0c0.3,0,0.6,0.1,0.9,0.3c0.1,0,0.2,0.1,0.3,0.1c0.1,0,0.1,0,0.2,0c0.2,0,0.3-0.1,0.4-0.2l0.1-0.2
			c0.2-0.3,0.4-0.6,0.7-0.7c0.1,0,0.2,0,0.4,0c0.3,0,0.5,0.1,0.8,0.1c0.2,0,0.4,0.1,0.6,0.1c0,0,0,0,0,0c0.2,0,0.3-0.1,0.4-0.2
			c0.1-0.1,0.1-0.2,0.2-0.3c0.2-0.3,0.4-0.6,0.7-0.7c0.1-0.1,0.3-0.1,0.5-0.1c0.2,0,0.5,0,0.8,0.1c0.2,0,0.4,0.1,0.6,0.1
			c0,0,0.1,0,0.2,0c0.2,0,0.4-0.2,0.4-0.4c0,0,0-0.1,0.1-0.1c0.2-0.3,0.3-0.6,0.7-0.8c0.1-0.1,0.3-0.1,0.5-0.1
			c0.2,0,0.5,0.1,0.7,0.1c0.1,0,0.3,0.1,0.5,0.1c0,0,0,0,0.1,0c0.2,0,0.4-0.1,0.4-0.3c0.1-0.1,0.1-0.3,0.2-0.4
			c0.1-0.3,0.3-0.7,0.6-0.9c0.2-0.1,0.4-0.1,0.7-0.1c0.1,0,0.3,0,0.4,0c0.1,0,0.3,0,0.4,0c0.1,0,0.2,0,0.3,0
			c0.2-0.1,0.4-0.2,0.4-0.5c0,0,0-0.1,0.1-0.2c0.1-0.3,0.3-0.7,0.6-0.9c0.2-0.2,0.6-0.2,1-0.2l0.1,0l0.1,0c0.3,0,0.5-0.2,0.5-0.5
			c0-0.3,0.1-0.6,0.4-0.8c0.2-0.2,0.6-0.2,0.9-0.2c0.1,0,0.2,0,0.3,0c0.1,0,0.2,0,0.3,0l0.1,0c0,0,0,0,0,0c0.1,0,0.3-0.1,0.4-0.2
			c0.1-0.1,0.1-0.2,0.1-0.4l0-0.1c0-0.4,0-0.8,0.3-1.1c0.3-0.2,0.7-0.3,1.1-0.3c0.1,0,0.2,0,0.3,0c0.2,0,0.4-0.2,0.5-0.5
			c0-0.1,0-0.3,0-0.4c0-0.5,0-0.9,0.3-1.2c0.3-0.3,0.8-0.3,1.3-0.3c0.1,0,0.2,0,0.3,0c0.2,0,0.4-0.2,0.4-0.3c0-0.1,0.1-0.3,0.1-0.5
			l0-0.1c0.1-0.2,0.1-0.4,0.2-0.6c0.1-0.1,0-0.3,0-0.4l-4.8-8.7c-0.1-0.1-0.2-0.2-0.4-0.3c0,0,0,0-0.1,0c-0.1,0-0.3,0.1-0.4,0.2
			c-5.8,6.6-14.6,9.3-31.4,9.5c-0.2,0-0.5,0-0.7,0c-13.7,0-25.7-5-31.3-13C12.2,45.1,12,45,11.9,45c0,0,0,0,0,0
			c-0.2,0-0.3,0.1-0.4,0.2L6,52.3c-0.1,0.1-0.1,0.4-0.1,0.5c0.1,0.5,0.3,1,0.6,1.5c0.1,0.2,0.1,0.5,0.1,0.8c0,0.5,0,0.8,0.2,1
			C6.8,56.2,6.8,56.3,6.9,56.3 M39.7,51.8C39.7,51.8,39.8,51.8,39.7,51.8l0.8,0c0.2,0,0.4-0.1,0.4-0.3c0.3-0.6,0.1-1.6-0.5-2.9
			c-0.4-0.9-0.9-1.7-1.2-2.2c-0.1-0.1-0.3-0.2-0.4-0.2c0,0-0.1,0-0.1,0c-0.2,0-0.4,0.2-0.4,0.4c-0.1,0.6-0.4,1.1-0.9,1.6l-0.5,0.5
			c-0.2,0.1-0.2,0.3-0.2,0.5c0.1,0.2,0.2,0.3,0.4,0.3c1,0.1,1.9,0.9,2.1,1.9C39.3,51.7,39.5,51.8,39.7,51.8 M38.2,57.3
			c0.1,0,0.2,0,0.3-0.1c0.1-0.1,0.2-0.2,0.2-0.4V52c0-1-0.8-1.8-1.8-1.8h-3.1c-1,0-1.8,0.8-1.8,1.8l0,3.8c0,0.3,0.1,0.5,0.4,0.5
			C34.2,56.8,36.1,57.1,38.2,57.3C38.1,57.3,38.2,57.3,38.2,57.3 M44.1,0.5h-1.2c-5.7,0-10.4,4.5-10.6,10.2
			c-1.1,0.3-1.8,1.3-1.8,2.5v3.2c0,1.1,0.7,2.1,1.8,2.5v6.5c-1.1,0.1-4,0.6-6.9,2l-0.1,0l-0.4-2.1L23,24.7l-0.3-1.9l-0.2-0.2
			C22,22,21.3,22,20.7,21.9c-0.3,0-0.6-0.1-0.8-0.2c-0.1,0-0.2-0.2-0.4-0.3c-0.3-0.3-0.7-0.7-1.4-0.7c0,0,0,0-0.1,0
			c-0.6,0-0.9,0.4-1.2,0.8c0,0-0.1,0.1-0.1,0.1c-0.1,0-0.2,0-0.3-0.1c-0.3-0.1-0.5-0.1-0.8-0.1c-0.2,0-0.5,0-0.7,0.2l-0.2,0.1
			l-0.5,1L12.6,23L12.1,25c0,0-0.1,0-0.1,0.1c-0.4,0.2-1.1,0.6-1.3,1.4c-0.1,0.5,0.2,1,0.4,1.3c-0.3,0.3-0.9,0.8-0.7,1.7
			c0.1,0.6,0.7,0.9,1.1,1.1c0,0,0.1,0,0.1,0.1c0,0.1,0,0.3,0,0.4c0,0.4-0.1,1,0.4,1.6l0.2,0.2l1.3,0.2l0.1,0.8l-13,16.9
			c-0.3,0.3-0.4,0.7-0.4,1.1c0,0.5,0.1,0.9,0.5,1.2l2.2,1.7C3.1,54.9,3.4,55,3.7,55c0.2,0,0.3,0,0.5-0.1c0.3-0.1,0.7-0.4,0.9-0.7
			c0.1,0.2,0.2,0.4,0.2,0.6c0,0.1,0,0.3,0,0.4c0,0.5,0,1.4,0.6,1.9c0.2,0.2,0.5,0.4,0.8,0.4c-0.1,0.5-0.2,1,0.1,1.4
			c0.4,0.5,0.9,0.6,1.4,0.6c0,0,0,0.1,0,0.1c-0.1,0.4-0.2,1,0.2,1.5c0.4,0.4,0.9,0.5,1.4,0.5c0.1,0,0.2,0,0.3,0c0,0.1,0,0.3,0,0.3
			c0,0.5,0.1,1.1,0.5,1.5c0.4,0.4,1,0.4,1.5,0.4c0.1,0,0.2,0,0.3,0c0,0,0,0.1,0,0.1c0,0.4-0.1,1.1,0.5,1.5c0.3,0.2,0.7,0.3,1.1,0.3
			c0.1,0,0.3,0,0.4,0c0.1,0,0.2,0,0.4,0c0,0.3,0.1,0.9,0.6,1.2c0.3,0.2,0.7,0.2,1,0.2c0.1,0,0.2,0,0.3,0c0.1,0,0.1,0,0.2,0
			c0.1,0,0.2,0,0.2,0c0,0.1,0.1,0.2,0.1,0.3c0.2,0.4,0.4,0.9,0.9,1.1c0.3,0.2,0.6,0.2,0.9,0.2c0.2,0,0.4,0,0.5,0c0.1,0,0.3,0,0.4,0
			c0,0,0.1,0,0.1,0c0,0.1,0.1,0.2,0.1,0.3c0.2,0.4,0.4,0.9,0.9,1.2c0.2,0.1,0.4,0.1,0.6,0.1c0.3,0,0.6-0.1,0.9-0.1
			c0.1,0,0.3-0.1,0.4-0.1c0,0.1,0.1,0.2,0.2,0.3c0.2,0.3,0.5,0.8,1,1c0.2,0.1,0.4,0.1,0.6,0.1c0.3,0,0.6-0.1,0.9-0.1
			c0.2,0,0.5-0.1,0.5-0.1c0,0,0.1,0.2,0.2,0.3c0.2,0.3,0.5,0.8,1,1c0.2,0.1,0.3,0.1,0.5,0.1c0.3,0,0.6-0.1,0.9-0.2
			c0.1,0,0.4-0.1,0.5-0.1c0,0.1,0.1,0.2,0.1,0.2c0.2,0.3,0.5,0.8,1.1,1c0.1,0,0.2,0,0.3,0c0.4,0,0.8-0.2,1.1-0.4
			c0.1-0.1,0.3-0.1,0.3-0.2c0.1,0.1,0.2,0.3,0.2,0.4c0.3,0.4,0.6,1,1.2,1.1c0.1,0,0.2,0,0.3,0c0.4,0,0.8-0.2,1.2-0.4
			c0.1-0.1,0.2-0.1,0.3-0.1c0,0.1,0.1,0.1,0.1,0.1c0.2,0.4,0.5,0.9,1.2,1c0.1,0,0.1,0,0.2,0c0.5,0,0.9-0.3,1.3-0.5
			c0.1-0.1,0.3-0.2,0.3-0.2c0,0,0,0,0,0c0.2,0.3,0.5,0.7,1.2,0.8c0,0,0,0,0,0c0.4,0,0.8-0.2,1.2-0.4c0.1,0,0.2-0.1,0.4-0.2
			c0.1,0,0.2,0.1,0.3,0.2c0.3,0.3,0.8,0.6,1.3,0.6c0.5,0,1-0.3,1.3-0.5c0.1-0.1,0.4-0.2,0.4-0.3c0.1,0,0.3,0.2,0.4,0.2
			c0.3,0.2,0.8,0.6,1.4,0.6c0,0,0,0,0,0c0.6,0,1-0.4,1.3-0.7c0.1-0.1,0.3-0.2,0.4-0.3c0.1,0,0.2,0.1,0.3,0.2
			c0.3,0.2,0.7,0.4,1.2,0.4c0.1,0,0.1,0,0.2,0c0.5-0.1,0.9-0.4,1.3-0.7c0.1-0.1,0.4-0.3,0.4-0.3c0.1,0,0.2,0.1,0.3,0.2
			c0.3,0.2,0.7,0.4,1.1,0.4c0.1,0,0.2,0,0.3,0c0.5-0.1,0.9-0.4,1.2-0.8c0.1-0.1,0.3-0.2,0.4-0.3c0.1,0,0.2,0.1,0.2,0.1
			c0.3,0.2,0.7,0.4,1.1,0.4c0.1,0,0.2,0,0.3,0c0.6-0.1,0.9-0.7,1.1-1.1c0-0.1,0.1-0.2,0.1-0.2c0.1,0,0.3,0.1,0.4,0.1
			c0.3,0.1,0.7,0.3,1,0.3c0.1,0,0.2,0,0.3,0c0.6-0.2,0.9-0.7,1-1c0,0,0.1-0.1,0.1-0.2c0.1,0,0.4,0.1,0.5,0.1
			c0.3,0.1,0.6,0.1,0.9,0.1c0.2,0,0.4,0,0.5-0.1c0.5-0.2,0.8-0.7,1-1c0-0.1,0.1-0.2,0.1-0.2c0,0,0,0,0,0c0,0,0,0,0.1,0
			c0.1,0,0.4,0,0.5,0.1c0.3,0,0.5,0.1,0.8,0.1c0.2,0,0.4,0,0.7-0.1c0.5-0.2,0.8-0.7,1-1c0-0.1,0.1-0.2,0.1-0.3
			c0.1,0,0.3,0.1,0.5,0.1c0.3,0.1,0.5,0.1,0.8,0.1c0.2,0,0.5,0,0.7-0.1c0.5-0.3,0.8-0.8,0.9-1.2c0-0.1,0.1-0.2,0.1-0.3
			c0,0,0.1,0,0.1,0c0.1,0,0.3,0,0.4,0c0.1,0,0.3,0,0.5,0c0.3,0,0.7,0,1-0.2c0.5-0.3,0.7-0.8,0.9-1.2c0-0.1,0.1-0.2,0.1-0.3
			c0.1,0,0.3,0,0.4,0c0,0,0.1,0,0.1,0c0.4,0,0.9,0,1.2-0.2c0.5-0.3,0.6-0.9,0.6-1.2c0,0,0.1,0,0.1,0c0.1,0,0.2,0,0.3,0
			c0.1,0,0.2,0,0.3,0c0.5,0,0.9,0,1.2-0.3c0.6-0.4,0.5-1.1,0.5-1.5c0,0,0-0.1,0-0.1c0.1,0,0.2,0,0.3,0c0.5,0,1.1,0,1.5-0.4
			c0.5-0.5,0.5-1.1,0.5-1.6c0-0.1,0-0.2,0-0.4c0.1,0,0.3,0,0.4,0c0.4,0,1,0,1.4-0.4c0.2-0.2,0.3-0.4,0.4-0.6
			c0.2,0.2,0.4,0.3,0.6,0.3c0.1,0,0.3,0.1,0.4,0.1c0.2,0,0.4-0.1,0.6-0.2l2.5-1.4c0.7-0.4,0.9-1.4,0.4-2.3L75.8,36.7
			c-0.1-0.1-0.1-0.2-0.2-0.3c1.1,0.9,2,1.7,2.4,2.1c0.6,0.5,1.1,0.7,1.6,0.7c0.1,0,0.2,0,0.3,0c0.8-0.2,1.2-0.9,1.5-1.5l4.5-8.8
			c0-0.1,0.1-0.2,0.2-0.3c0.3-0.5,0.8-1.3,0.4-2.1c-0.4-0.7-1.2-0.9-1.8-1c-0.3-0.1-6.7-2.2-9.1-3.4c-2-1-5.6-2.5-7.2-3.2l0.2-0.4
			c0.2-0.3,0.2-0.7,0.1-1c-0.1-0.3-0.3-0.6-0.7-0.8l-2.1-1.1c-0.2-0.1-0.4-0.1-0.6-0.1c-0.1,0-0.3,0-0.4,0.1
			c-0.3,0.1-0.6,0.3-0.8,0.7l-4.9,9.5c-1.9-0.7-3.5-1-4.5-1.2v-5.7c1.1-0.3,1.8-1.3,1.8-2.5v-3.2c0-1.1-0.7-2.1-1.8-2.5
			C54.4,5,49.8,0.5,44.1,0.5L44.1,0.5z M33.9,10.5c0.3-4.7,4.2-8.4,8.9-8.4h1.2c4.7,0,8.6,3.7,8.9,8.4H33.9L33.9,10.5z M52.5,17.3
			v-5.1H53v5.1H52.5L52.5,17.3z M50.2,17.3v-5.1h0.7v5.1H50.2L50.2,17.3z M47.8,17.3v-5.1h0.7v5.1H47.8L47.8,17.3z M45.5,17.3v-5.1
			h0.7v5.1H45.5L45.5,17.3z M43.1,17.3v-5.1h0.7v5.1H43.1L43.1,17.3z M40.8,17.3v-5.1h0.7v5.1H40.8L40.8,17.3z M38.4,17.3v-5.1h0.7
			v5.1H38.4L38.4,17.3z M36.1,17.3v-5.1h0.7v5.1H36.1L36.1,17.3z M33.9,17.3v-5.1h0.5v5.1H33.9L33.9,17.3z M32.3,16.8
			c-0.1-0.1-0.1-0.3-0.1-0.5v-3.2c0-0.2,0.1-0.3,0.1-0.5V16.8L32.3,16.8z M54.7,16.8v-4.2c0.1,0.1,0.1,0.3,0.1,0.5v3.2
			C54.8,16.5,54.8,16.7,54.7,16.8L54.7,16.8z M51,47.3l-1.4-0.1l4.2-7.4l11.5-22.5l1.5,0.8L54.8,40.2L51,47.3L51,47.3z M50.4,25.5
			c-0.7,0-1.2-0.2-1.8-0.8c-0.8-0.7-1.5-1-2.3-1.2c0,0,0,0,0,0v-4.6H53v5.6c-0.5,0.4-1.5,0.9-2.4,0.9C50.6,25.5,50.5,25.5,50.4,25.5
			L50.4,25.5z M42.5,24.5c-0.1,0-0.3-0.1-0.3-0.3v-5.3h2.4v5.3c0,0.1-0.1,0.3-0.3,0.3H42.5L42.5,24.5z M36.3,25.5
			c-0.1,0-0.1,0-0.2,0c-0.9-0.1-1.7-0.4-2.2-0.7v-5.8h6.7v4.6c-0.1,0-0.1,0-0.2,0c-0.8,0.1-1.5,0.5-2.3,1.2
			C37.5,25.2,37,25.5,36.3,25.5L36.3,25.5z M76.6,34.9c-2.3-2-5-4.1-6.1-4.8c-2.3-1.7-5-3.2-6.2-3.9l3.3-6c1.4,0.6,5.2,2.2,7.2,3.2
			c1.8,0.9,4.2,1.7,6.5,2.5L76.6,34.9L76.6,34.9z M18,22.6c0,0,0.1-0.1,0.1-0.1c0,0,0,0,0,0c0.1,0.1,0.1,0.1,0.2,0.1c0,0,0,0,0,0
			C18.3,22.6,18.2,22.6,18,22.6C18,22.6,18,22.6,18,22.6L18,22.6z M15.8,23.3l0.1-0.1c0,0,0.1,0,0.1,0
			C15.9,23.2,15.9,23.2,15.8,23.3L15.8,23.3L15.8,23.3z M31.9,49.7c-0.3-0.2-0.6-0.5-0.9-0.8L14.7,31.2c-1-1.1-1.4-3.4-0.5-4.4
			l2.6-2.2c0.4-0.2,0.8-0.3,1.3-0.3c1.1,0,2.4,0.6,3.1,1.4l15.2,18.8c0.5,0.5,0.8,1.1,0.9,1.5c0.1,0.5,0,1-0.5,1.4l-2,1.7h-0.9
			C33.1,49.1,32.5,49.3,31.9,49.7L31.9,49.7z M13.8,25l0.1-0.5l0.5-0.1L13.8,25L13.8,25z M36.3,27.1c1.1,0,2-0.4,2.9-1.2
			c0.5-0.5,1-0.7,1.4-0.8c0,0,0,0,0,0c0.1,0,0.2,0,0.3,0.1c0.3,0.4,0.7,0.7,1.2,0.8c-0.6,0.9-2.2,1.6-3.9,1.6c-1,0-2-0.2-2.8-0.7
			c0.2,0,0.4,0.1,0.6,0.1C36.1,27.1,36.2,27.1,36.3,27.1L36.3,27.1z M48.8,27.7c-1.7,0-3.2-0.6-3.9-1.6l0.3,0V26
			c0.4-0.2,0.7-0.4,0.9-0.8c0,0,0,0,0,0c0,0,0,0,0,0c0.4,0.1,0.9,0.3,1.4,0.8c0.9,0.8,1.8,1.2,2.9,1.2c0.1,0,0.2,0,0.3,0
			c0.3,0,0.6-0.1,1-0.1C50.9,27.4,49.9,27.7,48.8,27.7L48.8,27.7z M42.8,37.9h1.2c5.8,0,10.6-4.7,10.6-10.6v-1.1
			c0.9,0.2,2.3,0.4,3.8,1l-6,11.8L49,45c0-1-0.4-1.5-0.9-1.7c-0.6-0.1-1-0.2-1.5-0.2c-0.4,0-0.8,0.1-1.1,0.3
			c-0.8,0.5-0.9,1.5-1.1,3.3l0,0.4c-0.3,2.2-1.4,3.6-1.9,4.1l-0.2,0c0.1-0.8-0.1-1.8-0.7-3.1c-0.6-1.4-1.6-2.9-2.3-3.7l-0.4-2
			l-1.5-0.6l-0.2-1.5l-1.6-0.7l0-1.3l-2-1l-0.2-1.4l-1.5-0.7l-0.1-1.5l-1.9-0.9L29.2,31l-1.7-1.1l-0.4-1.6c2.2-0.9,4.2-1.3,5.1-1.4
			v0.4C32.3,33.1,37,37.9,42.8,37.9L42.8,37.9z M79.6,37.4c0,0-0.2-0.1-0.6-0.3l-1.4-0.8l5.1-10l1.6,0.8c0.3,0,0.4,0.1,0.5,0.1
			c-0.1,0.2-0.2,0.4-0.3,0.5c-0.1,0.1-0.1,0.3-0.2,0.4l-4.5,8.8C79.8,37,79.6,37.4,79.6,37.4L79.6,37.4z M38.2,29.4
			c2.3,0,4.3-0.9,5.3-2.3c1,1.4,3,2.3,5.3,2.3c1.6,0,3.1-0.4,4.2-1.2c-0.4,4.5-4.2,8.1-8.9,8.1h-1.2c-4.6,0-8.5-3.6-8.9-8.1
			C35,28.9,36.6,29.4,38.2,29.4L38.2,29.4z M68.4,52.9C74,37,66.6,29.9,63.5,27.8c0,0,0-0.1,0.1-0.1c1.2,0.7,3.8,2.2,6,3.8
			c0.8,0.5,3.3,2.5,5.4,4.3c-0.2-0.1-0.5-0.2-0.7-0.2c-0.2,0-0.4,0.1-0.6,0.2l-2.5,1.4c-0.4,0.2-0.6,0.6-0.7,1.1
			c0,0.4,0.1,0.8,0.3,1.1l4.4,8.1C73.3,49.7,71.1,51.5,68.4,52.9L68.4,52.9z M52.6,48.1c0,0,0-0.1,0-0.1l3.7-7l6.4-11.7
			c2.9,2,9.8,8.9,3.6,24.6c-3.5,1.4-7.8,2.3-13.3,2.8c0.8-2,0.5-4.8,0-6.9c0.4-0.3,1-0.5,1.7-0.8c1.8-0.7,4.3-1.6,4.1-5.3l0-0.4
			l-1.7,0.1l0,0.4c0.1,2.5-1.2,3-3,3.6C53.5,47.6,53,47.8,52.6,48.1L52.6,48.1z M3.8,53.3l-1.9-1.4c0,0,0-0.1,0.1-0.1l12.6-16.4
			l1.1,0.4l0.4,1.5L3.8,53.3L3.8,53.3C3.8,53.2,3.8,53.3,3.8,53.3L3.8,53.3z M83.1,58.2c0,0,0-0.1-0.1-0.1l-0.3-0.6
			c0-0.2-0.1-0.4-0.2-0.5c0,0,0,0-0.1-0.1L77,47.3c0-0.1-0.1-0.2-0.1-0.2l-4.7-8.5c0,0,0-0.1,0-0.1l2.1-1.1c0,0,0,0.1,0.1,0.1
			l10.8,19.5c0,0,0,0.1,0,0.1L83.1,58.2L83.1,58.2z M30.8,55.5c-3.7-1-7.1-2.4-10-4.1c0-0.1-0.1-0.3-0.2-0.4
			c-3.3-3.3-3.1-11.2-2.7-12.8c0,0,0.1-0.1,0.1-0.1l0.1,0l0.4,2.3l1.9,0.4l0.7,1.4l1.5,0.6l0.1,1.7l1.4,0.1l0.1,1.8l1.3-0.1l0.1,1.9
			l1.6-0.2l0.3,1.7l1.3,0l0.3,1.5l1.7,0.3c0,0.1,0,0.2,0,0.3V55.5L30.8,55.5z M17.3,49c-1.8-1.5-3.2-3.1-4.4-4.8l3-3.9
			C15.9,42.7,16.2,46.2,17.3,49L17.3,49z M43.6,57.1c-1.2,0-2.5,0-3.8-0.1v-4l2.8-0.1c0.4,0,0.7-0.2,0.9-0.4
			c0.6-0.6,2.1-2.4,2.4-5.2l0-0.4c0.1-0.9,0.2-2,0.4-2.1c0,0,0.1,0,0.2,0c0.1,0,0.4,0,0.8,0.1c0,0.4,0,1.5-0.3,2.9l0,0.1l0.1,0.6
			l0.5,0.3l0.1,0l0,0.2l0.1-0.2l3.3,0.2c0,0.2,0.1,0.4,0.2,0.6c0,0,0,0-0.1,0c-0.5,0.1-0.7,0-0.7,0.1c-0.1,0-0.2-0.1-0.3-0.1
			c-0.3,0-0.6,0.1-0.7,0.4c-0.1,0.2-0.2,0.4-0.1,0.6c0,0.2,0.2,0.4,0.4,0.5c0.2,0.1,0.3,0.2,0.6,0.2c-0.3,0-0.5,0.2-0.6,0.4
			c-0.2,0.4-0.1,0.9,0.3,1.1c0.2,0.1,0.5,0.2,0.9,0.2c0.2,0,0.5,0,0.8-0.1c0.1,0,0.1,0,0.2,0c0,0.1,0,0.2,0,0.3c-0.1,0-0.1,0-0.2,0
			c-0.5,0.1-0.7,0-0.7,0.1c-0.1,0-0.2-0.1-0.3-0.1c-0.3,0-0.6,0.1-0.7,0.4c-0.2,0.4-0.1,0.9,0.3,1.1v0c0.2,0.1,0.5,0.2,0.9,0.2
			c0.2,0,0.4,0,0.6,0c-0.1,0-0.2,0.1-0.2,0.2c0,0-0.1,0-0.1,0c-0.3,0-0.4,0-0.4,0c-0.1,0-0.2-0.1-0.3-0.1c-0.3,0-0.5,0.1-0.7,0.4
			c-0.2,0.4-0.2,0.8,0.2,1.1c-0.4,0-0.8,0-1.2,0.2c-0.2,0.1-0.3,0.2-0.4,0.3c-1.3,0.1-2.7,0.1-4.1,0.1
			C44.1,57.1,43.8,57.1,43.6,57.1L43.6,57.1z M7.4,55.9c-0.2,0-0.3,0-0.3,0c-0.1-0.1-0.1-0.5-0.1-0.7c0-0.3,0-0.7-0.1-1
			c-0.2-0.5-0.4-0.9-0.5-1.4c0,0,0-0.1,0-0.1l5.5-7.2c5.8,8.2,17.9,13.2,31.8,13.2c0.2,0,0.5,0,0.7,0c16.8-0.2,25.8-3,31.8-9.7
			l4.8,8.7c-0.1,0.2-0.1,0.4-0.2,0.6h0c0,0.1-0.1,0.4-0.2,0.5c-0.1,0-0.2,0-0.3,0c-0.5,0-1.1,0-1.5,0.5c-0.5,0.4-0.5,1.1-0.5,1.6
			c0,0.1,0,0.2,0,0.4c-0.1,0-0.3,0-0.3,0c-0.5,0-1,0-1.4,0.4C76,62.2,76,62.8,76,63.2c0,0,0,0.1,0,0.1c-0.1,0-0.2,0-0.3,0
			c-0.1,0-0.2,0-0.3,0c-0.4,0-0.8,0-1.2,0.3c-0.5,0.3-0.5,0.9-0.6,1.2c-0.1,0-0.2,0-0.3,0c0,0,0,0,0,0c-0.5,0-0.9,0-1.3,0.2
			c-0.5,0.3-0.6,0.8-0.8,1.1c0,0.1-0.1,0.3-0.1,0.3c0,0-0.1,0-0.2,0c-0.1,0-0.3,0-0.4,0c-0.1,0-0.3,0-0.4,0c-0.3,0-0.6,0-0.9,0.2
			c-0.5,0.3-0.7,0.8-0.9,1.2c0,0.1-0.1,0.2-0.1,0.3c-0.1,0-0.3-0.1-0.4-0.1c-0.3-0.1-0.6-0.1-0.9-0.1c-0.2,0-0.4,0-0.7,0.1
			c-0.5,0.2-0.7,0.7-0.9,1c0,0.1-0.1,0.3-0.1,0.3c0,0,0,0,0,0c0,0,0,0-0.1,0c-0.1,0-0.4,0-0.5-0.1c-0.3,0-0.5-0.1-0.8-0.1
			c-0.2,0-0.4,0-0.6,0.1c-0.5,0.2-0.8,0.6-1,0.9c0,0.1-0.1,0.2-0.1,0.2c-0.1,0-0.4-0.1-0.5-0.1c-0.3-0.1-0.6-0.1-0.9-0.1
			c-0.2,0-0.3,0-0.5,0.1c-0.6,0.2-0.8,0.6-1,1c0,0-0.1,0.1-0.1,0.1c-0.1,0-0.2-0.1-0.3-0.1c-0.3-0.1-0.7-0.3-1.1-0.3
			c-0.1,0-0.3,0-0.4,0.1c-0.6,0.2-0.8,0.7-1,1.1c0,0,0,0.1,0,0.1c0,0-0.1,0-0.1-0.1c-0.3-0.2-0.6-0.4-1.1-0.4c-0.1,0-0.2,0-0.3,0
			c-0.5,0.1-0.9,0.5-1.2,0.8c-0.1,0.1-0.3,0.3-0.3,0.3c-0.1,0-0.3-0.1-0.3-0.2c-0.3-0.2-0.6-0.4-1.1-0.4c-0.1,0-0.2,0-0.2,0
			c-0.5,0.1-0.9,0.4-1.3,0.7c-0.1,0.1-0.4,0.3-0.3,0.3c0,0-0.1,0-0.4-0.2c-0.3-0.2-0.7-0.4-1.2-0.4c0,0-0.1,0-0.1,0
			c-0.6,0.1-1,0.4-1.3,0.7c-0.1,0.1-0.2,0.2-0.3,0.3c-0.1,0-0.2-0.1-0.4-0.2c-0.3-0.2-0.7-0.5-1.2-0.5c0,0,0,0-0.1,0
			c-0.5,0-0.9,0.3-1.3,0.5c-0.1,0.1-0.4,0.2-0.4,0.3c-0.1,0-0.2-0.2-0.4-0.2c-0.3-0.2-0.7-0.5-1.2-0.6c0,0,0,0-0.1,0
			c-0.4,0-0.8,0.2-1.2,0.4c-0.1,0.1-0.2,0.1-0.3,0.1c0,0,0,0,0,0c-0.2-0.3-0.5-0.7-1.1-0.8c0,0-0.1,0-0.1,0c-0.5,0-0.9,0.3-1.3,0.5
			c-0.1,0.1-0.2,0.1-0.3,0.2c0,0,0-0.1-0.1-0.1c-0.2-0.4-0.5-0.9-1.1-1c-0.1,0-0.2,0-0.3,0c-0.4,0-0.8,0.2-1.2,0.4
			c-0.1,0.1-0.2,0.1-0.3,0.2c-0.1-0.1-0.2-0.3-0.2-0.4c-0.3-0.4-0.6-1-1.2-1.1c-0.1,0-0.2,0-0.3,0c-0.5,0-0.9,0.2-1.2,0.4
			c-0.1,0-0.1,0.1-0.2,0.1c0,0-0.1-0.1-0.1-0.1c-0.2-0.3-0.5-0.8-1-1c-0.2,0-0.3-0.1-0.5-0.1c-0.3,0-0.7,0.1-1,0.2
			c-0.1,0-0.4,0.1-0.5,0.1c0-0.1-0.1-0.2-0.2-0.2c-0.2-0.3-0.5-0.7-1-0.9c-0.2-0.1-0.4-0.1-0.6-0.1c-0.3,0-0.6,0.1-0.9,0.1
			c-0.1,0-0.4,0.1-0.5,0.1c-0.1-0.1-0.1-0.2-0.2-0.3c-0.2-0.3-0.4-0.8-0.9-1c-0.2-0.1-0.4-0.1-0.6-0.1c-0.3,0-0.6,0.1-0.9,0.1
			c-0.1,0-0.3,0.1-0.4,0.1c-0.1-0.1-0.1-0.2-0.1-0.3c-0.2-0.4-0.4-0.9-0.9-1.1c-0.3-0.1-0.6-0.2-0.9-0.2c-0.2,0-0.4,0-0.5,0
			c-0.1,0-0.4,0-0.5,0.1c0,0-0.1-0.2-0.2-0.4c-0.1-0.3-0.3-0.8-0.8-1.1c-0.3-0.2-0.7-0.2-1-0.2c-0.1,0-0.2,0-0.3,0
			c-0.1,0-0.2,0-0.3,0c0-0.3-0.1-0.8-0.6-1.2c-0.3-0.2-0.7-0.3-1.1-0.3c-0.1,0-0.3,0-0.4,0c-0.1,0-0.2,0-0.3,0c0,0,0-0.1,0-0.1
			c0-0.4,0-1-0.5-1.5c-0.4-0.3-1-0.4-1.5-0.4c0,0-0.1,0-0.2,0c0,0-0.1,0-0.1,0c0-0.1,0-0.3,0-0.4c0-0.4-0.1-1-0.4-1.4
			c-0.4-0.4-0.9-0.5-1.4-0.5c-0.1,0-0.1,0-0.2,0c0,0,0-0.1,0-0.1c0.1-0.4,0.1-1-0.2-1.4c-0.3-0.5-0.9-0.5-1.3-0.6c0-0.1,0-0.1,0-0.2
			c0.1-0.6,0.2-1.1-0.2-1.5c-0.2-0.2-0.4-0.3-0.7-0.3c0,0-0.1,0-0.1,0C7.5,55.9,7.4,55.9,7.4,55.9L7.4,55.9z M39.7,51.3
			c-0.3-1.2-1.3-2.1-2.6-2.3l0.5-0.5c0.6-0.5,1-1.2,1.1-1.9c0.4,0.7,0.9,1.4,1.2,2.2c0.6,1.3,0.6,2.1,0.5,2.4L39.7,51.3L39.7,51.3z
			 M38.2,56.8c-2-0.2-3.9-0.5-5.7-0.9c0,0,0-0.1,0-0.1V52c0-0.7,0.6-1.3,1.3-1.3h3.1c0.7,0,1.3,0.6,1.3,1.3V56.8L38.2,56.8z
			 M50.7,51.3c-0.1,0-0.1,0-0.2-0.1c0.2,0,0.5,0,0.9-0.1c0.1,0,0.1,0,0.2,0c0,0,0,0,0,0.1c-0.1,0-0.1,0-0.2,0
			C50.9,51.3,50.7,51.3,50.7,51.3L50.7,51.3z"/>
	</g>
	<path class="st0" d="M16.3,26.7c-0.4,0.4-0.7,0.9-0.8,1.5c0,0.6,0.1,1.2,0.5,1.6c0.4,0.4,0.9,0.7,1.5,0.8h0c0.1,0,0.1,0,0.2,0
		c0.5,0,1-0.2,1.4-0.5c0.4-0.4,0.7-0.9,0.8-1.5s-0.1-1.2-0.5-1.6C18.7,26,17.3,25.9,16.3,26.7z M17.4,27.9L17.4,27.9
		c0.1-0.1,0.2-0.1,0.4-0.1c0.2,0,0.3,0.1,0.4,0.2c0.1,0.1,0.1,0.3,0.1,0.4c0,0.1-0.1,0.3-0.2,0.4c-0.1,0.1-0.3,0.1-0.4,0.1
		c-0.1,0-0.3-0.1-0.4-0.2c-0.1-0.1-0.1-0.3-0.1-0.4C17.3,28.1,17.3,28,17.4,27.9z"/>
	<path class="st1" d="M37.6,21.4c0.7,0.1,0.9,0.6,1.3,0.4c0.4-0.2,0.5-1.1,0.2-1.5c-0.7-0.8-3.5-0.3-4.1,1.2c0,0.1-0.2,0.5-0.1,0.7
		C35.1,22.4,36.2,21.1,37.6,21.4z"/>
	<path class="st1" d="M47.6,20.3c-0.4,0.4-0.2,1.3,0.2,1.5c0.3,0.2,0.6-0.3,1.3-0.4c1.3-0.2,2.4,1.1,2.7,0.8c0.2-0.2,0-0.6-0.1-0.7
		C51,20,48.2,19.5,47.6,20.3z"/>
</g>
</svg>
