<svg version="1.1" id="Layer_1" xmlns="http://www.w3.org/2000/svg" xmlns:xlink="http://www.w3.org/1999/xlink" x="0px" y="0px"
	 viewBox="0 0 44 58" style="enable-background:new 0 0 44 58;" xml:space="preserve">
<style type="text/css">
	.st0{fill:#8A6153;}
</style>
<g>
	<path class="st0" d="M25.4,31.6c-1.7,0-3.1,1.4-3.1,3.1s1.4,3.1,3.1,3.1s3.1-1.4,3.1-3.1S27.1,31.6,25.4,31.6z M25.4,36.2
		c-0.8,0-1.5-0.7-1.5-1.5s0.7-1.5,1.5-1.5s1.5,0.7,1.5,1.5S26.2,36.2,25.4,36.2z"/>
	<path class="st0" d="M37.7,11h-5c0.4-0.9,0.6-1.9,0.6-2.9c0-4.3-3.5-7.8-7.8-7.8s-7.8,3.5-7.8,7.8c0,0.6,0.1,1.1,0.2,1.6
		c-1.4-1.9-3.7-3.2-6.3-3.2c-3.5,0-6.5,2.3-7.4,5.5c-1.6,1.1-2.6,2.9-2.6,4.9v0.9c-0.8,1-1.3,2.3-1.3,3.8v30c0,3.3,2.7,6,6,6h30
		c3.3,0,6-2.7,6-6v-0.9c0.8-1,1.3-2.3,1.3-3.8V17C43.7,13.7,41,11,37.7,11z M25.5,2.4c3.2,0,5.8,2.6,5.8,5.8c0,1-0.3,2-0.8,2.9
		c-0.7,1.1-1.7,2-3,2.5c-0.6,0.2-1.3,0.4-2,0.4s-1.4-0.1-2-0.4c-1.2-0.5-2.3-1.4-3-2.5c-0.5-0.8-0.8-1.8-0.8-2.9
		C19.8,4.9,22.3,2.4,25.5,2.4z M19.9,13.5c1,1.1,2.3,1.8,3.8,2.2h-4.5c0.1-0.4,0.1-0.9,0.1-1.4c0-0.3,0-0.5,0-0.8
		c0-0.3-0.1-0.6-0.1-0.8C19.5,13,19.7,13.2,19.9,13.5z M5.9,13.9c0.1-1.1,0.4-2.1,1-2.9c1-1.5,2.8-2.5,4.7-2.5c1.9,0,3.7,1,4.7,2.5
		c0.5,0.7,0.9,1.6,1,2.5c0,0.3,0.1,0.5,0.1,0.8c0,0.5-0.1,0.9-0.2,1.4H12v-0.7c0.1,0,0.2,0,0.4,0c0.9,0,1.7-0.2,2.2-0.7
		c0.2-0.2,0.4-0.5,0.5-0.7c0.1-0.3,0.2-0.6,0.2-0.9c0-0.6-0.3-1.2-0.7-1.6c0,0-0.1,0-0.1-0.1c-0.4-0.3-1.1-0.5-1.9-0.5
		c-0.8,0-1.5,0-2,0.1c0,0-0.1,0-0.1,0.1V11v2.4H9.1c-0.1,0-0.3,0-0.4,0.1c-0.3,0.1-0.4,0.4-0.4,0.7c0,0.4,0.4,0.8,0.8,0.8h1.2v0.7
		h-4c-0.1,0-0.2,0-0.2,0c-0.1-0.4-0.2-0.9-0.2-1.4C5.9,14.2,5.9,14.1,5.9,13.9z M12,13.6v-0.1v-1.6c0.1,0,0.3,0,0.5,0
		c0.7,0,1,0.3,1,0.8c0,0.4-0.2,0.7-0.6,0.8c-0.2,0.1-0.4,0.1-0.6,0.1C12.2,13.6,12.1,13.6,12,13.6z M39.8,49.7v1.9
		c0,0.3-0.1,0.7-0.2,1c-0.4,1.5-1.8,2.5-3.4,2.5h-30c-1.9,0-3.5-1.6-3.5-3.5v-1.1V21.7c0-1.1,0.5-2.1,1.3-2.7c0.3-0.2,0.6-0.4,1-0.5
		c0.4-0.1,0.8-0.2,1.2-0.2h1.1h2.9H12h3.9h2.5h17.9c1.9,0,3.5,1.6,3.5,3.5v6.7c0,0,0,0,0,0H20.9c-1.7,0-3.1,1.4-3.1,3.1v6.8
		c0,1.7,1.4,3.1,3.1,3.1h18.9c0,0,0,0,0,0V49.7z M40.4,38.2c0,0.3-0.3,0.6-0.6,0.6c0,0,0,0,0,0H20.9c-0.3,0-0.6-0.3-0.6-0.6v-6.8
		c0-0.3,0.3-0.6,0.6-0.6h18.9c0,0,0,0,0,0c0.3,0,0.6,0.3,0.6,0.6V38.2z M41.2,18.1c-1.1-1.5-2.9-2.5-4.8-2.5h-9.1
		c1.5-0.3,2.8-1.1,3.8-2.2h6.6c1.9,0,3.5,1.6,3.5,3.5V18.1z"/>
	<path class="st0" d="M23,8.8h1.2v1.1h-1.3c-0.3,0-0.6,0.3-0.6,0.6c0,0.2,0.1,0.3,0.2,0.4c0.1,0.1,0.2,0.2,0.4,0.2h1.3v1.4
		c0,0.1,0,0.1,0.1,0.1h1.4c0.1,0,0.1,0,0.1-0.1v-1.4h1.4c0.2,0,0.3-0.1,0.4-0.2c0.1-0.1,0.2-0.3,0.2-0.4c0-0.3-0.3-0.6-0.6-0.6h-1.4
		V8.7c0.1,0,0.2,0,0.4,0c0.9,0,1.7-0.2,2.2-0.7c0.4-0.4,0.6-1,0.6-1.6c0-0.6-0.3-1.2-0.7-1.6c-0.5-0.4-1.1-0.5-2-0.5
		c-0.8,0-1.5,0-2,0.1c0,0-0.1,0-0.1,0.1v2.6H23c-0.4,0-0.8,0.4-0.8,0.8S22.5,8.8,23,8.8z M25.8,5.7c0.1,0,0.3,0,0.5,0
		c0.7,0,1,0.3,1,0.8c0,0.6-0.4,1-1.2,1c-0.2,0-0.3,0-0.4,0V5.7z"/>
</g>
</svg>
