<svg version="1.1" id="Layer_1" xmlns="http://www.w3.org/2000/svg" xmlns:xlink="http://www.w3.org/1999/xlink" x="0px" y="0px"
	 viewBox="0 0 95 88" style="enable-background:new 0 0 95 88;" xml:space="preserve">
<style type="text/css">
	.st0{fill:#D96A27;}
</style>
<path class="st0" d="M87.1,12.7L68.8,4c-0.1-0.1-0.2-0.1-0.2-0.1c-0.4-0.2-0.8-0.4-1.2-0.6C65.6,2.6,63.8,2,62,1.6
	c-0.3-0.1-0.6-0.2-0.9-0.2c-1.4-0.3-2.8-0.5-4.2-0.7l-0.8-0.1c-1.2-0.1-2.6-0.1-3.6-0.1c-0.2,0-0.5,0-0.7,0c-1.1,0-2.2,0.1-3.3,0.3
	c-0.2,0-0.4,0.1-0.6,0.1c-1,0.2-2,0.3-2.9,0.6c-0.2,0-0.4,0.1-0.6,0.1c-0.9,0.2-1.9,0.5-2.7,0.8c-0.2,0.1-0.4,0.1-0.5,0.2
	c-0.8,0.3-1.7,0.6-2.5,1c-0.2,0.1-0.3,0.2-0.5,0.2c-0.2,0.1-0.4,0.2-0.6,0.3l-18.2,8.7c-0.2,0.1-0.3,0.1-0.4,0.2
	c-0.8,0.4-1.6,0.9-2.4,1.5c-0.1,0.1-0.3,0.2-0.4,0.3c-0.7,0.6-1.3,1.3-1.8,2c-0.1,0.1-0.2,0.3-0.3,0.5c-0.5,0.8-1,1.6-1.4,2.5
	c-0.1,0.2-0.1,0.4-0.2,0.5c-0.4,1-0.6,2.1-0.7,3.2c0,0.2,0,0.5-0.1,0.7c0,0.3,0,0.5,0,0.8v22.7c-2-0.4-3.3-0.8-3.3-0.8
	c-0.7-0.2-1.5,0.2-1.7,0.9c-0.2,0.7,0.2,1.5,0.9,1.7c0.1,0,1.6,0.5,4.1,1v12.7c0,0.4,0,0.7,0,1c0,0.3,0.1,0.6,0.1,0.8
	c0.1,0.5,0.2,0.9,0.3,1.4c-5.8-0.9-9.8-1.9-10-2c-0.7-0.2-1.5,0.2-1.7,1c-0.2,0.7,0.2,1.5,1,1.7c0.6,0.2,5.3,1.4,11.8,2.3
	c1.2,2.2,3,4.1,5.2,5.4c0.3,0.2,0.6,0.3,1,0.5L37.5,84c0.6,0.3,1.1,0.5,1.7,0.8c0.4,0.2,0.8,0.3,1.1,0.4c1.6,0.6,3.3,1.1,5,1.5
	c0.3,0.1,0.6,0.1,0.9,0.2c2.3,0.4,4.6,0.7,6.9,0.7c5.4,0,10.8-1.2,15.7-3.5l18.3-8.7c0.5-0.2,1-0.5,1.5-0.8c1.6-1,3-2.4,4-4
	c0.3-0.5,0.6-1.1,0.9-1.6c0.3-0.7,0.6-1.5,0.8-2.3c0.1-0.2,0.1-0.4,0.2-0.6c0.1-0.3,0.1-0.7,0.2-1c0.1-0.6,0.1-1.2,0.1-1.9V24.9
	C94.8,19.7,91.7,14.9,87.1,12.7z M14.4,64.6c0-0.2-0.1-0.4-0.1-0.7c0-0.3,0-0.5,0-0.8V50.9c3.2,0.5,7.1,1,11.4,1
	c9.6,0,20.6-2.4,26.2-11.7v16.1c-0.2,0.1-0.4,0.3-0.5,0.6c-5.7,11.4-23.8,11.4-36.4,9.9C14.6,66.1,14.5,65.3,14.4,64.6z M92.1,63.1
	c0,0.5,0,1-0.1,1.5c0,0.3-0.1,0.5-0.1,0.8c0,0.2-0.1,0.3-0.1,0.5c-0.2,0.6-0.4,1.2-0.7,1.8c-0.2,0.5-0.5,0.9-0.7,1.3
	c-0.8,1.3-1.9,2.4-3.2,3.2c-0.4,0.2-0.7,0.4-1.2,0.6l-18.2,8.7c-6.5,3.1-13.9,4-20.9,2.7c-0.3-0.1-0.5-0.1-0.8-0.2
	c-1.6-0.3-3.1-0.8-4.7-1.4c-0.3-0.1-0.7-0.3-1-0.4c-0.5-0.2-1.1-0.5-1.6-0.7l-18.2-8.7c-0.3-0.1-0.5-0.3-0.8-0.4
	c-1.2-0.7-2.2-1.6-3-2.6c2.9,0.3,6,0.5,9.2,0.5c10,0,20.5-2,26.1-9.1v18.3c0,0.8,0.6,1.4,1.4,1.4c0.8,0,1.4-0.6,1.4-1.4V61.2
	c5.1,6.5,13.6,8.7,15.8,8.7c0.8,0,1.4-0.6,1.4-1.4s-0.6-1.4-1.4-1.4c-1.8,0-11.5-2.7-15.3-10.2c-0.1-0.2-0.3-0.4-0.5-0.6V39.2
	c5.1,6.5,13.6,8.7,15.8,8.7c0.8,0,1.4-0.6,1.4-1.4c0-0.8-0.6-1.4-1.4-1.4c-1.8,0-11.5-2.7-15.3-10.2c-0.1-0.2-0.3-0.4-0.5-0.6V14.5
	c6,12.1,14.3,14.8,16.5,14.8c0.8,0,1.4-0.6,1.4-1.4c0-0.8-0.6-1.4-1.4-1.4c-1.7,0-11.4-3.4-16.6-19.7c-0.2-0.7-1-1.1-1.8-0.9
	c-0.7,0.2-1.1,0.9-0.9,1.6C38.3,33.8,23,27.5,22.4,27.2c-0.7-0.3-1.5,0-1.8,0.7c-0.3,0.7,0,1.5,0.7,1.9c0.2,0.1,16.3,6.9,30.6-16.5
	v21c-0.3,0.2-0.5,0.4-0.6,0.7c-5.7,16.3-26.6,14.9-37,13.1V24.9c0-0.2,0-0.4,0-0.6c0-0.1,0-0.3,0-0.5l0-0.1c0.1-0.9,0.3-1.7,0.6-2.5
	c0-0.1,0.1-0.3,0.2-0.4c0.3-0.7,0.7-1.4,1.1-2c0.1-0.1,0.2-0.2,0.3-0.4c0.4-0.6,0.9-1.1,1.5-1.6c0.1-0.1,0.2-0.2,0.3-0.3
	c0.6-0.5,1.2-0.9,1.9-1.2c0.1-0.1,0.2-0.1,0.4-0.2l18.2-8.7c0.2-0.1,0.4-0.2,0.6-0.3c0.1-0.1,0.3-0.1,0.4-0.2
	c0.8-0.3,1.6-0.7,2.4-0.9C42.2,5,42.3,5,42.5,4.9c0.8-0.3,1.7-0.5,2.6-0.7c0.1,0,0.3-0.1,0.5-0.1c0.9-0.2,1.8-0.4,2.8-0.5l0.1,0
	c0.1,0,0.3,0,0.5-0.1c1-0.1,2-0.2,3-0.3c0.2,0,0.4,0,0.6,0c1.1,0,2.2,0,3.5,0.1l0.6,0.1c1.3,0.1,2.6,0.3,3.9,0.6
	c0.3,0.1,0.5,0.1,0.8,0.2c1.7,0.4,3.3,1,4.9,1.7c0.4,0.2,0.8,0.3,1.2,0.5c0,0,0.1,0,0.2,0.1l18.2,8.7c3.7,1.8,6.2,5.6,6.2,9.7V63.1z
	"/>
</svg>
