<svg version="1.1" id="Layer_1" xmlns="http://www.w3.org/2000/svg" xmlns:xlink="http://www.w3.org/1999/xlink" x="0px" y="0px"
	 viewBox="0 0 101 86" style="enable-background:new 0 0 101 86;" xml:space="preserve">
<style type="text/css">
	.st0{fill:#D96A27;}
</style>
<g>
	<path class="st0" d="M18.4,66.3h-10c-0.8,0-1.4,0.6-1.4,1.4C7,68.4,7.6,69,8.4,69h10c0.8,0,1.4-0.6,1.4-1.4
		C19.8,66.9,19.2,66.3,18.4,66.3z"/>
	<path class="st0" d="M74.9,66.3h-10c-0.8,0-1.4,0.6-1.4,1.4c0,0.8,0.6,1.4,1.4,1.4h10c0.8,0,1.4-0.6,1.4-1.4
		C76.3,66.9,75.7,66.3,74.9,66.3z"/>
	<path class="st0" d="M16.1,65.9c0.1,0,0.2,0,0.3,0c0.6,0,1.2-0.4,1.3-1c0.2-0.7-0.3-1.5-1-1.7l-4.3-1.1c-0.7-0.2-1.5,0.3-1.7,1
		c-0.2,0.7,0.3,1.5,1,1.7L16.1,65.9z"/>
	<path class="st0" d="M68.8,64.7L73,66c0.1,0,0.3,0.1,0.4,0.1c0.6,0,1.1-0.4,1.3-1c0.2-0.7-0.2-1.5-0.9-1.7L69.6,62
		c-0.7-0.2-1.5,0.2-1.7,0.9C67.7,63.7,68.1,64.5,68.8,64.7z"/>
	<path class="st0" d="M100.6,51.2l-2.4-12.4l-1.3-6.2l0,0l-0.4-2.1l0,0l-0.6-3l-0.1-0.2c-1.1-2-3.3-3.2-5.5-3.2h-7.6h-0.3
		c-0.1-5-3-9.7-7.6-11.8l-18-8.5c-0.1-0.1-0.2-0.1-0.2-0.1c-0.4-0.2-0.8-0.4-1.2-0.5c-1.7-0.7-3.5-1.3-5.2-1.8
		c-0.3-0.1-0.6-0.1-0.9-0.2c-1.4-0.3-2.8-0.5-4.2-0.7l-0.7-0.1c-1.2-0.1-2.5-0.1-3.6-0.1c-0.2,0-0.5,0-0.7,0c-1.1,0-2.2,0.1-3.2,0.3
		c-0.2,0-0.4,0.1-0.6,0.1c-1,0.1-2,0.3-2.9,0.5c-0.2,0-0.4,0.1-0.6,0.1C31.8,1.4,30.9,1.7,30,2c-0.2,0.1-0.4,0.1-0.5,0.2
		c-0.8,0.3-1.7,0.6-2.5,1c-0.2,0.1-0.3,0.1-0.5,0.2c-0.2,0.1-0.4,0.2-0.6,0.3L8,12.2c-0.2,0.1-0.3,0.1-0.4,0.2
		c-0.8,0.4-1.6,0.9-2.3,1.5C5.1,14,5,14.1,4.9,14.2c-0.7,0.6-1.3,1.3-1.8,2c-0.1,0.1-0.2,0.3-0.3,0.4c-0.5,0.8-1,1.6-1.3,2.5
		c-0.1,0.2-0.1,0.4-0.2,0.5c-0.4,1-0.6,2-0.7,3.1c0,0.2,0,0.5-0.1,0.7c0,0.3,0,0.5,0,0.8v37.6c0,0.4,0,0.7,0,1
		c0,0.3,0.1,0.6,0.1,0.8c0.6,4,3,7.6,6.5,9.7c0.3,0.2,0.6,0.3,0.9,0.5l18,8.5c0.5,0.3,1.1,0.5,1.7,0.8c0.4,0.2,0.8,0.3,1.1,0.4
		c1.6,0.6,3.3,1.1,5,1.5c0.3,0.1,0.6,0.1,0.9,0.2c2.2,0.4,4.5,0.6,6.8,0.6c5.3,0,10.6-1.2,15.4-3.5l18-8.6c0.5-0.2,1-0.5,1.4-0.8
		c1.6-1,2.9-2.3,4-3.9c0.2-0.4,0.4-0.7,0.6-1.1l0,0l0.2,0.1l0,0c1.2,0.5,2.5,0.8,3.8,0.8c5.3,0,9.7-4.3,9.7-9.7c0-0.5-0.1-1-0.1-1.5
		h0l0,0C97.8,57.6,100.6,54.8,100.6,51.2z M94.1,31.5c0.2,0.4,0.2,0.8,0.2,1.3l0.2,0.9l0,0l1.2,6.4H82.6H82h-2.1h-0.6h-3.1
		c-1,0-1.8-0.8-1.8-1.8v-5.1c0-1,0.8-1.8,1.8-1.8h3.1h0.6H82h0.6H94.1L94.1,31.5z M77.9,67.6c-0.8,1.3-1.9,2.3-3.2,3.1
		c-0.3,0.2-0.7,0.4-1.1,0.6l-18,8.6c-6.4,3-13.7,4-20.6,2.6c-0.3-0.1-0.5-0.1-0.8-0.2c-1.6-0.3-3.1-0.8-4.6-1.4
		c-0.3-0.1-0.7-0.2-1-0.4c-0.5-0.2-1.1-0.5-1.6-0.7l-18-8.5c-0.3-0.1-0.5-0.3-0.7-0.4c-2.8-1.6-4.8-4.5-5.2-7.7
		c0-0.2-0.1-0.4-0.1-0.7c0-0.3,0-0.5,0-0.8V24.2c0-0.2,0-0.4,0-0.6c0-0.1,0-0.3,0-0.5l0-0.1c0.1-0.8,0.3-1.7,0.6-2.5
		c0-0.1,0.1-0.3,0.2-0.4c0.3-0.7,0.7-1.4,1.1-2C5,18.1,5.1,18,5.2,17.8c0.4-0.6,0.9-1.1,1.5-1.6c0.1-0.1,0.2-0.2,0.3-0.3
		c0.6-0.5,1.2-0.9,1.9-1.2c0.1-0.1,0.2-0.1,0.4-0.2l17.9-8.5c0.2-0.1,0.3-0.2,0.5-0.3c0.1-0.1,0.3-0.1,0.4-0.2
		c0.8-0.3,1.6-0.6,2.3-0.9c0.1-0.1,0.3-0.1,0.5-0.2c0.8-0.3,1.7-0.5,2.5-0.7c0.1,0,0.3-0.1,0.5-0.1c0.8-0.2,1.8-0.4,2.7-0.5l0.1,0
		c0.1,0,0.3,0,0.5-0.1c1-0.1,2-0.2,3-0.2c0.2,0,0.4,0,0.6,0c1.1,0,2.2,0,3.4,0.1L44.7,3c1.3,0.1,2.6,0.3,3.9,0.6
		c0.3,0.1,0.5,0.1,0.8,0.2c1.7,0.4,3.3,1,4.9,1.6c0.4,0.2,0.8,0.3,1.2,0.5c0,0,0.1,0,0.1,0.1l18,8.5c3.6,1.7,6,5.4,6,9.4h-0.3h-6.5
		c-3.5,0-6.4,2.9-6.4,6.4v20.9c0,3.5,2.9,6.4,6.4,6.4h2.4h0c-0.1,0.5-0.1,1-0.1,1.5c0,2.7,1.2,5.3,3.2,7.2l0,0l0.2,0.1l0.1,0
		C78.3,66.9,78.1,67.3,77.9,67.6z M84.8,66.3c-1,0-2.1-0.2-3-0.7c-0.8-0.4-1.6-0.9-2.2-1.6c-1.2-1.3-1.9-3-1.9-4.8
		c0-0.6,0.1-1.1,0.2-1.7l0-0.2l0.2-0.5c0.1-0.4,0.3-0.8,0.6-1.3l0.1-0.2c0,0,0.1-0.1,0.1-0.1l0.2-0.2c0,0,0.1-0.1,0.1-0.1
		c0.2-0.2,0.4-0.4,0.6-0.7L80,54c0.2-0.2,0.4-0.4,0.7-0.6c0.1,0,0.1-0.1,0.2-0.1l0.1-0.1c0.2-0.1,0.4-0.2,0.6-0.3
		c0.1-0.1,0.2-0.1,0.3-0.2c0.2-0.1,0.4-0.2,0.6-0.2l0.1,0c0.1,0,0.2-0.1,0.3-0.1c0.2-0.1,0.4-0.1,0.7-0.2l0.1,0c0.1,0,0.1,0,0.2,0
		c0.7-0.1,1.3-0.1,2.1,0c0.1,0,0.1,0,0.2,0l0.1,0c0.2,0,0.5,0.1,0.7,0.2c0.1,0,0.2,0.1,0.4,0.1c0.2,0.1,0.4,0.2,0.6,0.2
		c0.1,0.1,0.2,0.1,0.3,0.2c0.2,0.1,0.4,0.2,0.6,0.3l0.1,0.1c0.1,0,0.1,0.1,0.2,0.1c0.2,0.2,0.5,0.4,0.7,0.6l0.1,0.1
		c0.2,0.2,0.4,0.5,0.7,0.7c0,0,0.1,0.1,0.1,0.1l0.2,0.2c0,0,0,0,0,0l0.2,0.3c0.3,0.5,0.5,0.9,0.6,1.3l0.1,0.3l0.1,0.3
		c0.1,0.6,0.2,1.1,0.2,1.7C91.9,63.1,88.7,66.3,84.8,66.3z M94.2,55.1h-0.6h0c-0.2-0.3-0.3-0.7-0.5-1l-0.2,0.1L93,54l0-0.1
		c-0.2-0.3-0.5-0.7-0.8-1.1l-0.1-0.1c-0.3-0.3-0.5-0.6-0.9-0.9l-0.1-0.1c-0.3-0.3-0.6-0.5-0.9-0.7L90,51c-0.3-0.2-0.7-0.4-1-0.6
		l-0.2-0.1c-0.4-0.2-0.8-0.3-1.1-0.4l-0.2,0c-0.4-0.1-0.8-0.2-1.2-0.3l-0.1,0c-0.9-0.1-1.7-0.1-2.7,0l-0.1,0
		c-0.3,0.1-0.7,0.1-1.1,0.3l0,0l0,0L82,49.9c-0.4,0.1-0.8,0.3-1.2,0.5l-0.1,0.1c-0.3,0.1-0.5,0.3-0.8,0.4l0,0l-0.4,0.3l-0.1,0.1v0
		c-0.3,0.2-0.6,0.4-0.9,0.7L78.4,52c-0.3,0.3-0.6,0.6-0.9,0.9L77.4,53c-0.3,0.3-0.5,0.7-0.7,1l-0.1,0.1c-0.2,0.3-0.4,0.7-0.5,1h0
		h-3.2c-2.1,0-3.8-1.7-3.8-3.8V30.4c0-2.1,1.7-3.8,3.8-3.8h6.5h0.6H82h0.6h7.6c1.3,0,2.5,0.7,3.2,1.7l0.1,0.6H82.6H82h-2.1h-0.6
		h-3.1c-2.4,0-4.3,2-4.3,4.3v5.1c0,2.4,2,4.3,4.3,4.3h3.1h0.6H82h0.6h13.8h0l1.7,8.6C98,53.4,96.3,55.1,94.2,55.1z"/>
	<path class="st0" d="M64.5,41.3c0-2.2-1.8-4-4-4H43.4c-0.1-0.1-0.1-0.2-0.2-0.2c-0.5-0.4-2.4-2.9-2.1-5.4c0-0.1,0-0.1,0-0.2
		l2.2-3.2c0.7,2.3,2.3,4,2.9,4.4c0.2,0.2,0.5,0.2,0.8,0.2c0.4,0,0.8-0.2,1.1-0.6c0.4-0.6,0.3-1.5-0.3-1.9c-0.5-0.4-2.4-2.9-2.1-5.4
		c0-0.1,0-0.1,0-0.2l2.2-3.2c0.2,3.2,1.6,5.1,2.4,5.6c0.2,0.2,0.5,0.3,0.8,0.3c0.4,0,0.9-0.2,1.1-0.6c0.4-0.6,0.3-1.5-0.3-1.9
		c-0.5-0.5-2.1-3.2-0.6-8.4c0.2-0.7-0.2-1.5-0.9-1.7c-0.5-0.2-1.1,0-1.5,0.4c-8.5,4.4-11.4,0.2-11.6,0c-0.4-0.6-1.2-0.8-1.9-0.5
		c-0.7,0.4-0.9,1.2-0.5,1.9c0.1,0.2,3.2,5.1,11,2.8l-2.6,3.7c-0.1,0-0.2,0.1-0.3,0.1c-6.2,4.4-14-5.2-14.1-5.3
		c-0.5-0.6-1.3-0.7-1.9-0.2c-0.6,0.5-0.7,1.3-0.2,1.9c0.3,0.4,6.1,7.5,12.7,7.5c0.4,0,0.7,0,1.1-0.1l-1.8,2.5c-0.1,0-0.1,0-0.2,0.1
		c-4.8,2.6-12.6-4.7-15.2-7.8c-0.5-0.6-1.4-0.7-1.9-0.2c-0.6,0.5-0.7,1.4-0.2,1.9c0.4,0.4,8,9.3,15,9.3c0,0,0.1,0,0.1,0l-2.7,3.8
		c0,0.1,0,0.1-0.1,0.2H11.3c-2.2,0-4,1.8-4,4v12.4c0,2.2,1.8,4,4,4h7.5h0c-0.1,0.5-0.1,1-0.1,1.5c0,5.3,4.3,9.7,9.7,9.7
		s9.7-4.3,9.7-9.7c0-0.5-0.1-1-0.1-1.5h0h22.6c2.2,0,4-1.8,4-4V41.3z M38.8,34.9c0.3,0.9,0.7,1.7,1.1,2.4h-2.8L38.8,34.9z
		 M28.3,66.3c-3.9,0-7.1-3.2-7.1-7.1c0-0.6,0.1-1.1,0.2-1.7l0-0.2l0.2-0.5c0.1-0.4,0.4-0.8,0.6-1.3l0.1-0.2c0,0,0.1-0.1,0.1-0.1
		l0.2-0.2c0,0,0.1-0.1,0.1-0.1c0.2-0.3,0.4-0.5,0.7-0.8l0.1-0.1c0.2-0.2,0.4-0.4,0.7-0.6c0.1,0,0.1-0.1,0.2-0.1l0.1-0.1
		c0.2-0.1,0.4-0.2,0.6-0.3c0.1-0.1,0.2-0.1,0.3-0.2c0.2-0.1,0.4-0.2,0.6-0.2c0.1,0,0.2-0.1,0.4-0.1c0.2-0.1,0.4-0.1,0.7-0.2l0.1,0
		c0.1,0,0.1,0,0.2,0c0.7-0.1,1.3-0.1,2.1,0c0.1,0,0.1,0,0.2,0l0.1,0c0.2,0,0.5,0.1,0.7,0.2c0.1,0,0.2,0.1,0.4,0.1
		c0.2,0.1,0.4,0.2,0.6,0.2c0.1,0.1,0.2,0.1,0.3,0.2c0.2,0.1,0.4,0.2,0.6,0.3l0.1,0.1c0.1,0,0.1,0.1,0.2,0.1c0.2,0.2,0.5,0.4,0.7,0.6
		l0.1,0.1c0.2,0.2,0.4,0.5,0.7,0.7c0,0,0.1,0.1,0.1,0.1l0.2,0.2c0,0,0,0,0,0l0.2,0.3c0.3,0.5,0.5,0.9,0.6,1.3l0.1,0.3l0.1,0.3
		c0.1,0.6,0.2,1.1,0.2,1.7C35.4,63.1,32.2,66.3,28.3,66.3z M61.9,53.7c0,0.8-0.6,1.4-1.4,1.4H37.1h0c-0.2-0.3-0.3-0.7-0.5-1
		l-0.2,0.1v0l0.2-0.2l0-0.1c-0.2-0.3-0.5-0.7-0.8-1.1l-0.1-0.1c-0.3-0.3-0.5-0.6-0.9-0.9l-0.1-0.1c-0.3-0.3-0.6-0.5-0.9-0.7L33.5,51
		c-0.3-0.2-0.7-0.4-1-0.6l-0.2-0.1c-0.4-0.2-0.8-0.3-1.1-0.4l-0.2,0c-0.4-0.1-0.8-0.2-1.2-0.3l-0.1,0c-0.9-0.1-1.7-0.1-2.7,0l-0.1,0
		c-0.4,0.1-0.8,0.2-1.3,0.3l-0.1,0c-0.4,0.1-0.8,0.3-1.2,0.5l-0.1,0.1c-0.4,0.2-0.7,0.4-1,0.6L23,51.1c-0.3,0.2-0.6,0.5-0.9,0.7
		L21.9,52c-0.3,0.3-0.6,0.6-0.9,0.9L20.9,53c-0.3,0.3-0.5,0.7-0.7,1l-0.1,0.1c-0.2,0.3-0.4,0.7-0.5,1h0h-8.3c-0.8,0-1.4-0.6-1.4-1.4
		V41.3c0-0.8,0.6-1.4,1.4-1.4h49.2c0.8,0,1.4,0.6,1.4,1.4V53.7z"/>
</g>
</svg>
