<svg version="1.1" id="Layer_1" xmlns="http://www.w3.org/2000/svg" xmlns:xlink="http://www.w3.org/1999/xlink" x="0px" y="0px"
	 viewBox="0 0 96 88" style="enable-background:new 0 0 96 88;" xml:space="preserve">
<style type="text/css">
	.st0{fill:#D96A27;}
</style>
<g>
	<path class="st0" d="M94.4,74.4c-0.3-0.2-0.6-0.4-0.8-0.6c-0.2-0.2-0.5-0.4-1.3-0.8c-0.3-0.1-0.7-0.3-1-0.5c0.5-0.6,1-1.1,1.4-1.8
		c0.3-0.5,0.6-1.1,0.9-1.6c0.3-0.7,0.6-1.5,0.8-2.3c0.1-0.2,0.1-0.4,0.2-0.6c0.1-0.3,0.1-0.7,0.2-1c0.1-0.6,0.1-1.2,0.1-1.9V24.8
		c0-5.2-3-10-7.8-12.3L68.7,3.8c-0.1-0.1-0.2-0.1-0.2-0.1c-0.4-0.2-0.8-0.4-1.2-0.6c-1.7-0.7-3.5-1.3-5.4-1.8
		c-0.3-0.1-0.6-0.2-0.9-0.2c-1.4-0.3-2.8-0.5-4.3-0.7l-0.8-0.1c-1.2-0.1-2.6-0.1-3.6-0.1c-0.2,0-0.5,0-0.7,0c-1.1,0-2.2,0.1-3.3,0.3
		c-0.2,0-0.4,0.1-0.6,0.1c-1.1,0.2-2.1,0.3-3,0.6c-0.2,0-0.4,0.1-0.6,0.1c-0.9,0.2-1.9,0.5-2.7,0.8c-0.2,0.1-0.4,0.1-0.6,0.2
		c-0.8,0.3-1.7,0.6-2.6,1c-0.2,0.1-0.3,0.2-0.5,0.2c-0.2,0.1-0.4,0.2-0.6,0.3l-18.4,8.7c-0.2,0.1-0.3,0.1-0.4,0.2
		c-0.8,0.4-1.6,0.9-2.4,1.6c-0.1,0.1-0.3,0.2-0.4,0.3c-0.7,0.6-1.3,1.3-1.9,2c-0.1,0.1-0.2,0.3-0.3,0.5c-0.5,0.8-1,1.6-1.4,2.5
		c-0.1,0.2-0.1,0.4-0.2,0.5c-0.4,1-0.6,2.1-0.7,3.2c0,0.2,0,0.5-0.1,0.7c0,0.3,0,0.5,0,0.8v37.4c-1,0.2-2,0.4-2.8,0.5
		c-5.4,1-7.7,1.4-7.9,3.2c-0.2,1.6,1.7,2.4,2.7,2.7c1.5,0.6,5.2,0.9,9.6,0.8c1.2,2.3,3,4.3,5.3,5.6c0.3,0.2,0.6,0.3,1,0.5l18.4,8.7
		c0.6,0.3,1.2,0.5,1.7,0.8c0.4,0.2,0.8,0.3,1.1,0.4c1.6,0.6,3.3,1.1,5.1,1.5c0.3,0.1,0.6,0.1,0.9,0.2c2.3,0.4,4.6,0.7,6.9,0.7
		c5.4,0,10.9-1.2,15.8-3.6l17.1-8.1c9.2,1.8,9.3,1.8,9.8,0.5C96,75.5,95,74.7,94.4,74.4z M67.5,81.8c-6.5,3.1-14,4-21,2.7
		c-0.3-0.1-0.5-0.1-0.8-0.2c-1.6-0.3-3.2-0.8-4.7-1.4c-0.3-0.1-0.7-0.3-1-0.4c-0.6-0.2-1.1-0.5-1.6-0.7L20,73
		c-0.3-0.1-0.5-0.3-0.8-0.4c-1.4-0.8-2.6-2-3.5-3.3c8.5-0.4,18.4-2,21.2-4.8c1.4-1.4,2.7-2,3.9-1.9c1.2,0.1,2.1,0.8,2.6,1.3
		c-0.3,1.9-0.9,7.2,1,12.8c0.5,1.6,1.9,2.6,3.6,2.6c0,0,0.1,0,0.1,0c1.7,0,3.1-1.1,3.5-2.7c0.7-2.6,2.1-4.6,3.5-6.8
		c1.2-1.8,2.4-3.6,3.2-5.8c0.2-0.5,0.4-0.8,0.6-0.9c0.9-0.3,3.6,1.6,5.9,3.2c4.1,2.9,9.5,6.7,16.7,8.7L67.5,81.8z M85.5,73.2
		c-0.2,0-0.3-0.1-0.5-0.1c-8.1-1.6-14.2-5.9-18.7-9c-3.7-2.6-6.1-4.3-8.3-3.6c-1.1,0.3-1.9,1.2-2.4,2.6c-0.7,1.9-1.8,3.5-2.9,5.3
		c-1.5,2.3-3,4.6-3.8,7.6c-0.2,0.6-0.7,0.7-0.9,0.7c-0.2,0-0.7,0-0.9-0.7c-2.1-6.1-0.8-12-0.8-12c0.1-0.4,0-0.8-0.2-1.1
		c-0.1-0.1-1.9-2.7-5-2.9c-2.1-0.2-4.2,0.7-6.2,2.7c-2.2,2.2-12.3,3.6-20.5,4c-1,0-1.9,0.1-2.8,0.1c-2.9,0-5.3-0.1-6.7-0.4
		C6,66,7.4,65.7,8.7,65.5c0.8-0.1,1.6-0.3,2.5-0.4c0.9-0.2,1.8-0.3,2.7-0.5c6.4-1.3,13.2-3.4,15-7.9c1.4-3.3,1.6-19,1.6-26.2
		c0.1,0,0.1,0.1,0.2,0.1c1.1,0.7,2.4,1.1,3.7,1.3v21.9c0,0.8,0.6,1.4,1.4,1.4s1.4-0.6,1.4-1.4V32.1c0.1,0,0.3,0,0.4,0
		c1.9,0,4-0.2,6.5-0.4c0,0,0.1,0,0.1,0v8.1c0,0.8,0.6,1.4,1.4,1.4s1.4-0.6,1.4-1.4v-8.5c0.9-0.1,2-0.2,3.3-0.4l3.5-0.5
		c0.3,0,0.6-0.1,0.9-0.1v17c0,0.8,0.6,1.4,1.4,1.4s1.4-0.6,1.4-1.4V30.1c3.7-0.5,4.3-0.5,5.3-0.4c1,0.1,1.8,0.2,2.4,0.4v13.6
		c0,0.8,0.6,1.4,1.4,1.4s1.4-0.6,1.4-1.4V30.7c1,0.2,2,0.3,3.2-0.1c0.7-0.2,1.3-0.5,2-0.9C72.6,36,71.8,47.6,74,57.5
		c1.6,7.5,7.6,12.4,12.2,15.4c0.4,0.2,0.8,0.5,1.1,0.7C86.7,73.4,86.1,73.3,85.5,73.2z M29.6,24.9c0.2-0.2,0.8-0.2,1.7-0.2
		c0.2,0,0.4,0,0.6,0l0.2,0c4.5,0.1,7.4-1.3,10.6-2.9c2.7-1.3,5.5-2.6,9.6-3.3c7.8-1.3,13.8,0.9,16.3,1.8c2.4,0.9,5.6,2,5.7,3.7
		c0,0.2,0,0.4-0.1,0.6c-0.1,0.3-0.2,0.5-0.3,0.8c-0.6,1.1-2,2.2-3.4,2.6c-1.1,0.3-1.7,0.1-2.9-0.2c-1.1-0.3-2.4-0.7-4.5-0.9
		c-1.5-0.1-2.1-0.1-9.6,0.9L50,28.2c-3.3,0.4-5.5,0.7-6.1,0.8c-5.5,0.4-9.2,0.7-11.7-0.8c-0.8-0.5-1.5-1.2-1.9-1.7
		c-0.1-0.1-0.1-0.2-0.2-0.3C29.7,25.5,29.6,25.1,29.6,24.9z M90.3,69.2c-0.5,0.7-1,1.3-1.6,1.9c-4.4-2.6-10.5-7.2-12-14.2
		c-2.6-12.1-0.5-27.6-0.1-30.7c0.4-0.8,0.6-1.6,0.5-2.5c-0.3-3.4-4.3-4.9-7.5-6.1c-2.7-1-9.1-3.4-17.7-1.9
		c-4.6,0.8-7.7,2.3-10.4,3.6c-3,1.4-5.5,2.7-9.3,2.6l-0.2,0c-1.2,0-3.3-0.1-4.5,1.2c-0.4,0.4-0.8,1.2-0.6,2.5
		c0.1,0.7,0.4,1.4,0.8,2.1c0,9.6-0.3,25.3-1.4,27.9c-1.3,3.2-7.1,5-12.5,6.1V24.8c0-0.2,0-0.4,0-0.6c0-0.1,0-0.3,0-0.5l0-0.1
		c0.1-0.9,0.3-1.7,0.6-2.5c0.1-0.1,0.1-0.3,0.2-0.4c0.3-0.7,0.7-1.4,1.1-2c0.1-0.1,0.2-0.2,0.3-0.4c0.4-0.6,0.9-1.1,1.5-1.6
		c0.1-0.1,0.2-0.2,0.3-0.3c0.6-0.5,1.2-0.9,1.9-1.3c0.1-0.1,0.2-0.1,0.4-0.2l18.3-8.7c0.2-0.1,0.4-0.2,0.6-0.3
		c0.1-0.1,0.3-0.1,0.4-0.2c0.8-0.3,1.6-0.7,2.4-0.9c0.1-0.1,0.3-0.1,0.5-0.2c0.8-0.3,1.7-0.5,2.6-0.7c0.1,0,0.3-0.1,0.5-0.1
		c0.9-0.2,1.8-0.4,2.8-0.5l0.1,0c0.1,0,0.3,0,0.5-0.1c1-0.1,2-0.2,3.1-0.3c0.2,0,0.4,0,0.6,0c1.1,0,2.2,0,3.5,0.1l0.6,0.1
		c1.3,0.1,2.6,0.3,4,0.6c0.3,0.1,0.6,0.1,0.8,0.2c1.7,0.4,3.4,1,5,1.7c0.4,0.2,0.8,0.3,1.2,0.5c0,0,0.1,0,0.2,0.1L85.9,15
		c3.8,1.8,6.2,5.6,6.2,9.8v38.5c0,0.5,0,1-0.1,1.5c0,0.3-0.1,0.5-0.1,0.8c0,0.2-0.1,0.3-0.1,0.5c-0.2,0.6-0.4,1.2-0.7,1.8
		C90.8,68.3,90.6,68.8,90.3,69.2z"/>
	<path class="st0" d="M35.4,28.1c0.1,0,0.7,0.1,1.6,0.1c3,0,9.3-0.5,13-4.2c2-2,3.6-1.6,6-0.8c1.3,0.4,2.9,0.9,4.6,0.9
		c4.2,0,10.3,2.5,10.4,2.5c0.7,0.3,1.5,0,1.8-0.8c0.3-0.7,0-1.5-0.8-1.8c-0.3-0.1-6.7-2.7-11.4-2.7c-1.3,0-2.6-0.4-3.8-0.7
		c-2.6-0.8-5.6-1.7-8.9,1.5c-4,4-12.3,3.4-12.4,3.4c-0.8-0.1-1.5,0.5-1.5,1.3C34,27.4,34.6,28.1,35.4,28.1z"/>
</g>
</svg>
